<svg width="956" height="748" viewBox="0 0 956 748" fill="none" xmlns="http://www.w3.org/2000/svg">
<g opacity="0.2" filter="url(#filter0_f_4234_7191)">
<path d="M255.351 713.633L53.2344 538.973L457.11 304.023L921.319 499.892L255.351 713.633Z" fill="url(#paint0_linear_4234_7191)"/>
</g>
<path d="M504.814 352.448V279.094L385.027 347.306V421.114L504.814 352.448Z" fill="#B5C912"/>
<path d="M332.092 315.847V390.713L385.027 421.114V347.306L332.092 315.847Z" fill="#C7DF12"/>
<path d="M452.18 247.182L332.092 315.847L385.027 347.306L504.814 279.094L452.18 247.182Z" fill="#E1FF03"/>
<path d="M380.768 423.591V350.237L260.982 418.448V492.256L380.768 423.591Z" fill="#B5C912"/>
<path d="M208.046 386.989V461.856L260.982 492.256V418.448L208.046 386.989Z" fill="#C7DF12"/>
<path d="M328.135 318.324L208.046 386.989L260.982 418.448L380.768 350.237L328.135 318.324Z" fill="#E1FF03"/>
<path d="M561.412 386.071V312.717L441.626 380.929V454.737L561.412 386.071Z" fill="#B5C912"/>
<path d="M388.69 349.47V424.336L441.626 454.737V380.929L388.69 349.47Z" fill="#C7DF12"/>
<path d="M508.779 280.805L388.69 349.47L441.626 380.929L561.412 312.717L508.779 280.805Z" fill="#E1FF03"/>
<path d="M618.211 419.913V346.559L498.424 414.771V488.578L618.211 419.913Z" fill="#B5C912"/>
<path d="M445.489 383.312V458.178L498.424 488.578V414.771L445.489 383.312Z" fill="#C7DF12"/>
<path d="M565.577 314.646L445.489 383.312L498.424 414.771L618.211 346.559L565.577 314.646Z" fill="#E1FF03"/>
<path opacity="0.2" fill-rule="evenodd" clip-rule="evenodd" d="M96.2557 278.428L75.1104 290.507L247.638 393.55L268.428 381.649L292.641 367.789L314.839 355.082L337.123 342.327L359.792 329.35L382.646 316.268L405.818 303.004L427.649 290.507L448.752 278.428L472.652 264.747L494.95 251.983L517.655 238.986L543.207 224.359L565.677 211.497L586.142 199.783L607.661 187.465L622.662 178.878L637.663 170.291L468.787 68.966C467.02 67.9056 464.817 67.882 463.028 68.9044L450.894 75.8359L435.863 84.4227L414.404 96.6811L390.769 110.183L367.649 123.391L341.711 138.208L319.949 150.64L294.188 165.356L270.518 178.878L251.254 189.883L229.692 202.2L208.32 214.41L186.159 227.07L165.298 238.986L142.548 251.983L120.204 264.747L96.2557 278.428Z" fill="url(#paint1_linear_4234_7191)"/>
<path opacity="0.2" d="M57.6738 284.993V540.975C57.6738 543.014 58.7627 544.897 60.5295 545.915L240.897 649.76V394.423L57.6738 284.993Z" fill="url(#paint2_linear_4234_7191)"/>
<path opacity="0.2" d="M76.918 291.141V531.41C76.918 533.449 78.0069 535.332 79.7737 536.349L249.036 633.801V393.939L76.918 291.141Z" fill="url(#paint3_linear_4234_7191)"/>
<g opacity="0.2">
<path d="M240.095 394.423V649.76L262.174 637.121V381.784L240.095 394.423Z" fill="url(#paint4_linear_4234_7191)"/>
<path d="M262.174 381.784V637.121L287.888 622.402V367.065L262.174 381.784Z" fill="url(#paint5_linear_4234_7191)"/>
<path d="M287.888 367.065V622.402L311.462 608.907V353.571L287.888 367.065Z" fill="url(#paint6_linear_4234_7191)"/>
<path d="M311.462 353.571V608.907L335.127 595.361V340.024L311.462 353.571Z" fill="url(#paint7_linear_4234_7191)"/>
<path d="M335.127 340.024V595.361L359.202 581.58V326.243L335.127 340.024Z" fill="url(#paint8_linear_4234_7191)"/>
<path d="M359.202 326.243V581.58L383.473 567.687V312.35L359.202 326.243Z" fill="url(#paint9_linear_4234_7191)"/>
<path d="M383.473 312.35V567.687L408.081 553.601V298.264L383.473 312.35Z" fill="url(#paint10_linear_4234_7191)"/>
<path d="M408.081 298.264V553.601L431.266 540.329V284.993L408.081 298.264Z" fill="url(#paint11_linear_4234_7191)"/>
<path d="M431.266 284.993V540.329L453.676 527.501V272.164L431.266 284.993Z" fill="url(#paint12_linear_4234_7191)"/>
<path d="M453.676 272.164V527.501L479.058 512.972V257.635L453.676 272.164Z" fill="url(#paint13_linear_4234_7191)"/>
<path d="M479.058 257.635V512.972L502.739 499.417V244.08L479.058 257.635Z" fill="url(#paint14_linear_4234_7191)"/>
<path d="M502.739 244.08V499.417L526.851 485.614V230.278L502.739 244.08Z" fill="url(#paint15_linear_4234_7191)"/>
<path d="M526.851 230.278V485.614L553.987 470.081V214.744L526.851 230.278Z" fill="url(#paint16_linear_4234_7191)"/>
<path d="M553.987 214.744V470.081L577.85 456.422V201.085L553.987 214.744Z" fill="url(#paint17_linear_4234_7191)"/>
<path d="M577.85 201.085V456.422L599.583 443.981V188.644L577.85 201.085Z" fill="url(#paint18_linear_4234_7191)"/>
<path d="M599.583 188.644V443.981L622.437 430.899V175.562L599.583 188.644Z" fill="url(#paint19_linear_4234_7191)"/>
<path d="M622.437 175.562V430.899L638.367 421.78V166.443L622.437 175.562Z" fill="url(#paint20_linear_4234_7191)"/>
<path d="M654.298 412.661V157.324L638.367 166.443V421.78L654.298 412.661Z" fill="url(#paint21_linear_4234_7191)"/>
</g>
<g opacity="0.2">
<path d="M246.836 391.762V632.194L267.626 620.293V379.861L246.836 391.762Z" fill="url(#paint22_linear_4234_7191)"/>
<path d="M267.626 379.861V620.293L291.839 606.433V366.001L267.626 379.861Z" fill="url(#paint23_linear_4234_7191)"/>
<path d="M291.839 366.001V606.433L314.037 593.726V353.294L291.839 366.001Z" fill="url(#paint24_linear_4234_7191)"/>
<path d="M314.037 353.294V593.726L336.321 580.971V340.539L314.037 353.294Z" fill="url(#paint25_linear_4234_7191)"/>
<path d="M336.321 340.539V580.971L358.99 567.994V327.562L336.321 340.539Z" fill="url(#paint26_linear_4234_7191)"/>
<path d="M358.99 327.562V567.994L381.845 554.912V314.48L358.99 327.562Z" fill="url(#paint27_linear_4234_7191)"/>
<path d="M381.845 314.48V554.912L405.016 541.648V301.216L381.845 314.48Z" fill="url(#paint28_linear_4234_7191)"/>
<path d="M405.016 301.216V541.648L426.848 529.151V288.719L405.016 301.216Z" fill="url(#paint29_linear_4234_7191)"/>
<path d="M426.848 288.719V529.151L447.95 517.072V276.64L426.848 288.719Z" fill="url(#paint30_linear_4234_7191)"/>
<path d="M447.95 276.64V517.072L471.85 503.391V262.959L447.95 276.64Z" fill="url(#paint31_linear_4234_7191)"/>
<path d="M471.85 262.959V503.391L494.149 490.627V250.195L471.85 262.959Z" fill="url(#paint32_linear_4234_7191)"/>
<path d="M494.149 250.195V490.627L516.853 477.63V237.198L494.149 250.195Z" fill="url(#paint33_linear_4234_7191)"/>
<path d="M516.853 237.198V477.63L542.406 463.004V222.571L516.853 237.198Z" fill="url(#paint34_linear_4234_7191)"/>
<path d="M542.406 222.571V463.004L564.875 450.141V209.709L542.406 222.571Z" fill="url(#paint35_linear_4234_7191)"/>
<path d="M564.875 209.709V450.141L585.34 438.427V197.995L564.875 209.709Z" fill="url(#paint36_linear_4234_7191)"/>
<path d="M585.34 197.995V438.427L606.859 426.109V185.677L585.34 197.995Z" fill="url(#paint37_linear_4234_7191)"/>
<path d="M606.859 185.677V426.109L621.86 417.522V177.09L606.859 185.677Z" fill="url(#paint38_linear_4234_7191)"/>
<path d="M633.993 410.577C635.767 409.562 636.861 407.674 636.861 405.631V168.503L621.86 177.09V417.522L633.993 410.577Z" fill="url(#paint39_linear_4234_7191)"/>
</g>
<path opacity="0.2" fill-rule="evenodd" clip-rule="evenodd" d="M471.356 25.1043C470.923 25.2168 470.501 25.387 470.101 25.6151L466.835 27.4811L466.27 26.4913L469.536 24.6254C470.024 24.3467 470.54 24.1385 471.07 24.001L471.356 25.1043ZM475.285 25.6706C474.891 25.434 474.472 25.2547 474.042 25.133L474.352 24.0361C474.878 24.185 475.39 24.4041 475.871 24.6932L478.365 26.1892L477.778 27.1666L475.285 25.6706ZM487.752 33.1507L482.765 30.1587L483.352 29.1812L488.338 32.1732L487.752 33.1507ZM457.881 32.5961L460.302 31.213L459.737 30.2232L454.475 33.229L455.041 34.2188L456.746 33.2444L458.86 34.5127L459.447 33.5352L457.881 32.5961ZM497.725 39.1347L492.739 36.1427L493.325 35.1653L498.312 38.1573L497.725 39.1347ZM451.05 36.4986L447.059 38.7784L446.494 37.7886L450.484 35.5088L451.05 36.4986ZM468.461 40.2721L463.661 37.3924L464.247 36.4149L469.048 39.2946L468.461 40.2721ZM441.918 41.7152L443.068 41.0582L442.503 40.0684L437.659 42.8356L438.224 43.8254L440.783 42.3636L442.898 43.6319L443.484 42.6543L441.918 41.7152ZM507.699 45.1188L502.712 42.1268L503.298 41.1493L508.285 44.1414L507.699 45.1188ZM478.062 46.0316L473.262 43.1519L473.848 42.1744L478.648 45.0541L478.062 46.0316ZM452.5 49.3913L447.699 46.5116L448.285 45.534L453.087 48.4138L452.5 49.3913ZM432.527 47.08L426.83 50.3346L426.265 49.3448L431.962 46.0902L432.527 47.08ZM517.672 51.1029L512.685 48.1108L513.272 47.1334L518.259 50.1254L517.672 51.1029ZM487.663 51.7911L482.862 48.9114L483.449 47.9339L488.249 50.8136L487.663 51.7911ZM462.103 55.1508L457.301 52.2711L457.888 51.2935L462.689 54.1733L462.103 55.1508ZM419.129 54.7338L421.133 53.5892L420.567 52.5994L415.627 55.4216L416.192 56.4114L417.994 55.382L420.108 56.6509L420.695 55.6736L419.129 54.7338ZM527.646 57.0869L522.659 54.0949L523.245 53.1174L528.232 56.1095L527.646 57.0869ZM497.264 57.5506L492.463 54.6708L493.05 53.6933L497.85 56.5731L497.264 57.5506ZM471.705 60.9103L466.904 58.0306L467.49 57.053L472.292 59.9327L471.705 60.9103ZM412.009 58.8012L407.826 61.1911L407.26 60.2013L411.444 57.8115L412.009 58.8012ZM429.707 62.4137L424.908 59.5323L425.494 58.555L430.294 61.4364L429.707 62.4137ZM537.619 63.071L532.632 60.079L533.219 59.1015L538.205 62.0935L537.619 63.071ZM506.865 63.3101L502.064 60.4303L502.651 59.4528L507.451 62.3326L506.865 63.3101ZM403.642 63.581L399.459 65.9708L398.893 64.9811L403.077 62.5912L403.642 63.581ZM481.308 66.6698L476.507 63.79L477.093 62.8125L481.894 65.6922L481.308 66.6698ZM439.306 68.1765L434.507 65.2951L435.093 64.3178L439.893 67.1992L439.306 68.1765ZM547.592 69.055L542.606 66.063L543.192 65.0856L548.179 68.0776L547.592 69.055ZM516.465 69.0695L511.665 66.1898L512.251 65.2123L517.052 68.092L516.465 69.0695ZM394.044 69.0642L395.275 68.3607L394.71 67.3709L389.549 70.3191L390.114 71.3089L392.899 69.7183L395.059 70.9696L395.63 69.9833L394.044 69.0642ZM490.91 72.4292L486.109 69.5495L486.695 68.572L491.497 71.4517L490.91 72.4292ZM448.905 73.9393L444.106 71.0579L444.692 70.0806L449.492 72.962L448.905 73.9393ZM526.066 74.829L521.266 71.9493L521.852 70.9718L526.653 73.8515L526.066 74.829ZM557.566 75.0391L552.579 72.0471L553.166 71.0696L558.152 74.0616L557.566 75.0391ZM404.835 76.6325L399.947 73.8011L400.519 72.8147L405.407 75.6462L404.835 76.6325ZM383.976 74.8154L377.838 78.322L377.272 77.3322L383.411 73.8257L383.976 74.8154ZM500.513 78.1887L495.712 75.309L496.298 74.3314L501.099 77.2112L500.513 78.1887ZM458.504 79.7022L453.705 76.8208L454.292 75.8434L459.091 78.7249L458.504 79.7022ZM535.667 80.5885L530.867 77.7088L531.453 76.7313L536.253 79.611L535.667 80.5885ZM567.539 81.0232L562.553 78.0311L563.139 77.0537L568.126 80.0457L567.539 81.0232ZM414.612 82.2954L409.724 79.464L410.295 78.4776L415.183 81.309L414.612 82.2954ZM510.115 83.9482L505.314 81.0685L505.9 80.0909L510.702 82.9707L510.115 83.9482ZM369.494 83.0886L371.7 81.8285L371.134 80.8387L365.77 83.9034L366.335 84.8931L368.347 83.7438L370.517 84.9919L371.085 84.0037L369.494 83.0886ZM468.104 85.465L463.304 82.5836L463.891 81.6063L468.69 84.4877L468.104 85.465ZM545.268 86.348L540.467 83.4682L541.054 82.4907L545.854 85.3705L545.268 86.348ZM577.513 87.0072L572.526 84.0152L573.112 83.0377L578.099 86.0298L577.513 87.0072ZM424.388 87.9583L419.5 85.1269L420.071 84.1405L424.96 86.9719L424.388 87.9583ZM519.718 89.7077L514.917 86.8279L515.503 85.8504L520.304 88.7301L519.718 89.7077ZM361.744 87.5158L357.153 90.1385L356.587 89.1487L361.178 86.526L361.744 87.5158ZM380.329 90.6354L375.423 87.8137L375.991 86.8255L380.898 89.6473L380.329 90.6354ZM477.703 91.2278L472.903 88.3464L473.49 87.3691L478.289 90.2505L477.703 91.2278ZM554.869 92.1075L550.068 89.2277L550.655 88.2502L555.455 91.13L554.869 92.1075ZM587.486 92.9913L582.499 89.9993L583.086 89.0218L588.073 92.0138L587.486 92.9913ZM434.165 93.6212L429.276 90.7897L429.848 89.8034L434.736 92.6348L434.165 93.6212ZM529.32 95.4672L524.519 92.5874L525.105 91.6099L529.907 94.4896L529.32 95.4672ZM352.562 92.7612L347.971 95.3839L347.405 94.3941L351.996 91.7714L352.562 92.7612ZM390.142 96.279L385.236 93.4572L385.804 92.4691L390.711 95.2909L390.142 96.279ZM487.302 96.9906L482.502 94.1092L483.089 93.1319L487.889 96.0133L487.302 96.9906ZM564.47 97.867L559.669 94.9872L560.256 94.0097L565.056 96.8895L564.47 97.867ZM597.46 98.9753L592.473 95.9833L593.059 95.0059L598.046 97.9979L597.46 98.9753ZM443.941 99.2841L439.053 96.4526L439.624 95.4662L444.512 98.2977L443.941 99.2841ZM341.949 98.8237L343.38 98.0066L342.814 97.0168L337.63 99.9784L338.195 100.968L340.801 99.4796L342.977 100.726L343.543 99.7367L341.949 98.8237ZM538.923 101.227L534.122 98.3469L534.708 97.3694L539.509 100.249L538.923 101.227ZM399.955 101.923L395.049 99.1008L395.617 98.1127L400.523 100.934L399.955 101.923ZM496.901 102.753L492.101 99.872L492.688 98.8947L497.488 101.776L496.901 102.753ZM574.07 103.626L569.27 100.747L569.856 99.7692L574.657 102.649L574.07 103.626ZM607.433 104.959L602.446 101.967L603.033 100.99L608.019 103.982L607.433 104.959ZM453.717 104.947L448.829 102.116L449.401 101.129L454.289 103.961L453.717 104.947ZM352.811 106.359L347.894 103.542L348.461 102.553L353.378 105.37L352.811 106.359ZM548.525 106.986L543.724 104.106L544.311 103.129L549.112 106.009L548.525 106.986ZM332.418 104.269L326.64 107.569L326.074 106.58L331.852 103.279L332.418 104.269ZM409.768 107.566L404.861 104.744L405.43 103.756L410.336 106.578L409.768 107.566ZM506.5 108.516L501.701 105.635L502.287 104.658L507.087 107.539L506.5 108.516ZM583.671 109.386L578.871 106.506L579.457 105.529L584.258 108.408L583.671 109.386ZM463.494 110.61L458.606 107.778L459.177 106.792L464.065 109.623L463.494 110.61ZM617.406 110.943L612.42 107.951L613.006 106.974L617.993 109.966L617.406 110.943ZM362.645 111.992L357.728 109.175L358.295 108.186L363.212 111.003L362.645 111.992ZM558.128 112.746L553.327 109.866L553.913 108.888L558.714 111.768L558.128 112.746ZM419.58 113.21L414.674 110.388L415.242 109.4L420.149 112.222L419.58 113.21ZM318.834 112.029L320.862 110.87L320.297 109.88L315.128 112.833L315.693 113.823L317.689 112.683L319.85 113.935L320.422 112.948L318.834 112.029ZM516.099 114.279L511.3 111.398L511.886 110.42L516.686 113.302L516.099 114.279ZM593.272 115.145L588.472 112.266L589.058 111.288L593.858 114.168L593.272 115.145ZM473.27 116.273L468.382 113.441L468.953 112.455L473.841 115.286L473.27 116.273ZM627.38 116.928L622.393 113.935L622.98 112.958L627.966 115.95L627.38 116.928ZM372.48 117.625L367.563 114.808L368.129 113.819L373.046 116.635L372.48 117.625ZM567.731 118.505L562.929 115.625L563.516 114.648L568.317 117.528L567.731 118.505ZM429.393 118.853L424.487 116.032L425.055 115.043L429.961 117.865L429.393 118.853ZM311.134 116.427L306.574 119.032L306.009 118.042L310.568 115.438L311.134 116.427ZM329.632 119.599L324.741 116.767L325.312 115.781L330.203 118.613L329.632 119.599ZM525.698 120.042L520.899 117.16L521.486 116.183L526.285 119.065L525.698 120.042ZM602.873 120.905L598.072 118.025L598.659 117.048L603.459 119.927L602.873 120.905ZM483.046 121.936L478.158 119.104L478.73 118.118L483.618 120.949L483.046 121.936ZM637.353 122.912L632.367 119.92L632.953 118.942L637.94 121.934L637.353 122.912ZM382.314 123.257L377.397 120.441L377.963 119.452L382.881 122.268L382.314 123.257ZM577.333 124.265L572.532 121.385L573.118 120.407L577.919 123.287L577.333 124.265ZM302.015 121.637L297.455 124.242L296.89 123.252L301.449 120.647L302.015 121.637ZM439.206 124.497L434.299 121.675L434.868 120.687L439.774 123.509L439.206 124.497ZM339.413 125.264L334.523 122.432L335.094 121.445L339.985 124.277L339.413 125.264ZM535.298 125.805L530.498 122.923L531.085 121.946L535.884 124.827L535.298 125.805ZM612.474 126.664L607.673 123.785L608.26 122.807L613.06 125.687L612.474 126.664ZM492.823 127.598L487.935 124.767L488.506 123.781L493.394 126.612L492.823 127.598ZM647.327 128.896L642.34 125.904L642.927 124.926L647.913 127.918L647.327 128.896ZM392.148 128.89L387.231 126.074L387.798 125.085L392.715 127.901L392.148 128.89ZM291.493 127.648L292.896 126.846L292.33 125.857L287.956 128.356L288.521 129.345L290.337 128.308L292.549 129.541L293.104 128.545L291.493 127.648ZM586.936 130.024L582.134 127.144L582.721 126.167L587.522 129.046L586.936 130.024ZM449.018 130.141L444.112 127.319L444.68 126.331L449.587 129.152L449.018 130.141ZM349.195 130.928L344.304 128.096L344.876 127.11L349.766 129.942L349.195 130.928ZM544.897 131.567L540.097 128.686L540.684 127.709L545.483 130.59L544.897 131.567ZM622.075 132.424L617.274 129.544L617.86 128.567L622.661 131.446L622.075 132.424ZM502.599 133.261L497.711 130.43L498.282 129.444L503.171 132.275L502.599 133.261ZM401.983 134.523L397.065 131.707L397.632 130.718L402.549 133.534L401.983 134.523ZM284.331 131.739L280.142 134.132L279.576 133.142L283.766 130.749L284.331 131.739ZM653.973 132.883L652.313 131.888L652.9 130.91L655.67 132.572V135.779H654.53V133.878L653.392 134.53L652.826 133.54L653.973 132.883ZM302.525 135.096L297.537 132.318L298.092 131.322L303.079 134.1L302.525 135.096ZM596.538 135.784L591.737 132.904L592.323 131.926L597.124 134.806L596.538 135.784ZM458.831 135.784L453.925 132.962L454.493 131.974L459.399 134.796L458.831 135.784ZM358.977 136.593L354.086 133.761L354.657 132.774L359.548 135.606L358.977 136.593ZM554.496 137.33L549.696 134.449L550.283 133.472L555.083 136.353L554.496 137.33ZM631.675 138.183L626.875 135.304L627.461 134.326L632.262 137.206L631.675 138.183ZM512.376 138.924L507.487 136.093L508.059 135.106L512.947 137.938L512.376 138.924ZM275.952 136.526L271.762 138.919L271.197 137.929L275.387 135.536L275.952 136.526ZM649.409 136.809L645.426 139.089L644.86 138.1L648.843 135.82L649.409 136.809ZM411.817 140.156L406.9 137.34L407.466 136.351L412.383 139.167L411.817 140.156ZM312.5 140.651L307.512 137.874L308.067 136.878L313.054 139.655L312.5 140.651ZM468.644 141.428L463.737 138.606L464.306 137.618L469.212 140.44L468.644 141.428ZM606.141 141.543L601.339 138.663L601.926 137.686L606.727 140.565L606.141 141.543ZM368.758 142.257L363.867 139.425L364.439 138.439L369.329 141.271L368.758 142.257ZM564.095 143.093L559.295 140.212L559.882 139.234L564.682 142.116L564.095 143.093ZM638.042 142.003L636.476 141.063L637.062 140.086L639.176 141.354L640.877 140.38L641.444 141.369L639.739 142.345V144.83H638.599V142.997L637.461 143.649L636.895 142.659L638.042 142.003ZM266.354 142.009L267.573 141.312L267.007 140.323L262.355 142.98L262.921 143.97L265.198 142.669L267.408 143.903L267.964 142.908L266.354 142.009ZM522.152 144.587L517.264 141.756L517.835 140.769L522.723 143.601L522.152 144.587ZM655.67 141.548V147.317H654.53V141.548H655.67ZM421.651 145.789L416.734 142.973L417.3 141.984L422.218 144.8L421.651 145.789ZM322.475 146.207L317.487 143.429L318.042 142.433L323.029 145.211L322.475 146.207ZM478.457 147.071L473.55 144.249L474.118 143.261L479.025 146.083L478.457 147.071ZM615.743 147.302L610.942 144.423L611.528 143.445L616.329 146.325L615.743 147.302ZM378.54 147.922L373.649 145.09L374.22 144.103L379.111 146.935L378.54 147.922ZM633.478 145.928L629.495 148.208L628.929 147.219L632.912 144.939L633.478 145.928ZM573.694 148.856L568.895 145.975L569.481 144.997L574.281 147.879L573.694 148.856ZM277.37 149.467L272.389 146.685L272.945 145.69L277.926 148.472L277.37 149.467ZM257.806 146.892L252.692 149.813L252.126 148.824L257.241 145.902L257.806 146.892ZM531.928 150.25L527.04 147.419L527.611 146.432L532.5 149.264L531.928 150.25ZM431.485 151.422L426.568 148.606L427.135 147.616L432.052 150.433L431.485 151.422ZM332.45 151.762L327.462 148.984L328.017 147.989L333.005 150.766L332.45 151.762ZM488.269 152.715L483.363 149.893L483.931 148.905L488.838 151.727L488.269 152.715ZM622.111 151.122L620.544 150.182L621.131 149.205L623.245 150.473L624.946 149.499L625.513 150.488L623.808 151.464V153.949H622.668V152.116L620.665 153.263L620.098 152.274L622.111 151.122ZM388.321 153.586L383.431 150.754L384.002 149.768L388.893 152.6L388.321 153.586ZM638.599 156.092V150.461H639.739V156.092H638.599ZM583.293 154.619L578.494 151.737L579.08 150.76L583.88 153.641L583.293 154.619ZM287.332 155.031L282.351 152.249L282.907 151.254L287.888 154.036L287.332 155.031ZM245.887 153.701L247.577 152.735L247.012 151.745L241.592 154.841L242.158 155.831L244.737 154.357L246.92 155.602L247.484 154.612L245.887 153.701ZM541.705 155.913L536.816 153.081L537.388 152.095L542.276 154.926L541.705 155.913ZM655.67 153.086V158.855H654.53V153.086H655.67ZM441.32 157.055L436.402 154.238L436.969 153.249L441.886 156.066L441.32 157.055ZM342.425 157.317L337.438 154.54L337.992 153.544L342.98 156.322L342.425 157.317ZM498.082 158.358L493.176 155.537L493.744 154.549L498.65 157.37L498.082 158.358ZM398.103 159.251L393.212 156.418L393.783 155.432L398.674 158.264L398.103 159.251ZM614.951 156.534L609.238 159.804L608.672 158.815L614.385 155.544L614.951 156.534ZM592.892 160.382L588.093 157.5L588.68 156.523L593.479 159.404L592.892 160.382ZM297.295 160.596L292.314 157.813L292.869 156.818L297.85 159.6L297.295 160.596ZM256.779 161.227L251.849 158.414L252.414 157.424L257.344 160.236L256.779 161.227ZM551.481 161.576L546.593 158.744L547.164 157.758L552.052 160.589L551.481 161.576ZM236.433 159.101L230.708 162.372L230.143 161.382L235.867 158.112L236.433 159.101ZM451.154 162.688L446.237 159.871L446.803 158.882L451.72 161.699L451.154 162.688ZM352.4 162.873L347.413 160.095L347.967 159.099L352.955 161.877L352.4 162.873ZM622.668 165.211V159.58H623.808V165.211H622.668ZM507.895 164.002L502.988 161.18L503.557 160.192L508.463 163.014L507.895 164.002ZM407.885 164.915L402.994 162.083L403.565 161.097L408.456 163.929L407.885 164.915ZM638.599 167.354V161.723H639.739V167.354H638.599ZM600.955 164.545L603.525 163.074L602.959 162.085L600.392 163.554L598.279 162.286L597.692 163.263L599.258 164.203L597.385 165.275L597.952 166.265L599.815 165.198V167.031H600.955V164.545ZM307.257 166.16L302.276 163.378L302.832 162.383L307.813 165.165L307.257 166.16ZM266.639 166.851L261.709 164.039L262.274 163.049L267.203 165.861L266.639 166.851ZM561.257 167.239L556.369 164.407L556.941 163.421L561.829 166.252L561.257 167.239ZM460.988 168.321L456.071 165.504L456.638 164.515L461.555 167.332L460.988 168.321ZM655.67 164.624V170.393H654.53V164.624H655.67ZM221.838 167.439L224.016 168.686L224.583 167.696L222.987 166.783L224.983 165.642L224.418 164.652L218.719 167.908L219.284 168.898L221.838 167.439ZM362.375 168.428L357.388 165.651L357.942 164.655L362.93 167.432L362.375 168.428ZM517.707 169.646L512.801 166.824L513.369 165.836L518.276 168.657L517.707 169.646ZM417.666 170.58L412.775 167.747L413.347 166.761L418.237 169.593L417.666 170.58ZM317.219 171.724L312.238 168.942L312.794 167.947L317.775 170.729L317.219 171.724ZM592.518 169.375L587.085 172.485L586.519 171.496L591.952 168.386L592.518 169.375ZM276.498 172.475L271.568 169.663L272.133 168.673L277.063 171.485L276.498 172.475ZM571.034 172.902L566.146 170.07L566.717 169.084L571.605 171.915L571.034 172.902ZM470.822 173.954L465.905 171.137L466.472 170.148L471.389 172.965L470.822 173.954ZM372.35 173.984L367.363 171.206L367.917 170.21L372.905 172.988L372.35 173.984ZM233.861 174.32L228.939 171.503L229.505 170.513L234.427 173.331L233.861 174.32ZM622.668 176.473V170.842H623.808V176.473H622.668ZM213.61 172.139L207.935 175.381L207.37 174.391L213.044 171.15L213.61 172.139ZM527.52 175.289L522.614 172.467L523.182 171.479L528.088 174.301L527.52 175.289ZM427.448 176.244L422.557 173.412L423.128 172.426L428.019 175.258L427.448 176.244ZM599.815 178.293V172.662H600.955V178.293H599.815ZM638.599 178.616V172.985H639.739V178.616H638.599ZM327.181 177.288L322.2 174.506L322.756 173.511L327.737 176.293L327.181 177.288ZM286.358 178.1L281.428 175.287L281.993 174.297L286.922 177.109L286.358 178.1ZM577.51 176.653L575.386 177.868L575.952 178.858L578.082 177.639V179.471H579.222V176.986L581.652 175.595L581.085 174.606L578.654 175.998L576.493 174.747L575.922 175.733L577.51 176.653ZM382.326 179.539L377.338 176.761L377.893 175.765L382.88 178.543L382.326 179.539ZM480.657 179.587L475.74 176.77L476.306 175.781L481.223 178.597L480.657 179.587ZM243.705 179.954L238.783 177.137L239.349 176.148L244.271 178.965L243.705 179.954ZM655.67 176.162V181.931H654.53V176.162H655.67ZM537.333 180.933L532.426 178.111L532.995 177.123L537.901 179.945L537.333 180.933ZM200.281 179.754L202.261 178.622L201.696 177.633L195.917 180.934L196.482 181.924L199.138 180.407L201.29 181.664L201.865 180.68L200.281 179.754ZM437.229 181.909L432.338 179.076L432.91 178.09L437.8 180.922L437.229 181.909ZM337.144 182.853L332.163 180.07L332.718 179.075L337.7 181.857L337.144 182.853ZM296.217 183.724L291.287 180.912L291.852 179.922L296.782 182.734L296.217 183.724ZM569.986 182.272L564.021 185.687L563.454 184.698L569.42 181.283L569.986 182.272ZM392.301 185.094L387.313 182.317L387.868 181.321L392.855 184.098L392.301 185.094ZM490.491 185.219L485.574 182.403L486.14 181.414L491.058 184.23L490.491 185.219ZM253.55 185.589L248.627 182.771L249.194 181.782L254.116 184.599L253.55 185.589ZM622.668 187.735V182.104H623.808V187.735H622.668ZM547.145 186.576L542.239 183.755L542.807 182.766L547.714 185.588L547.145 186.576ZM211.034 187.357L206.162 184.51L206.737 183.526L211.609 186.373L211.034 187.357ZM447.011 187.573L442.12 184.741L442.691 183.755L447.582 186.587L447.011 187.573ZM599.815 189.555V183.924H600.955V189.555H599.815ZM638.599 189.878V184.247H639.739V189.878H638.599ZM190.598 185.285L184.715 188.646L184.149 187.656L190.033 184.295L190.598 185.285ZM347.106 188.417L342.125 185.635L342.681 184.64L347.662 187.422L347.106 188.417ZM578.082 190.733V185.102H579.222V190.733H578.082ZM306.077 189.348L301.147 186.536L301.712 185.546L306.641 188.358L306.077 189.348ZM402.276 190.65L397.288 187.872L397.843 186.876L402.83 189.654L402.276 190.65ZM500.325 190.852L495.408 188.036L495.975 187.047L500.892 189.863L500.325 190.852ZM263.394 191.223L258.472 188.406L259.038 187.416L263.96 190.234L263.394 191.223ZM655.67 187.699V193.468H654.53V187.699H655.67ZM554.219 191.298L552.811 192.104L552.245 191.115L553.644 190.314L552.052 189.398L552.62 188.41L554.79 189.658L557.489 188.113L558.055 189.102L555.359 190.645V193.131H554.219V191.298ZM220.777 193.05L215.906 190.204L216.481 189.219L221.353 192.066L220.777 193.05ZM456.792 193.238L451.902 190.405L452.473 189.419L457.364 192.251L456.792 193.238ZM357.068 193.981L352.087 191.199L352.643 190.204L357.624 192.986L357.068 193.981ZM176.742 193.201L178.831 192.007L178.265 191.018L172.554 194.28L173.12 195.27L175.602 193.852L177.743 195.113L178.322 194.131L176.742 193.201ZM315.936 194.973L311.006 192.16L311.571 191.17L316.501 193.982L315.936 194.973ZM412.251 196.205L407.263 193.427L407.818 192.432L412.805 195.209L412.251 196.205ZM510.16 196.485L505.242 193.669L505.809 192.68L510.726 195.496L510.16 196.485ZM273.238 196.857L268.316 194.04L268.882 193.051L273.805 195.868L273.238 196.857ZM622.668 198.998V193.367H623.808V198.998H622.668ZM548.288 194.693L543.765 197.282L543.199 196.293L547.722 193.704L548.288 194.693ZM230.521 198.744L225.649 195.897L226.224 194.913L231.096 197.759L230.521 198.744ZM466.574 198.902L461.683 196.07L462.254 195.083L467.145 197.916L466.574 198.902ZM599.815 200.817V195.186H600.955V200.817H599.815ZM638.599 201.141V195.51H639.739V201.141H638.599ZM367.03 199.545L362.049 196.763L362.605 195.768L367.586 198.55L367.03 199.545ZM578.082 201.995V196.364H579.222V201.995H578.082ZM325.796 200.597L320.866 197.785L321.431 196.795L326.36 199.607L325.796 200.597ZM187.448 200.83L182.596 197.972L183.174 196.99L188.027 199.848L187.448 200.83ZM167.581 198.434L162.043 201.598L161.478 200.608L167.016 197.444L167.581 198.434ZM422.226 201.76L417.238 198.983L417.793 197.987L422.781 200.765L422.226 201.76ZM519.994 202.118L515.077 199.302L515.643 198.313L520.56 201.129L519.994 202.118ZM283.083 202.492L278.161 199.674L278.727 198.685L283.649 201.502L283.083 202.492ZM554.219 204.393V198.762H555.359V204.393H554.219ZM539.243 199.871L534.72 202.46L534.154 201.47L538.676 198.882L539.243 199.871ZM655.67 199.237V205.006H654.53V199.237H655.67ZM240.265 204.437L235.393 201.59L235.968 200.606L240.84 203.453L240.265 204.437ZM476.356 204.567L471.465 201.734L472.036 200.748L476.927 203.58L476.356 204.567ZM376.993 205.11L372.012 202.328L372.567 201.332L377.549 204.114L376.993 205.11ZM335.655 206.221L330.725 203.409L331.29 202.419L336.22 205.231L335.655 206.221ZM197.153 206.547L192.301 203.689L192.879 202.707L197.732 205.565L197.153 206.547ZM432.201 207.316L427.214 204.538L427.768 203.542L432.756 206.32L432.201 207.316ZM154.58 205.861L156.505 204.761L155.939 203.772L150.15 207.079L150.715 208.069L153.445 206.509L155.56 207.781L156.148 206.804L154.58 205.861ZM526.506 205.848L524.911 204.935L525.477 203.946L527.653 205.192L529.631 204.059L530.197 205.049L528.223 206.179V208.664H527.083V206.831L524.922 208.068L524.356 207.079L526.506 205.848ZM292.927 208.126L288.005 205.309L288.571 204.32L293.494 207.137L292.927 208.126ZM622.668 210.26V204.629H623.808V210.26H622.668ZM250.009 210.13L245.137 207.284L245.712 206.299L250.584 209.146L250.009 210.13ZM486.137 210.231L481.246 207.399L481.818 206.412L486.708 209.245L486.137 210.231ZM599.815 212.079V206.448H600.955V212.079H599.815ZM638.599 212.403V206.772H639.739V212.403H638.599ZM386.955 210.674L381.974 207.892L382.53 206.897L387.511 209.679L386.955 210.674ZM578.082 213.258V207.627H579.222V213.258H578.082ZM345.514 211.846L340.585 209.033L341.15 208.043L346.079 210.855L345.514 211.846ZM206.859 212.264L202.006 209.406L202.585 208.423L207.437 211.282L206.859 212.264ZM442.176 212.871L437.189 210.094L437.743 209.098L442.731 211.875L442.176 212.871ZM165.164 213.557L160.362 210.669L160.95 209.692L165.752 212.58L165.164 213.557ZM302.772 213.76L297.85 210.943L298.416 209.954L303.338 212.771L302.772 213.76ZM554.219 215.655V210.024H555.359V215.655H554.219ZM144.675 211.519L138.635 214.97L138.069 213.98L144.11 210.529L144.675 211.519ZM518.894 211.519L512.866 214.97L512.299 213.98L518.328 210.53L518.894 211.519ZM655.67 210.775V216.544H654.53V210.775H655.67ZM259.753 215.824L254.881 212.977L255.456 211.993L260.328 214.839L259.753 215.824ZM495.919 215.896L491.028 213.063L491.599 212.077L496.49 214.909L495.919 215.896ZM396.917 216.238L391.936 213.456L392.492 212.461L397.473 215.243L396.917 216.238ZM355.374 217.47L350.444 214.658L351.009 213.668L355.939 216.48L355.374 217.47ZM216.564 217.981L211.711 215.123L212.29 214.14L217.142 216.999L216.564 217.981ZM527.083 219.926V214.295H528.223V219.926H527.083ZM452.151 218.427L447.164 215.649L447.718 214.653L452.706 217.431L452.151 218.427ZM174.768 219.333L169.966 216.445L170.554 215.468L175.356 218.356L174.768 219.333ZM312.616 219.395L307.694 216.578L308.26 215.588L313.182 218.405L312.616 219.395ZM622.668 221.522V215.891H623.808V221.522H622.668ZM130.421 219.662L132.595 218.42L132.029 217.431L126.043 220.85L126.608 221.84L129.285 220.311L131.407 221.581L131.992 220.602L130.421 219.662ZM502.398 219.648L500.297 220.851L500.864 221.84L502.971 220.634V222.466H504.11V219.981L506.838 218.42L506.271 217.431L503.542 218.993L501.381 217.741L500.809 218.728L502.398 219.648ZM269.497 221.517L264.625 218.67L265.2 217.686L270.072 220.533L269.497 221.517ZM599.815 223.341V217.71H600.955V223.341H599.815ZM406.88 221.802L401.898 219.02L402.454 218.025L407.435 220.807L406.88 221.802ZM638.599 223.665V218.034H639.739V223.665H638.599ZM578.082 224.52V218.889H579.222V224.52H578.082ZM365.233 223.094L360.304 220.282L360.869 219.292L365.798 222.104L365.233 223.094ZM226.269 223.698L221.416 220.839L221.995 219.857L226.847 222.716L226.269 223.698ZM462.126 223.982L457.139 221.204L457.694 220.208L462.681 222.986L462.126 223.982ZM322.461 225.029L317.538 222.212L318.105 221.223L323.027 224.04L322.461 225.029ZM184.372 225.109L179.57 222.221L180.158 221.244L184.96 224.132L184.372 225.109ZM554.219 226.917V221.286H555.359V226.917H554.219ZM655.67 222.313V228.082H654.53V222.313H655.67ZM279.241 227.21L274.369 224.363L274.944 223.379L279.816 226.226L279.241 227.21ZM141.037 227.343L136.222 224.462L136.807 223.484L141.622 226.365L141.037 227.343ZM416.842 227.367L411.861 224.585L412.417 223.589L417.398 226.371L416.842 227.367ZM120.676 225.229L114.744 228.618L114.179 227.628L120.111 224.239L120.676 225.229ZM494.943 225.229L489.023 228.617L488.457 227.628L494.377 224.239L494.943 225.229ZM375.093 228.719L370.163 225.906L370.728 224.916L375.658 227.728L375.093 228.719ZM527.083 231.188V225.557H528.223V231.188H527.083ZM235.974 229.415L231.121 226.556L231.7 225.574L236.552 228.433L235.974 229.415ZM472.102 229.537L467.114 226.76L467.669 225.764L472.656 228.541L472.102 229.537ZM332.305 230.663L327.383 227.846L327.949 226.857L332.871 229.674L332.305 230.663ZM193.976 230.885L189.174 227.997L189.762 227.02L194.564 229.909L193.976 230.885ZM622.668 232.784V227.153H623.808V232.784H622.668ZM502.971 233.729V228.097H504.11V233.729H502.971ZM599.815 234.604V228.973H600.955V234.604H599.815ZM288.984 232.903L284.113 230.057L284.688 229.073L289.56 231.919L288.984 232.903ZM426.804 232.931L421.823 230.149L422.379 229.154L427.36 231.936L426.804 232.931ZM150.667 233.106L145.852 230.225L146.437 229.246L151.252 232.128L150.667 233.106ZM638.599 234.927V229.296H639.739V234.927H638.599ZM578.082 235.782V230.151H579.222V235.782H578.082ZM384.952 234.343L380.023 231.531L380.588 230.541L385.517 233.353L384.952 234.343ZM106.693 233.217L108.812 232.006L108.247 231.017L103.161 233.922L103.727 234.912L105.557 233.866L107.681 235.135L108.265 234.157L106.693 233.217ZM478.701 233.213L477.462 233.922L478.028 234.911L479.29 234.189V236.021H480.43V233.536L483.103 232.006L482.537 231.017L479.856 232.551L477.644 231.319L477.089 232.315L478.701 233.213ZM245.679 235.132L240.826 232.273L241.405 231.291L246.258 234.15L245.679 235.132ZM342.149 236.298L337.227 233.481L337.793 232.491L342.716 235.309L342.149 236.298ZM554.219 238.179V232.548H555.359V238.179H554.219ZM203.58 236.662L198.778 233.773L199.366 232.797L204.168 235.685L203.58 236.662ZM655.67 233.85V239.619H654.53V233.85H655.67ZM436.766 238.495L431.785 235.713L432.341 234.718L437.322 237.5L436.766 238.495ZM298.728 238.597L293.856 235.75L294.431 234.766L299.303 237.612L298.728 238.597ZM160.297 238.868L155.482 235.987L156.067 235.009L160.882 237.89L160.297 238.868ZM394.812 239.967L389.882 237.155L390.447 236.165L395.377 238.977L394.812 239.967ZM99.4878 237.333L95.2489 239.755L94.6834 238.765L98.9223 236.343L99.4878 237.333ZM473.798 237.333L469.567 239.754L469.001 238.765L473.232 236.344L473.798 237.333ZM527.083 242.45V236.819H528.223V242.45H527.083ZM255.384 240.849L250.532 237.99L251.11 237.008L255.963 239.866L255.384 240.849ZM117.319 240.895L112.5 238.015L113.084 237.036L117.903 239.916L117.319 240.895ZM351.994 241.932L347.072 239.115L347.638 238.126L352.56 240.943L351.994 241.932ZM622.668 244.046V238.415H623.808V244.046H622.668ZM213.184 242.438L208.382 239.55L208.97 238.573L213.772 241.461L213.184 242.438ZM502.971 244.991V239.36H504.11V244.991H502.971ZM599.815 245.866V240.235H600.955V245.866H599.815ZM446.729 244.059L441.747 241.277L442.303 240.282L447.284 243.064L446.729 244.059ZM308.472 244.29L303.6 241.443L304.175 240.459L309.047 243.306L308.472 244.29ZM638.599 246.189V240.558H639.739V246.189H638.599ZM169.927 244.631L165.112 241.75L165.697 240.772L170.512 243.653L169.927 244.631ZM91.01 242.176L86.7711 244.598L86.2057 243.608L90.4445 241.186L91.01 242.176ZM465.337 242.176L461.107 244.597L460.541 243.608L464.771 241.187L465.337 242.176ZM578.082 247.044V241.413H579.222V247.044H578.082ZM479.29 247.284V241.653H480.43V247.284H479.29ZM404.671 245.592L399.742 242.779L400.307 241.789L405.236 244.601L404.671 245.592ZM265.089 246.566L260.237 243.707L260.815 242.725L265.668 245.583L265.089 246.566ZM126.957 246.654L122.138 243.774L122.723 242.796L127.542 245.675L126.957 246.654ZM361.838 247.567L356.916 244.749L357.482 243.76L362.404 246.577L361.838 247.567ZM554.219 249.441V243.81H555.359V249.441H554.219ZM222.788 248.214L217.986 245.326L218.574 244.349L223.376 247.237L222.788 248.214ZM655.67 245.388V251.157H654.53V245.388H655.67ZM453.32 247.741L451.71 246.842L452.266 245.846L454.475 247.08L456.31 246.03L456.876 247.019L455.048 248.066V250.551H453.908V248.718L451.96 249.833L451.394 248.844L453.32 247.741ZM80.1231 248.395L82.2428 249.666L82.829 248.689L81.2583 247.747L82.5322 247.019L81.9668 246.029L77.0403 248.844L77.6057 249.833L80.1231 248.395ZM318.216 249.983L313.344 247.137L313.919 246.152L318.791 248.999L318.216 249.983ZM179.557 250.394L174.742 247.512L175.327 246.534L180.143 249.416L179.557 250.394ZM414.531 251.216L409.601 248.404L410.166 247.414L415.096 250.226L414.531 251.216ZM527.083 253.713V248.082H528.223V253.713H527.083ZM274.794 252.282L269.942 249.424L270.52 248.442L275.373 251.3L274.794 252.282ZM136.595 252.413L131.776 249.534L132.361 248.555L137.18 251.435L136.595 252.413ZM371.683 253.201L366.76 250.384L367.327 249.394L372.249 252.212L371.683 253.201ZM622.668 255.308V249.677H623.808V255.308H622.668ZM232.392 253.99L227.59 251.102L228.178 250.125L232.98 253.013L232.392 253.99ZM502.971 256.253V250.622H504.11V256.253H502.971ZM599.815 257.128V251.497H600.955V257.128H599.815ZM91.8663 255.436L87.0546 252.551L87.6407 251.573L92.4524 254.458L91.8663 255.436ZM638.599 257.451V251.82H639.739V257.451H638.599ZM327.96 255.677L323.088 252.83L323.663 251.846L328.535 254.692L327.96 255.677ZM71.9917 253.041L66.3776 256.248L65.8122 255.258L71.4262 252.051L71.9917 253.041ZM446.357 253.04L440.755 256.247L440.188 255.258L445.791 252.051L446.357 253.04ZM189.187 256.156L184.372 253.275L184.958 252.297L189.773 255.178L189.187 256.156ZM578.082 258.306V252.675H579.222V258.306H578.082ZM479.29 258.546V252.915H480.43V258.546H479.29ZM424.39 256.84L419.461 254.028L420.026 253.038L424.955 255.85L424.39 256.84ZM284.5 257.999L279.647 255.141L280.226 254.159L285.078 257.017L284.5 257.999ZM146.233 258.173L141.414 255.293L141.999 254.315L146.818 257.194L146.233 258.173ZM381.527 258.835L376.605 256.018L377.171 255.029L382.093 257.846L381.527 258.835ZM554.219 260.704V255.073H555.359V260.704H554.219ZM241.996 259.766L237.194 256.878L237.782 255.901L242.584 258.789L241.996 259.766ZM453.908 261.813V256.182H455.048V261.813H453.908ZM655.67 256.926V262.695H654.53V256.926H655.67ZM101.49 261.205L96.678 258.32L97.2641 257.343L102.076 260.228L101.49 261.205ZM337.704 261.37L332.832 258.523L333.407 257.539L338.279 260.386L337.704 261.37ZM198.817 261.919L194.002 259.038L194.588 258.06L199.403 260.941L198.817 261.919ZM58.2438 261.568V263.385H57.1039V260.233L60.1981 258.465L60.7636 259.455L58.8037 260.574L60.3769 261.514L59.7924 262.493L58.2438 261.568ZM430.919 260.564L428.886 261.728L429.452 262.717L431.497 261.546V263.379H432.637V260.894L435.152 259.455L434.586 258.465L432.067 259.907L429.885 258.662L429.32 259.652L430.919 260.564ZM527.083 264.975V259.344H528.223V264.975H527.083ZM294.205 263.716L289.352 260.858L289.931 259.876L294.783 262.734L294.205 263.716ZM155.872 263.932L151.052 261.053L151.637 260.074L156.456 262.954L155.872 263.932ZM391.371 264.47L386.449 261.652L387.016 260.663L391.938 263.48L391.371 264.47ZM622.668 266.571V260.94H623.808V266.571H622.668ZM251.6 265.542L246.798 262.654L247.386 261.677L252.188 264.565L251.6 265.542ZM502.971 267.515V261.884H504.11V267.515H502.971ZM599.815 268.39V262.759H600.955V268.39H599.815ZM638.599 268.714V263.083H639.739V268.714H638.599ZM111.113 266.975L106.301 264.09L106.888 263.112L111.699 265.997L111.113 266.975ZM347.448 267.063L342.576 264.217L343.151 263.232L348.023 266.079L347.448 267.063ZM208.448 267.682L203.632 264.8L204.218 263.822L209.033 266.704L208.448 267.682ZM578.082 269.569V263.937H579.222V269.569H578.082ZM479.29 269.808V264.177H480.43V269.808H479.29ZM69.4357 268.252L64.6141 265.372L65.1986 264.394L70.0202 267.273L69.4357 268.252ZM423.656 266.035L417.86 269.353L417.294 268.364L423.09 265.046L423.656 266.035ZM303.91 269.433L299.057 266.575L299.636 265.593L304.488 268.451L303.91 269.433ZM165.51 269.692L160.691 266.812L161.275 265.834L166.095 268.713L165.51 269.692ZM401.216 270.104L396.294 267.287L396.86 266.297L401.782 269.115L401.216 270.104ZM554.219 271.966V266.335H555.359V271.966H554.219ZM453.908 273.075V267.444H455.048V273.075H453.908ZM261.204 271.318L256.402 268.43L256.99 267.453L261.792 270.342L261.204 271.318ZM655.67 268.464V274.233H654.53V268.464H655.67ZM120.737 272.744L115.925 269.859L116.511 268.882L121.323 271.766L120.737 272.744ZM357.192 272.757L352.32 269.91L352.895 268.926L357.767 271.772L357.192 272.757ZM431.497 274.641V269.01H432.637V274.641H431.497ZM57.1039 274.673V269.029H58.2438V274.673H57.1039ZM218.078 273.444L213.263 270.563L213.848 269.585L218.663 272.466L218.078 273.444ZM79.079 274.012L74.2574 271.132L74.8419 270.153L79.6635 273.033L79.079 274.012ZM527.083 276.237V270.606H528.223V276.237H527.083ZM313.615 275.15L308.762 272.292L309.341 271.309L314.193 274.168L313.615 275.15ZM175.148 275.451L170.329 272.572L170.914 271.593L175.733 274.473L175.148 275.451ZM407.735 273.835L405.523 275.101L406.09 276.09L408.312 274.818V276.651H409.452V274.166L412.064 272.671L411.497 271.681L408.882 273.178L406.704 271.932L406.138 272.921L407.735 273.835ZM622.668 277.833V272.202H623.808V277.833H622.668ZM502.971 278.777V273.146H504.11V278.777H502.971ZM270.808 277.095L266.006 274.206L266.594 273.23L271.396 276.118L270.808 277.095ZM599.815 279.652V274.021H600.955V279.652H599.815ZM638.599 279.976V274.345H639.739V279.976H638.599ZM366.935 278.45L362.064 275.603L362.639 274.619L367.511 277.466L366.935 278.45ZM130.36 278.514L125.548 275.629L126.134 274.651L130.946 277.536L130.36 278.514ZM578.082 280.831V275.2H579.222V280.831H578.082ZM227.708 279.207L222.893 276.326L223.478 275.348L228.293 278.229L227.708 279.207ZM479.29 281.07V275.439H480.43V281.07H479.29ZM88.7223 279.771L83.9007 276.891L84.4852 275.913L89.3068 278.792L88.7223 279.771ZM323.32 280.867L318.467 278.009L319.046 277.026L323.899 279.885L323.32 280.867ZM184.786 281.211L179.967 278.331L180.552 277.353L185.371 280.232L184.786 281.211ZM554.219 283.228V277.597H555.359V283.228H554.219ZM399.938 279.612L393.786 283.133L393.219 282.144L399.371 278.623L399.938 279.612ZM453.908 284.337V278.706H455.048V284.337H453.908ZM280.412 282.871L275.61 279.983L276.198 279.006L281 281.894L280.412 282.871ZM655.67 280.001V285.77H654.53V280.001H655.67ZM431.497 285.903V280.272H432.637V285.903H431.497ZM376.679 284.143L371.807 281.296L372.382 280.312L377.254 283.159L376.679 284.143ZM57.1039 285.961V280.317H58.2438V285.961H57.1039ZM139.984 284.283L135.172 281.398L135.758 280.421L140.57 283.305L139.984 284.283ZM237.338 284.97L232.523 282.088L233.108 281.11L237.923 283.992L237.338 284.97ZM98.3656 285.531L93.544 282.651L94.1285 281.672L98.9501 284.552L98.3656 285.531ZM527.083 287.499V281.868H528.223V287.499H527.083ZM408.312 287.913V282.282H409.452V287.913H408.312ZM333.025 286.584L328.173 283.725L328.751 282.743L333.604 285.602L333.025 286.584ZM194.424 286.97L189.605 284.091L190.19 283.112L195.009 285.992L194.424 286.97ZM622.668 289.095V283.464H623.808V289.095H622.668ZM502.971 290.039V284.408H504.11V290.039H502.971ZM290.016 288.647L285.214 285.759L285.802 284.782L290.604 287.67L290.016 288.647ZM599.815 290.915V285.283H600.955V290.915H599.815ZM638.599 291.238V285.607H639.739V291.238H638.599ZM383.705 288.904V290.737H384.845V288.251L387.634 286.655L387.068 285.666L384.278 287.263L382.126 286.006L381.551 286.99L383.136 287.916L380.958 289.163L381.524 290.152L383.705 288.904ZM149.607 290.053L144.795 287.168L145.381 286.19L150.193 289.075L149.607 290.053ZM578.082 292.093V286.462H579.222V292.093H578.082ZM479.29 292.332V286.701H480.43V292.332H479.29ZM246.968 290.732L242.153 287.851L242.738 286.873L247.553 289.754L246.968 290.732ZM108.009 291.29L103.187 288.41L103.772 287.432L108.593 290.311L108.009 291.29ZM342.73 292.301L337.878 289.442L338.456 288.46L343.309 291.319L342.73 292.301ZM554.219 294.49V288.859H555.359V294.49H554.219ZM204.063 292.73L199.244 289.85L199.828 288.872L204.647 291.751L204.063 292.73ZM453.908 295.599V289.968H455.048V295.599H453.908ZM299.62 294.423L294.818 291.535L295.406 290.558L300.208 293.446L299.62 294.423ZM431.497 297.166V291.534H432.637V297.166H431.497ZM655.67 291.539V297.308H654.53V291.539H655.67ZM57.1039 297.249V291.605H58.2438V297.249H57.1039ZM159.23 295.822L154.419 292.937L155.005 291.96L159.817 294.844L159.23 295.822ZM256.598 296.495L251.783 293.614L252.368 292.636L257.183 295.517L256.598 296.495ZM375.456 293.626L369.388 297.099L368.822 296.11L374.89 292.636L375.456 293.626ZM527.083 298.761V293.13H528.223V298.761H527.083ZM117.652 297.05L112.831 294.17L113.415 293.191L118.237 296.071L117.652 297.05ZM408.312 299.175V293.544H409.452V299.175H408.312ZM352.435 298.018L347.583 295.159L348.161 294.177L353.014 297.036L352.435 298.018ZM213.701 298.489L208.882 295.61L209.466 294.631L214.286 297.511L213.701 298.489ZM622.668 300.357V294.726H623.808V300.357H622.668ZM502.971 301.302V295.671H504.11V301.302H502.971ZM309.224 300.199L304.422 297.311L305.01 296.334L309.812 299.222L309.224 300.199ZM383.705 301.999V296.368H384.845V301.999H383.705ZM599.815 302.177V296.546H600.955V302.177H599.815ZM638.599 302.5V296.869H639.739V302.5H638.599ZM578.082 303.355V297.724H579.222V303.355H578.082ZM168.854 301.592L164.042 298.707L164.628 297.729L169.44 300.614L168.854 301.592ZM479.29 303.595V297.963H480.43V303.595H479.29ZM266.228 302.258L261.413 299.376L261.998 298.398L266.814 301.28L266.228 302.258ZM127.296 302.809L122.474 299.929L123.058 298.951L127.88 301.83L127.296 302.809ZM358.869 301.807L356.711 303.042L357.277 304.032L359.434 302.797V304.63H360.573V302.145L363.321 300.572L362.754 299.583L360.008 301.155L357.866 299.894L357.288 300.876L358.869 301.807ZM554.219 305.752V300.121H555.359V305.752H554.219ZM223.339 304.249L218.52 301.369L219.105 300.391L223.924 303.27L223.339 304.249ZM453.908 306.862V301.23H455.048V306.862H453.908ZM318.828 305.975L314.026 303.087L314.614 302.11L319.416 304.998L318.828 305.975ZM431.497 308.428V302.797H432.637V308.428H431.497ZM57.1039 308.538V302.893H58.2438V308.538H57.1039ZM655.67 303.077V308.846H654.53V303.077H655.67ZM178.477 307.361L173.666 304.476L174.252 303.499L179.063 306.383L178.477 307.361ZM275.858 308.02L271.043 305.139L271.629 304.161L276.444 307.042L275.858 308.02ZM527.083 310.024V304.392H528.223V310.024H527.083ZM136.939 308.568L132.117 305.689L132.702 304.71L137.523 307.59L136.939 308.568ZM408.312 310.437V304.806H409.452V310.437H408.312ZM622.668 311.619V305.988H623.808V311.619H622.668ZM232.977 310.008L228.158 307.129L228.743 306.15L233.562 309.03L232.977 310.008ZM351.259 307.477L345.24 310.922L344.674 309.933L350.692 306.487L351.259 307.477ZM502.971 312.564V306.933H504.11V312.564H502.971ZM383.705 313.261V307.63H384.845V313.261H383.705ZM599.815 313.439V307.808H600.955V313.439H599.815ZM328.432 311.751L323.63 308.863L324.218 307.887L329.02 310.775L328.432 311.751ZM638.599 313.762V308.131H639.739V313.762H638.599ZM578.082 314.617V308.986H579.222V314.617H578.082ZM479.29 314.857V309.226H480.43V314.857H479.29ZM188.101 313.131L183.289 310.246L183.875 309.268L188.687 312.153L188.101 313.131ZM285.488 313.783L280.673 310.902L281.259 309.924L286.074 312.805L285.488 313.783ZM359.434 315.892V310.261H360.573V315.892H359.434ZM146.582 314.328L141.76 311.448L142.345 310.47L147.167 313.349L146.582 314.328ZM554.219 317.015V311.383H555.359V317.015H554.219ZM242.615 315.768L237.796 312.888L238.381 311.909L243.2 314.789L242.615 315.768ZM453.908 318.124V312.493H455.048V318.124H453.908ZM334.803 315.583L332.688 316.794L333.254 317.783L335.359 316.578V318.411H336.499V315.926L339.221 314.367L338.655 313.378L335.936 314.934L333.822 313.663L333.234 314.64L334.803 315.583ZM431.497 319.69V314.059H432.637V319.69H431.497ZM57.1039 319.826V314.181H58.2438V319.826H57.1039ZM655.67 314.615V320.384H654.53V314.615H655.67ZM197.724 318.9L192.912 316.015L193.499 315.038L198.31 317.922L197.724 318.9ZM527.083 321.286V315.655H528.223V321.286H527.083ZM295.119 319.546L290.303 316.664L290.889 315.686L295.704 318.568L295.119 319.546ZM408.312 321.699V316.068H409.452V321.699H408.312ZM156.225 320.087L151.404 317.208L151.988 316.229L156.81 319.109L156.225 320.087ZM622.668 322.882V317.25H623.808V322.882H622.668ZM252.254 321.527L247.435 318.647L248.019 317.669L252.838 320.549L252.254 321.527ZM502.971 323.826V318.195H504.11V323.826H502.971ZM383.705 324.523V318.892H384.845V324.523H383.705ZM599.815 324.701V319.07H600.955V324.701H599.815ZM638.599 325.025V319.393H639.739V325.025H638.599ZM327.338 321.17L321.421 324.556L320.855 323.567L326.771 320.18L327.338 321.17ZM578.082 325.879V320.248H579.222V325.879H578.082ZM479.29 326.119V320.488H480.43V326.119H479.29ZM207.348 324.669L202.536 321.785L203.122 320.807L207.934 323.692L207.348 324.669ZM304.749 325.308L299.934 322.427L300.519 321.449L305.334 324.33L304.749 325.308ZM359.434 327.154V321.523H360.573V327.154H359.434ZM165.869 325.847L161.047 322.967L161.632 321.989L166.453 324.868L165.869 325.847ZM554.219 328.277V322.646H555.359V328.277H554.219ZM261.892 327.287L257.073 324.407L257.657 323.428L262.477 326.308L261.892 327.287ZM453.908 329.386V323.755H455.048V329.386H453.908ZM335.359 329.673V324.042H336.499V329.673H335.359ZM431.497 330.952V325.321H432.637V330.952H431.497ZM57.1039 331.114V325.47H58.2438V331.114H57.1039ZM655.67 326.152V331.921H654.53V326.152H655.67ZM216.971 330.439L212.159 327.554L212.745 326.577L217.557 329.461L216.971 330.439ZM527.083 332.548V326.917H528.223V332.548H527.083ZM311.136 329.13L309.034 330.334L309.6 331.323L311.694 330.124V331.957H312.834V329.472L315.505 327.943L314.939 326.953L312.27 328.481L310.149 327.212L309.564 328.19L311.136 329.13ZM408.312 332.962V327.33H409.452V332.962H408.312ZM175.512 331.606L170.69 328.727L171.275 327.748L176.097 330.628L175.512 331.606ZM622.668 334.144V328.513H623.808V334.144H622.668ZM271.53 333.046L266.711 330.166L267.296 329.188L272.115 332.068L271.53 333.046ZM502.971 335.088V329.457H504.11V335.088H502.971ZM383.705 335.785V330.154H384.845V335.785H383.705ZM599.815 335.963V330.332H600.955V335.963H599.815ZM638.599 336.287V330.656H639.739V336.287H638.599ZM578.082 337.142V331.51H579.222V337.142H578.082ZM479.29 337.381V331.75H480.43V337.381H479.29ZM226.595 336.208L221.783 333.324L222.369 332.346L227.181 335.231L226.595 336.208ZM359.434 338.416V332.785H360.573V338.416H359.434ZM185.155 337.366L180.334 334.486L180.918 333.507L185.74 336.387L185.155 337.366ZM303.707 334.697L297.813 338.07L297.247 337.081L303.14 333.707L303.707 334.697ZM554.219 339.539V333.908H555.359V339.539H554.219ZM281.168 338.806L276.349 335.926L276.934 334.947L281.753 337.827L281.168 338.806ZM453.908 340.648V335.017H455.048V340.648H453.908ZM335.359 340.935V335.304H336.499V340.935H335.359ZM431.497 342.214V336.583H432.637V342.214H431.497ZM57.1039 342.402V336.758H58.2438V342.402H57.1039ZM311.694 343.219V337.588H312.834V343.219H311.694ZM655.67 337.69V343.459H654.53V337.69H655.67ZM236.218 341.978L231.406 339.093L231.992 338.115L236.804 341L236.218 341.978ZM527.083 343.81V338.179H528.223V343.81H527.083ZM408.312 344.224V338.593H409.452V344.224H408.312ZM194.799 343.125L189.977 340.246L190.561 339.267L195.383 342.147L194.799 343.125ZM622.668 345.406V339.775H623.808V345.406H622.668ZM287.561 342.625L286.263 343.368L286.83 344.357L288.119 343.619V345.452H289.259V342.966L291.919 341.444L291.353 340.455L288.695 341.976L286.572 340.707L285.987 341.685L287.561 342.625ZM502.971 346.35V340.719H504.11V346.35H502.971ZM383.705 347.047V341.416H384.845V347.047H383.705ZM599.815 347.225V341.594H600.955V347.225H599.815ZM638.599 347.549V341.918H639.739V347.549H638.599ZM578.082 348.404V342.773H579.222V348.404H578.082ZM479.29 348.643V343.012H480.43V348.643H479.29ZM245.841 347.747L241.03 344.863L241.616 343.885L246.428 346.77L245.841 347.747ZM359.434 349.679V344.048H360.573V349.679H359.434ZM204.442 348.885L199.62 346.005L200.205 345.026L205.026 347.906L204.442 348.885ZM554.219 350.801V345.17H555.359V350.801H554.219ZM282.544 346.81L278.258 349.264L277.692 348.274L281.978 345.821L282.544 346.81ZM453.908 351.91V346.279H455.048V351.91H453.908ZM335.359 352.197V346.566H336.499V352.197H335.359ZM431.497 353.476V347.845H432.637V353.476H431.497ZM57.1039 353.69V348.046H58.2438V353.69H57.1039ZM311.694 354.481V348.85H312.834V354.481H311.694ZM655.67 349.228V354.997H654.53V349.228H655.67ZM527.083 355.072V349.441H528.223V355.072H527.083ZM255.465 353.517L250.653 350.632L251.239 349.654L256.051 352.539L255.465 353.517ZM408.312 355.486V349.855H409.452V355.486H408.312ZM273.973 351.717L269.687 354.17L269.121 353.181L273.406 350.728L273.973 351.717ZM214.085 354.644L209.264 351.765L209.848 350.786L214.67 353.666L214.085 354.644ZM622.668 356.668V351.037H623.808V356.668H622.668ZM288.119 356.714V351.083H289.259V356.714H288.119ZM502.971 357.612V351.981H504.11V357.612H502.971ZM383.705 358.31V352.679H384.845V358.31H383.705ZM599.815 358.488V352.857H600.955V358.488H599.815ZM638.599 358.811V353.18H639.739V358.811H638.599ZM578.082 359.666V354.035H579.222V359.666H578.082ZM479.29 359.905V354.274H480.43V359.905H479.29ZM359.434 360.941V355.31H360.573V360.941H359.434ZM261.848 357.344L260.277 356.402L260.863 355.424L262.982 356.695L264.835 355.634L265.401 356.623L263.545 357.686V360.171H262.406V358.338L260.499 359.43L259.932 358.44L261.848 357.344ZM554.219 362.063V356.432H555.359V362.063H554.219ZM223.729 360.404L218.907 357.524L219.491 356.545L224.313 359.425L223.729 360.404ZM453.908 363.172V357.541H455.048V363.172H453.908ZM335.359 363.459V357.828H336.499V363.459H335.359ZM431.497 364.739V359.108H432.637V364.739H431.497ZM57.1039 364.978V359.334H58.2438V364.978H57.1039ZM311.694 365.743V360.112H312.834V365.743H311.694ZM527.083 366.334V360.703H528.223V366.334H527.083ZM655.67 360.766V366.535H654.53V360.766H655.67ZM408.312 366.748V361.117H409.452V366.748H408.312ZM254.979 362.589L249.459 365.749L248.893 364.76L254.413 361.6L254.979 362.589ZM622.668 367.93V362.299H623.808V367.93H622.668ZM233.372 366.163L228.55 363.283L229.135 362.305L233.956 365.185L233.372 366.163ZM288.119 367.976V362.345H289.259V367.976H288.119ZM502.971 368.875V363.244H504.11V368.875H502.971ZM383.705 369.572V363.941H384.845V369.572H383.705ZM599.815 369.75V364.119H600.955V369.75H599.815ZM638.599 370.073V364.442H639.739V370.073H638.599ZM578.082 370.928V365.297H579.222V370.928H578.082ZM479.29 371.168V365.537H480.43V371.168H479.29ZM262.406 371.433V365.802H263.545V371.433H262.406ZM359.434 372.203V366.572H360.573V372.203H359.434ZM554.219 373.325V367.694H555.359V373.325H554.219ZM241.467 370.324L243.94 368.908L243.373 367.919L240.903 369.333L238.778 368.064L238.193 369.043L240.327 370.317V372.809H241.467V370.324ZM453.908 374.435V368.803H455.048V374.435H453.908ZM335.359 374.722V369.09H336.499V374.722H335.359ZM431.497 376.001V370.37H432.637V376.001H431.497ZM57.1039 376.266V370.622H58.2438V376.266H57.1039ZM311.694 377.006V371.375H312.834V377.006H311.694ZM527.083 377.597V371.966H528.223V377.597H527.083ZM655.67 372.303V378.072H654.53V372.303H655.67ZM408.312 378.01V372.379H409.452V378.01H408.312ZM622.668 379.192V373.561H623.808V379.192H622.668ZM288.119 379.238V373.607H289.259V379.238H288.119ZM502.971 380.137V374.506H504.11V380.137H502.971ZM383.705 380.834V375.203H384.845V380.834H383.705ZM599.815 381.012V375.381H600.955V381.012H599.815ZM638.599 381.335V375.704H639.739V381.335H638.599ZM578.082 382.19V376.559H579.222V382.19H578.082ZM479.29 382.43V376.799H480.43V382.43H479.29ZM262.406 382.695V377.064H263.545V382.695H262.406ZM359.434 383.465V377.834H360.573V383.465H359.434ZM240.327 384.071V378.44H241.467V384.071H240.327ZM554.219 384.588V378.957H555.359V384.588H554.219ZM453.908 385.697V380.066H455.048V385.697H453.908ZM335.359 385.984V380.353H336.499V385.984H335.359ZM431.497 387.263V381.632H432.637V387.263H431.497ZM57.1039 387.554V381.91H58.2438V387.554H57.1039ZM311.694 388.268V382.637H312.834V388.268H311.694ZM527.083 388.859V383.228H528.223V388.859H527.083ZM408.312 389.272V383.641H409.452V389.272H408.312ZM655.67 383.841V389.61H654.53V383.841H655.67ZM622.668 390.455V384.824H623.808V390.455H622.668ZM288.119 390.5V384.869H289.259V390.5H288.119ZM502.971 391.399V385.768H504.11V391.399H502.971ZM383.705 392.096V386.465H384.845V392.096H383.705ZM599.815 392.274V386.643H600.955V392.274H599.815ZM638.599 392.598V386.967H639.739V392.598H638.599ZM578.082 393.452V387.821H579.222V393.452H578.082ZM479.29 393.692V388.061H480.43V393.692H479.29ZM262.406 393.957V388.326H263.545V393.957H262.406ZM359.434 394.727V389.096H360.573V394.727H359.434ZM240.327 395.333V389.702H241.467V395.333H240.327ZM554.219 395.85V390.219H555.359V395.85H554.219ZM453.908 396.959V391.328H455.048V396.959H453.908ZM335.359 397.246V391.615H336.499V397.246H335.359ZM431.497 398.525V392.894H432.637V398.525H431.497ZM57.1039 398.842V393.198H58.2438V398.842H57.1039ZM311.694 399.53V393.899H312.834V399.53H311.694ZM527.083 400.121V394.49H528.223V400.121H527.083ZM408.312 400.535V394.904H409.452V400.535H408.312ZM655.67 395.379V401.148H654.53V395.379H655.67ZM622.668 401.717V396.086H623.808V401.717H622.668ZM288.119 401.762V396.131H289.259V401.762H288.119ZM502.971 402.661V397.03H504.11V402.661H502.971ZM383.705 403.358V397.727H384.845V403.358H383.705ZM599.815 403.536V397.905H600.955V403.536H599.815ZM638.599 403.86V398.229H639.739V403.86H638.599ZM578.082 404.715V399.084H579.222V404.715H578.082ZM479.29 404.954V399.323H480.43V404.954H479.29ZM262.406 405.219V399.588H263.545V405.219H262.406ZM359.434 405.99V400.358H360.573V405.99H359.434ZM240.327 406.596V400.965H241.467V406.596H240.327ZM554.219 407.112V401.481H555.359V407.112H554.219ZM453.908 408.221V402.59H455.048V408.221H453.908ZM335.359 408.508V402.877H336.499V408.508H335.359ZM431.497 409.787V404.156H432.637V409.787H431.497ZM57.1039 410.13V404.486H58.2438V410.13H57.1039ZM311.694 410.792V405.161H312.834V410.792H311.694ZM527.083 411.383V405.752H528.223V411.383H527.083ZM408.312 411.797V406.166H409.452V411.797H408.312ZM655.67 406.917V409.801C655.67 411.886 654.633 413.835 652.904 415L649.55 417.261L648.913 416.315L652.267 414.055C653.682 413.102 654.53 411.507 654.53 409.801V406.917H655.67ZM622.668 412.979V407.348H623.808V412.979H622.668ZM288.119 413.025V407.394H289.259V413.025H288.119ZM502.971 413.923V408.292H504.11V413.923H502.971ZM383.705 414.62V408.989H384.845V414.62H383.705ZM599.815 414.798V409.167H600.955V414.798H599.815ZM638.599 415.122V409.491H639.739V415.122H638.599ZM578.082 415.977V410.346H579.222V415.977H578.082ZM479.29 416.216V410.585H480.43V416.216H479.29ZM262.406 416.482V410.85H263.545V416.482H262.406ZM359.434 417.252V411.621H360.573V417.252H359.434ZM240.327 417.858V412.227H241.467V417.858H240.327ZM554.219 418.374V412.743H555.359V418.374H554.219ZM453.908 419.483V413.852H455.048V419.483H453.908ZM335.359 419.77V414.139H336.499V419.77H335.359ZM431.497 421.049V415.418H432.637V421.049H431.497ZM57.1039 421.418V415.774H58.2438V421.418H57.1039ZM311.694 422.054V416.423H312.834V422.054H311.694ZM527.083 422.645V417.014H528.223V422.645H527.083ZM408.312 423.059V417.428H409.452V423.059H408.312ZM622.668 424.241V418.61H623.808V424.241H622.668ZM288.119 424.287V418.656H289.259V424.287H288.119ZM502.971 425.186V419.554H504.11V425.186H502.971ZM383.705 425.883V420.252H384.845V425.883H383.705ZM599.815 426.061V420.43H600.955V426.061H599.815ZM638.599 423.238V420.753H639.739V422.497L642.205 420.836L642.842 421.781L639.47 424.053L637.461 425.203L636.895 424.214L638.599 423.238ZM578.082 427.239V421.608H579.222V427.239H578.082ZM479.29 427.478V421.847H480.43V427.478H479.29ZM262.406 427.744V422.113H263.545V427.744H262.406ZM359.434 428.514V422.883H360.573V428.514H359.434ZM240.327 429.12V423.489H241.467V429.12H240.327ZM554.219 429.636V424.005H555.359V429.636H554.219ZM453.908 430.745V425.114H455.048V430.745H453.908ZM335.359 431.032V425.401H336.499V431.032H335.359ZM633.478 427.483L629.495 429.763L628.929 428.774L632.912 426.494L633.478 427.483ZM431.497 432.312V426.681H432.637V432.312H431.497ZM57.1039 432.706V427.062H58.2438V432.706H57.1039ZM311.694 433.317V427.685H312.834V433.317H311.694ZM527.083 433.908V428.276H528.223V433.908H527.083ZM408.312 434.321V428.69H409.452V434.321H408.312ZM622.668 432.357V429.872H623.808V431.705L624.946 431.053L625.513 432.043L620.665 434.818L620.098 433.828L622.668 432.357ZM288.119 435.549V429.918H289.259V435.549H288.119ZM502.971 436.448V430.817H504.11V436.448H502.971ZM383.705 437.145V431.514H384.845V437.145H383.705ZM599.815 437.323V431.692H600.955V437.323H599.815ZM578.082 438.501V432.87H579.222V438.501H578.082ZM479.29 438.741V433.11H480.43V438.741H479.29ZM262.406 439.006V433.375H263.545V439.006H262.406ZM359.434 439.776V434.145H360.573V439.776H359.434ZM240.327 440.382V434.751H241.467V440.382H240.327ZM554.219 440.898V435.267H555.359V440.898H554.219ZM453.908 442.008V436.377H455.048V442.008H453.908ZM335.359 442.295V436.664H336.499V442.295H335.359ZM614.951 438.088L609.238 441.359L608.672 440.369L614.385 437.099L614.951 438.088ZM431.497 443.574V437.943H432.637V443.574H431.497ZM57.1039 443.994V438.35H58.2438V443.994H57.1039ZM311.694 444.579V438.948H312.834V444.579H311.694ZM527.083 445.17V439.539H528.223V445.17H527.083ZM408.312 445.583V439.952H409.452V445.583H408.312ZM288.119 446.811V441.18H289.259V446.811H288.119ZM502.971 447.71V442.079H504.11V447.71H502.971ZM383.705 448.407V442.776H384.845V448.407H383.705ZM599.815 445.439V442.954H600.955V444.787L602.959 443.64L603.525 444.629L597.952 447.819L597.385 446.83L599.815 445.439ZM578.082 449.763V444.132H579.222V449.763H578.082ZM479.29 450.003V444.372H480.43V450.003H479.29ZM262.406 450.268V444.637H263.545V450.268H262.406ZM359.434 451.038V445.407H360.573V451.038H359.434ZM240.327 451.644V446.013H241.467V451.644H240.327ZM554.219 452.161V446.53H555.359V452.161H554.219ZM453.908 453.27V447.639H455.048V453.27H453.908ZM335.359 453.557V447.926H336.499V453.557H335.359ZM431.497 454.836V449.205H432.637V454.836H431.497ZM57.1039 455.282V449.638H58.2438V455.282H57.1039ZM592.518 450.929L587.085 454.04L586.519 453.05L591.952 449.94L592.518 450.929ZM311.694 455.841V450.21H312.834V455.841H311.694ZM527.083 456.432V450.801H528.223V456.432H527.083ZM408.312 456.845V451.214H409.452V456.845H408.312ZM288.119 458.073V452.442H289.259V458.073H288.119ZM502.971 458.972V453.341H504.11V458.972H502.971ZM383.705 459.669V454.038H384.845V459.669H383.705ZM578.082 457.88V455.395H579.222V457.227L581.085 456.16L581.652 457.15L575.952 460.412L575.386 459.423L578.082 457.88ZM479.29 461.265V455.634H480.43V461.265H479.29ZM262.406 461.53V455.899H263.545V461.53H262.406ZM359.434 462.3V456.669H360.573V462.3H359.434ZM240.327 462.907V457.275H241.467V462.907H240.327ZM554.219 463.423V457.792H555.359V463.423H554.219ZM453.908 464.532V458.901H455.048V464.532H453.908ZM335.359 464.819V459.188H336.499V464.819H335.359ZM431.497 466.098V460.467H432.637V466.098H431.497ZM57.1039 466.57V460.926H58.2438V466.57H57.1039ZM311.694 467.103V461.472H312.834V467.103H311.694ZM527.083 467.694V462.063H528.223V467.694H527.083ZM408.312 468.108V462.477H409.452V468.108H408.312ZM569.986 463.827L564.021 467.242L563.454 466.253L569.42 462.838L569.986 463.827ZM288.119 469.336V463.704H289.259V469.336H288.119ZM502.971 470.234V464.603H504.11V470.234H502.971ZM383.705 470.931V465.3H384.845V470.931H383.705ZM479.29 472.527V466.896H480.43V472.527H479.29ZM262.406 472.792V467.161H263.545V472.792H262.406ZM359.434 473.563V467.931H360.573V473.563H359.434ZM240.327 474.169V468.538H241.467V474.169H240.327ZM554.219 471.539V469.054H555.359V470.887L557.489 469.667L558.055 470.657L552.811 473.659L552.245 472.669L554.219 471.539ZM453.908 475.794V470.163H455.048V475.794H453.908ZM335.359 476.081V470.45H336.499V476.081H335.359ZM431.497 477.36V471.729H432.637V477.36H431.497ZM57.1039 477.858V472.214H58.2438V477.858H57.1039ZM311.694 478.365V472.734H312.834V478.365H311.694ZM527.083 478.956V473.325H528.223V478.956H527.083ZM408.312 479.37V473.739H409.452V479.37H408.312ZM288.119 480.598V474.967H289.259V480.598H288.119ZM548.288 476.248L543.765 478.836L543.199 477.847L547.722 475.258L548.288 476.248ZM502.971 481.496V475.865H504.11V481.496H502.971ZM383.705 482.194V476.562H384.845V482.194H383.705ZM479.29 483.789V478.158H480.43V483.789H479.29ZM262.406 484.055V478.424H263.545V484.055H262.406ZM359.434 484.825V479.194H360.573V484.825H359.434ZM240.327 485.431V479.8H241.467V485.431H240.327ZM539.243 481.425L534.72 484.014L534.154 483.025L538.676 480.436L539.243 481.425ZM453.908 487.056V481.425H455.048V487.056H453.908ZM335.359 487.343V481.712H336.499V487.343H335.359ZM431.497 488.623V482.991H432.637V488.623H431.497ZM57.1039 489.146V483.502H58.2438V489.146H57.1039ZM311.694 489.627V483.996H312.834V489.627H311.694ZM527.083 487.072V484.587H528.223V486.42L529.631 485.614L530.197 486.603L524.922 489.623L524.356 488.634L527.083 487.072ZM408.312 490.632V485.001H409.452V490.632H408.312ZM288.119 491.86V486.229H289.259V491.86H288.119ZM502.971 492.759V487.128H504.11V492.759H502.971ZM383.705 493.456V487.825H384.845V493.456H383.705ZM479.29 495.052V489.42H480.43V495.052H479.29ZM262.406 495.317V489.686H263.545V495.317H262.406ZM359.434 496.087V490.456H360.573V496.087H359.434ZM240.327 496.693V491.062H241.467V496.693H240.327ZM518.894 493.073L512.866 496.524L512.299 495.535L518.328 492.084L518.894 493.073ZM453.908 498.319V492.687H455.048V498.319H453.908ZM335.359 498.605V492.974H336.499V498.605H335.359ZM431.497 499.885V494.254H432.637V499.885H431.497ZM57.1039 500.434V494.79H58.2438V500.434H57.1039ZM311.694 500.89V495.259H312.834V500.89H311.694ZM408.312 501.894V496.263H409.452V501.894H408.312ZM288.119 503.122V497.491H289.259V503.122H288.119ZM502.971 500.875V498.39H504.11V500.222L506.271 498.985L506.838 499.975L500.864 503.394L500.297 502.405L502.971 500.875ZM383.705 504.718V499.087H384.845V504.718H383.705ZM479.29 506.314V500.683H480.43V506.314H479.29ZM262.406 506.579V500.948H263.545V506.579H262.406ZM359.434 507.349V501.718H360.573V507.349H359.434ZM240.327 507.955V502.324H241.467V507.955H240.327ZM453.908 509.581V503.95H455.048V509.581H453.908ZM335.359 509.868V504.237H336.499V509.868H335.359ZM431.497 511.147V505.516H432.637V511.147H431.497ZM494.943 506.783L489.023 510.172L488.457 509.183L494.377 505.794L494.943 506.783ZM57.1039 511.722V506.078H58.2438V511.722H57.1039ZM311.694 512.152V506.521H312.834V512.152H311.694ZM408.312 513.156V507.525H409.452V513.156H408.312ZM288.119 514.384V508.753H289.259V514.384H288.119ZM383.705 515.98V510.349H384.845V515.98H383.705ZM479.29 514.43V511.945H480.43V513.778L482.537 512.571L483.103 513.561L478.028 516.466L477.462 515.477L479.29 514.43ZM262.406 517.841V512.21H263.545V517.841H262.406ZM359.434 518.611V512.98H360.573V518.611H359.434ZM240.327 519.217V513.586H241.467V519.217H240.327ZM453.908 520.843V515.212H455.048V520.843H453.908ZM335.359 521.13V515.499H336.499V521.13H335.359ZM431.497 522.409V516.778H432.637V522.409H431.497ZM57.1039 523.01V517.366H58.2438V523.01H57.1039ZM311.694 523.414V517.783H312.834V523.414H311.694ZM473.798 518.887L469.567 521.309L469.001 520.32L473.232 517.898L473.798 518.887ZM408.312 524.419V518.787H409.452V524.419H408.312ZM288.119 525.646V520.015H289.259V525.646H288.119ZM383.705 527.242V521.611H384.845V527.242H383.705ZM465.337 523.73L461.107 526.152L460.541 525.163L464.771 522.741L465.337 523.73ZM262.406 529.103V523.472H263.545V529.103H262.406ZM359.434 529.873V524.242H360.573V529.873H359.434ZM240.327 530.48V524.849H241.467V530.48H240.327ZM453.908 528.959V526.474H455.048V528.307L456.31 527.584L456.876 528.573L451.96 531.388L451.394 530.398L453.908 528.959ZM335.359 532.392V526.761H336.499V532.392H335.359ZM431.497 533.671V528.04H432.637V533.671H431.497ZM57.1039 534.298V528.654H58.2438V534.298H57.1039ZM311.694 534.676V529.045H312.834V534.676H311.694ZM408.312 535.681V530.05H409.452V535.681H408.312ZM288.119 536.909V531.278H289.259V536.909H288.119ZM383.705 538.504V532.873H384.845V538.504H383.705ZM446.357 534.595L440.755 537.802L440.188 536.813L445.791 533.606L446.357 534.595ZM262.406 540.365V534.734H263.545V540.365H262.406ZM359.434 541.136V535.505H360.573V541.136H359.434ZM240.327 541.742V536.111H241.467V541.742H240.327ZM335.359 543.654V538.023H336.499V543.654H335.359ZM431.497 541.788V539.302H432.637V541.135L434.586 540.02L435.152 541.009L429.452 544.272L428.886 543.282L431.497 541.788ZM57.1039 542.764V539.942H58.2438V542.764C58.2438 543.219 58.304 543.665 58.4188 544.093L57.3179 544.388C57.1775 543.865 57.1039 543.32 57.1039 542.764ZM311.694 545.938V540.307H312.834V545.938H311.694ZM408.312 546.943V541.312H409.452V546.943H408.312ZM288.119 548.171V542.54H289.259V548.171H288.119ZM383.705 549.767V544.135H384.845V549.767H383.705ZM262.406 551.628V545.997H263.545V551.628H262.406ZM60.2452 548.197C59.7634 547.92 59.3274 547.584 58.944 547.201L59.7494 546.394C60.0629 546.707 60.4196 546.982 60.8139 547.209L63.319 548.651L62.7502 549.639L60.2452 548.197ZM423.656 547.589L417.86 550.907L417.294 549.918L423.09 546.6L423.656 547.589ZM359.434 552.398V546.767H360.573V552.398H359.434ZM240.327 553.004V547.373H241.467V553.004H240.327ZM335.359 554.916V549.285H336.499V554.916H335.359ZM72.7706 555.408L67.7604 552.524L68.3292 551.536L73.3394 554.421L72.7706 555.408ZM311.694 557.2V551.569H312.834V557.2H311.694ZM408.312 555.059V552.574H409.452V554.407L411.497 553.236L412.064 554.225L406.09 557.645L405.523 556.656L408.312 555.059ZM288.119 559.433V553.802H289.259V559.433H288.119ZM383.705 561.029V555.398H384.845V561.029H383.705ZM262.406 562.89V557.259H263.545V562.89H262.406ZM82.791 561.178L77.7808 558.293L78.3496 557.305L83.3598 560.19L82.791 561.178ZM359.434 563.66V558.029H360.573V563.66H359.434ZM240.327 564.266V558.635H241.467V564.266H240.327ZM399.938 561.166L393.786 564.688L393.219 563.699L399.371 560.177L399.938 561.166ZM335.359 566.179V560.547H336.499V566.179H335.359ZM311.694 568.463V562.832H312.834V568.463H311.694ZM92.8114 566.947L87.8012 564.062L88.37 563.074L93.3802 565.959L92.8114 566.947ZM288.119 570.695V565.064H289.259V570.695H288.119ZM383.705 569.145V566.66H384.845V568.492L387.068 567.22L387.634 568.209L381.524 571.707L380.958 570.718L383.705 569.145ZM262.406 574.152V568.521H263.545V574.152H262.406ZM102.832 572.716L97.8216 569.831L98.3904 568.844L103.401 571.728L102.832 572.716ZM359.434 574.922V569.291H360.573V574.922H359.434ZM240.327 575.528V569.897H241.467V575.528H240.327ZM335.359 577.441V571.81H336.499V577.441H335.359ZM311.694 579.725V574.094H312.834V579.725H311.694ZM375.456 575.18L369.388 578.654L368.822 577.664L374.89 574.191L375.456 575.18ZM112.852 578.485L107.842 575.601L108.411 574.613L113.421 577.497L112.852 578.485ZM288.119 581.957V576.326H289.259V581.957H288.119ZM262.406 585.414V579.783H263.545V585.414H262.406ZM122.873 584.254L117.862 581.37L118.431 580.382L123.441 583.266L122.873 584.254ZM359.434 583.038V580.553H360.573V582.386L362.754 581.138L363.321 582.127L357.277 585.586L356.711 584.597L359.434 583.038ZM240.327 586.79V581.159H241.467V586.79H240.327ZM335.359 588.703V583.072H336.499V588.703H335.359ZM311.694 590.987V585.356H312.834V590.987H311.694ZM132.893 590.023L127.883 587.139L128.452 586.151L133.462 589.036L132.893 590.023ZM288.119 593.219V587.588H289.259V593.219H288.119ZM351.259 589.031L345.24 592.477L344.674 591.487L350.692 588.042L351.259 589.031ZM262.406 596.676V591.045H263.545V596.676H262.406ZM142.913 595.793L137.903 592.908L138.472 591.92L143.482 594.805L142.913 595.793ZM240.327 598.053V592.422H241.467V598.053H240.327ZM335.359 596.819V594.334H336.499V596.167L338.655 594.932L339.221 595.922L333.254 599.338L332.688 598.348L335.359 596.819ZM311.694 602.249V596.618H312.834V602.249H311.694ZM152.934 601.562L147.924 598.677L148.492 597.689L153.503 600.574L152.934 601.562ZM288.119 604.482V598.851H289.259V604.482H288.119ZM327.338 602.724L321.421 606.111L320.855 605.121L326.771 601.735L327.338 602.724ZM262.406 607.939V602.307H263.545V607.939H262.406ZM162.954 607.331L157.944 604.446L158.513 603.458L163.523 606.343L162.954 607.331ZM240.327 609.315V603.684H241.467V609.315H240.327ZM311.694 610.365V607.88H312.834V609.713L314.939 608.508L315.505 609.497L309.6 612.877L309.034 611.888L311.694 610.365ZM172.975 613.1L167.964 610.216L168.533 609.228L173.543 612.112L172.975 613.1ZM288.119 615.744V610.113H289.259V615.744H288.119ZM262.406 619.201V613.57H263.545V619.201H262.406ZM240.327 620.577V614.946H241.467V620.577H240.327ZM182.995 618.869L177.985 615.985L178.553 614.997L183.564 617.881L182.995 618.869ZM303.707 616.251L297.813 619.625L297.247 618.635L303.14 615.262L303.707 616.251ZM193.015 624.638L188.005 621.754L188.574 620.766L193.584 623.651L193.015 624.638ZM288.119 623.86V621.375H289.259V623.208L291.353 622.009L291.919 622.998L286.83 625.912L286.263 624.922L288.119 623.86ZM262.406 630.463V624.832H263.545V630.463H262.406ZM240.327 631.839V626.208H241.467V631.839H240.327ZM203.036 630.408L198.026 627.523L198.594 626.535L203.604 629.42L203.036 630.408ZM282.544 628.365L278.258 630.818L277.692 629.829L281.978 627.376L282.544 628.365ZM273.973 633.271L269.687 635.725L269.121 634.735L273.406 632.282L273.973 633.271ZM213.056 636.177L208.046 633.292L208.615 632.304L213.625 635.189L213.056 636.177ZM262.406 638.579V636.094H263.545V637.927L264.835 637.188L265.401 638.178L260.499 640.984L259.932 639.995L262.406 638.579ZM240.327 643.101V637.47H241.467V643.101H240.327ZM223.076 641.946L218.066 639.061L218.635 638.073L223.645 640.958L223.076 641.946ZM254.979 644.144L249.459 647.303L248.893 646.314L254.413 643.154L254.979 644.144ZM233.097 647.715L228.087 644.831L228.655 643.843L233.666 646.727L233.097 647.715ZM240.327 650.562V648.732H241.467V650.565L243.373 649.474L243.94 650.463L240.896 652.205L238.107 650.6L238.676 649.612L240.327 650.562Z" fill="white"/>
<path d="M676.646 127.624L675.102 133.172L672.325 132.399L673.869 126.851C674.347 125.132 673.378 123.361 671.704 122.896L666.312 121.395L667.105 118.544L672.497 120.045C675.705 120.937 677.562 124.331 676.646 127.624Z" fill="#E1FF03" stroke="#E1FF03" stroke-width="1.1399"/>
<path d="M237.05 668.027L232.978 663.954L235.016 661.916L239.088 665.988C240.349 667.25 242.368 667.276 243.597 666.048L247.554 662.09L249.647 664.182L245.689 668.14C243.335 670.494 239.467 670.444 237.05 668.027Z" fill="#E1FF03" stroke="#E1FF03" stroke-width="1.1399"/>
<path d="M662.913 427.981L657.154 427.981L657.154 425.099L662.913 425.099C664.697 425.099 666.143 423.69 666.143 421.952L666.143 416.355L669.103 416.355L669.103 421.952C669.103 425.282 666.332 427.981 662.913 427.981Z" fill="#E1FF03" stroke="#E1FF03" stroke-width="1.1399"/>
<path d="M479.143 4.16831L483.162 8.18701L481.151 10.1985L477.132 6.17978C475.887 4.93492 473.895 4.90874 472.682 6.1213L468.777 10.027L466.712 7.96192L470.617 4.05626C472.941 1.73279 476.758 1.78296 479.143 4.16831Z" fill="#E1FF03" stroke="#E1FF03" stroke-width="1.12493"/>
<path d="M48.2996 247.722L53.8623 246.231L54.6084 249.016L49.0456 250.506C47.3225 250.968 46.2902 252.703 46.7399 254.381L48.1885 259.788L45.3301 260.554L43.8815 255.147C43.0197 251.931 44.9978 248.607 48.2996 247.722Z" fill="#E1FF03" stroke="#E1FF03" stroke-width="1.1399"/>
<path d="M43.7812 557.052V551.293H46.6638V557.052C46.6638 558.836 48.0724 560.282 49.81 560.282H55.407V563.241H49.81C46.4804 563.241 43.7812 560.47 43.7812 557.052Z" fill="#E1FF03" stroke="#E1FF03" stroke-width="1.1399"/>
<g opacity="0.2">
<path d="M246.836 391.762V632.194L267.626 620.293V379.861L246.836 391.762Z" fill="url(#paint40_linear_4234_7191)"/>
<path d="M267.626 379.861V620.293L291.839 606.433V366.001L267.626 379.861Z" fill="url(#paint41_linear_4234_7191)"/>
<path d="M291.839 366.001V606.433L314.037 593.726V353.294L291.839 366.001Z" fill="url(#paint42_linear_4234_7191)"/>
<path d="M314.037 353.294V593.726L336.321 580.971V340.539L314.037 353.294Z" fill="url(#paint43_linear_4234_7191)"/>
<path d="M336.321 340.539V580.971L358.99 567.994V327.562L336.321 340.539Z" fill="url(#paint44_linear_4234_7191)"/>
<path d="M358.99 327.562V567.994L381.845 554.912V314.48L358.99 327.562Z" fill="url(#paint45_linear_4234_7191)"/>
<path d="M381.845 314.48V554.912L405.016 541.648V301.216L381.845 314.48Z" fill="url(#paint46_linear_4234_7191)"/>
<path d="M405.016 301.216V541.648L426.848 529.151V288.719L405.016 301.216Z" fill="url(#paint47_linear_4234_7191)"/>
<path d="M426.848 288.719V529.151L447.95 517.072V276.64L426.848 288.719Z" fill="url(#paint48_linear_4234_7191)"/>
<path d="M447.95 276.64V517.072L471.85 503.391V262.959L447.95 276.64Z" fill="url(#paint49_linear_4234_7191)"/>
<path d="M471.85 262.959V503.391L494.149 490.627V250.195L471.85 262.959Z" fill="url(#paint50_linear_4234_7191)"/>
<path d="M494.149 250.195V490.627L516.853 477.63V237.198L494.149 250.195Z" fill="url(#paint51_linear_4234_7191)"/>
<path d="M516.853 237.198V477.63L542.406 463.004V222.571L516.853 237.198Z" fill="url(#paint52_linear_4234_7191)"/>
<path d="M542.406 222.571V463.004L564.875 450.141V209.709L542.406 222.571Z" fill="url(#paint53_linear_4234_7191)"/>
<path d="M564.875 209.709V450.141L585.34 438.427V197.995L564.875 209.709Z" fill="url(#paint54_linear_4234_7191)"/>
<path d="M585.34 197.995V438.427L606.859 426.109V185.677L585.34 197.995Z" fill="url(#paint55_linear_4234_7191)"/>
<path d="M606.859 185.677V426.109L621.86 417.522V177.09L606.859 185.677Z" fill="url(#paint56_linear_4234_7191)"/>
<path d="M633.993 410.577C635.767 409.562 636.861 407.674 636.861 405.631V168.503L621.86 177.09V417.522L633.993 410.577Z" fill="url(#paint57_linear_4234_7191)"/>
</g>
<path opacity="0.21" fill-rule="evenodd" clip-rule="evenodd" d="M80.13 247.635L57.6738 260.464L240.897 369.894L262.976 357.255L288.689 342.536L312.264 329.042L335.929 315.495L360.003 301.715L384.275 287.821L408.882 273.735L432.067 260.464L454.478 247.635L479.86 233.106L503.54 219.551L527.653 205.749L554.789 190.215L578.652 176.556L600.385 164.115L623.238 151.034L639.169 141.915L655.1 132.795L475.578 25.0822C473.811 24.0218 471.609 23.9982 469.819 25.0206L456.753 32.4844L440.79 41.6036L418.001 54.6219L392.901 68.9611L368.348 82.9873L340.802 98.7234L317.691 111.926L290.333 127.554L265.195 141.915L244.737 153.601L221.838 166.683L199.141 179.649L175.606 193.093L153.453 205.749L129.292 219.551L105.563 233.106L80.13 247.635Z" fill="url(#paint58_linear_4234_7191)"/>
<path opacity="0.2" fill-rule="evenodd" clip-rule="evenodd" d="M96.2557 259.049L75.1104 271.129L247.638 374.171L268.428 362.271L292.641 348.411L314.839 335.704L337.123 322.948L359.792 309.972L382.646 296.89L405.818 283.626L427.649 271.129L448.752 259.049L472.652 245.368L494.95 232.605L517.655 219.608L543.207 204.981L565.677 192.119L586.142 180.405L607.661 168.087L622.662 159.5L637.663 150.913L468.787 49.5877C467.02 48.5273 464.817 48.5037 463.028 49.5261L450.894 56.4576L435.863 65.0444L414.404 77.3028L390.769 90.805L367.649 104.012L341.711 118.83L319.949 131.262L294.188 145.978L270.518 159.5L251.254 170.505L229.692 182.822L208.32 195.031L186.159 207.691L165.298 219.608L142.548 232.605L120.204 245.368L96.2557 259.049Z" fill="url(#paint59_linear_4234_7191)"/>
<path d="M595.619 602.433V636.365H590.483V607.57H590.284L582.166 612.871V607.967L590.632 602.433H595.619ZM615.998 636.829C613.922 636.829 612.055 636.432 610.398 635.636C608.753 634.83 607.438 633.725 606.455 632.323C605.472 630.92 604.947 629.318 604.881 627.518H609.852C609.973 628.976 610.619 630.174 611.79 631.113C612.961 632.052 614.364 632.521 615.998 632.521C617.302 632.521 618.456 632.223 619.461 631.627C620.477 631.019 621.273 630.185 621.847 629.125C622.432 628.065 622.725 626.855 622.725 625.496C622.725 624.116 622.427 622.884 621.83 621.802C621.234 620.719 620.411 619.869 619.362 619.25C618.324 618.632 617.131 618.317 615.783 618.306C614.756 618.306 613.723 618.483 612.685 618.836C611.647 619.189 610.807 619.653 610.166 620.228L605.478 619.532L607.383 602.433H626.039V606.824H611.641L610.564 616.318H610.763C611.426 615.677 612.304 615.141 613.397 614.711C614.502 614.28 615.684 614.064 616.943 614.064C619.008 614.064 620.847 614.556 622.46 615.539C624.084 616.522 625.36 617.864 626.287 619.565C627.226 621.255 627.69 623.199 627.679 625.397C627.69 627.595 627.193 629.556 626.188 631.279C625.194 633.002 623.813 634.36 622.046 635.355C620.29 636.338 618.274 636.829 615.998 636.829ZM651.442 630.003V628.214C651.442 626.932 651.707 625.762 652.237 624.701C652.779 623.63 653.563 622.774 654.59 622.133C655.628 621.481 656.882 621.156 658.351 621.156C659.853 621.156 661.112 621.476 662.129 622.117C663.145 622.757 663.913 623.613 664.432 624.685C664.962 625.756 665.227 626.932 665.227 628.214V630.003C665.227 631.284 664.962 632.461 664.432 633.532C663.901 634.592 663.123 635.448 662.096 636.1C661.079 636.741 659.831 637.061 658.351 637.061C656.86 637.061 655.601 636.741 654.574 636.1C653.546 635.448 652.768 634.592 652.237 633.532C651.707 632.461 651.442 631.284 651.442 630.003ZM655.303 628.214V630.003C655.303 630.953 655.529 631.814 655.982 632.588C656.435 633.361 657.224 633.747 658.351 633.747C659.467 633.747 660.245 633.361 660.687 632.588C661.129 631.814 661.35 630.953 661.35 630.003V628.214C661.35 627.264 661.135 626.402 660.704 625.629C660.284 624.856 659.5 624.469 658.351 624.469C657.247 624.469 656.462 624.856 655.998 625.629C655.534 626.402 655.303 627.264 655.303 628.214ZM634.377 610.585V608.796C634.377 607.514 634.642 606.338 635.172 605.267C635.713 604.195 636.498 603.339 637.525 602.699C638.563 602.058 639.817 601.738 641.286 601.738C642.788 601.738 644.047 602.058 645.063 602.699C646.08 603.339 646.847 604.195 647.366 605.267C647.885 606.338 648.145 607.514 648.145 608.796V610.585C648.145 611.866 647.88 613.043 647.35 614.114C646.831 615.174 646.057 616.03 645.03 616.682C644.014 617.323 642.766 617.643 641.286 617.643C639.784 617.643 638.519 617.323 637.492 616.682C636.475 616.03 635.702 615.174 635.172 614.114C634.642 613.043 634.377 611.866 634.377 610.585ZM638.254 608.796V610.585C638.254 611.535 638.475 612.396 638.917 613.17C639.369 613.943 640.159 614.329 641.286 614.329C642.39 614.329 643.164 613.943 643.605 613.17C644.058 612.396 644.285 611.535 644.285 610.585V608.796C644.285 607.846 644.069 606.984 643.638 606.211C643.208 605.438 642.423 605.051 641.286 605.051C640.181 605.051 639.397 605.438 638.933 606.211C638.48 606.984 638.254 607.846 638.254 608.796ZM635.951 636.365L659.279 602.433H663.239L639.911 636.365H635.951Z" fill="white"/>
<defs>
<filter id="filter0_f_4234_7191" x="19.0375" y="269.827" width="936.478" height="478.003" filterUnits="userSpaceOnUse" color-interpolation-filters="sRGB">
<feFlood flood-opacity="0" result="BackgroundImageFix"/>
<feBlend mode="normal" in="SourceGraphic" in2="BackgroundImageFix" result="shape"/>
<feGaussianBlur stdDeviation="17.0985" result="effect1_foregroundBlur_4234_7191"/>
</filter>
<linearGradient id="paint0_linear_4234_7191" x1="301.696" y1="351.393" x2="506.113" y2="670.464" gradientUnits="userSpaceOnUse">
<stop stop-color="white"/>
<stop offset="1" stop-color="white" stop-opacity="0"/>
</linearGradient>
<linearGradient id="paint1_linear_4234_7191" x1="87.4767" y1="371.798" x2="257.709" y2="232.343" gradientUnits="userSpaceOnUse">
<stop offset="0.0647033" stop-color="#CECECE" stop-opacity="0.21"/>
<stop offset="1" stop-color="#CECECE" stop-opacity="0"/>
</linearGradient>
<linearGradient id="paint2_linear_4234_7191" x1="36.4017" y1="628.333" x2="208.592" y2="416.468" gradientUnits="userSpaceOnUse">
<stop stop-color="#CECECE"/>
<stop offset="1" stop-color="#CECECE" stop-opacity="0"/>
</linearGradient>
<linearGradient id="paint3_linear_4234_7191" x1="8.33971" y1="544.442" x2="144.763" y2="490.66" gradientUnits="userSpaceOnUse">
<stop stop-color="#CECECE"/>
<stop offset="1" stop-color="#CECECE" stop-opacity="0"/>
</linearGradient>
<linearGradient id="paint4_linear_4234_7191" x1="541.447" y1="260.793" x2="615.08" y2="448.222" gradientUnits="userSpaceOnUse">
<stop stop-color="#626262"/>
<stop offset="1" stop-color="#CECECE" stop-opacity="0"/>
</linearGradient>
<linearGradient id="paint5_linear_4234_7191" x1="541.447" y1="260.793" x2="615.08" y2="448.222" gradientUnits="userSpaceOnUse">
<stop stop-color="#626262"/>
<stop offset="1" stop-color="#CECECE" stop-opacity="0"/>
</linearGradient>
<linearGradient id="paint6_linear_4234_7191" x1="541.447" y1="260.793" x2="615.08" y2="448.222" gradientUnits="userSpaceOnUse">
<stop stop-color="#626262"/>
<stop offset="1" stop-color="#CECECE" stop-opacity="0"/>
</linearGradient>
<linearGradient id="paint7_linear_4234_7191" x1="541.447" y1="260.793" x2="615.08" y2="448.222" gradientUnits="userSpaceOnUse">
<stop stop-color="#626262"/>
<stop offset="1" stop-color="#CECECE" stop-opacity="0"/>
</linearGradient>
<linearGradient id="paint8_linear_4234_7191" x1="541.447" y1="260.793" x2="615.08" y2="448.222" gradientUnits="userSpaceOnUse">
<stop stop-color="#626262"/>
<stop offset="1" stop-color="#CECECE" stop-opacity="0"/>
</linearGradient>
<linearGradient id="paint9_linear_4234_7191" x1="541.447" y1="260.793" x2="615.08" y2="448.222" gradientUnits="userSpaceOnUse">
<stop stop-color="#626262"/>
<stop offset="1" stop-color="#CECECE" stop-opacity="0"/>
</linearGradient>
<linearGradient id="paint10_linear_4234_7191" x1="541.447" y1="260.793" x2="615.08" y2="448.222" gradientUnits="userSpaceOnUse">
<stop stop-color="#626262"/>
<stop offset="1" stop-color="#CECECE" stop-opacity="0"/>
</linearGradient>
<linearGradient id="paint11_linear_4234_7191" x1="541.447" y1="260.793" x2="615.08" y2="448.222" gradientUnits="userSpaceOnUse">
<stop stop-color="#626262"/>
<stop offset="1" stop-color="#CECECE" stop-opacity="0"/>
</linearGradient>
<linearGradient id="paint12_linear_4234_7191" x1="541.447" y1="260.793" x2="615.08" y2="448.222" gradientUnits="userSpaceOnUse">
<stop stop-color="#626262"/>
<stop offset="1" stop-color="#CECECE" stop-opacity="0"/>
</linearGradient>
<linearGradient id="paint13_linear_4234_7191" x1="541.447" y1="260.793" x2="615.08" y2="448.222" gradientUnits="userSpaceOnUse">
<stop stop-color="#626262"/>
<stop offset="1" stop-color="#CECECE" stop-opacity="0"/>
</linearGradient>
<linearGradient id="paint14_linear_4234_7191" x1="541.447" y1="260.793" x2="615.08" y2="448.222" gradientUnits="userSpaceOnUse">
<stop stop-color="#626262"/>
<stop offset="1" stop-color="#CECECE" stop-opacity="0"/>
</linearGradient>
<linearGradient id="paint15_linear_4234_7191" x1="541.447" y1="260.793" x2="615.08" y2="448.222" gradientUnits="userSpaceOnUse">
<stop stop-color="#626262"/>
<stop offset="1" stop-color="#CECECE" stop-opacity="0"/>
</linearGradient>
<linearGradient id="paint16_linear_4234_7191" x1="541.447" y1="260.793" x2="615.08" y2="448.222" gradientUnits="userSpaceOnUse">
<stop stop-color="#626262"/>
<stop offset="1" stop-color="#CECECE" stop-opacity="0"/>
</linearGradient>
<linearGradient id="paint17_linear_4234_7191" x1="541.447" y1="260.793" x2="615.08" y2="448.222" gradientUnits="userSpaceOnUse">
<stop stop-color="#626262"/>
<stop offset="1" stop-color="#CECECE" stop-opacity="0"/>
</linearGradient>
<linearGradient id="paint18_linear_4234_7191" x1="541.447" y1="260.793" x2="615.08" y2="448.222" gradientUnits="userSpaceOnUse">
<stop stop-color="#626262"/>
<stop offset="1" stop-color="#CECECE" stop-opacity="0"/>
</linearGradient>
<linearGradient id="paint19_linear_4234_7191" x1="541.447" y1="260.793" x2="615.08" y2="448.222" gradientUnits="userSpaceOnUse">
<stop stop-color="#626262"/>
<stop offset="1" stop-color="#CECECE" stop-opacity="0"/>
</linearGradient>
<linearGradient id="paint20_linear_4234_7191" x1="541.447" y1="260.793" x2="615.08" y2="448.222" gradientUnits="userSpaceOnUse">
<stop stop-color="#626262"/>
<stop offset="1" stop-color="#CECECE" stop-opacity="0"/>
</linearGradient>
<linearGradient id="paint21_linear_4234_7191" x1="541.447" y1="260.793" x2="615.08" y2="448.222" gradientUnits="userSpaceOnUse">
<stop stop-color="#626262"/>
<stop offset="1" stop-color="#CECECE" stop-opacity="0"/>
</linearGradient>
<linearGradient id="paint22_linear_4234_7191" x1="611.141" y1="296.193" x2="590.688" y2="423.146" gradientUnits="userSpaceOnUse">
<stop stop-color="#626262"/>
<stop offset="1" stop-color="#CECECE" stop-opacity="0"/>
</linearGradient>
<linearGradient id="paint23_linear_4234_7191" x1="611.141" y1="296.193" x2="590.688" y2="423.146" gradientUnits="userSpaceOnUse">
<stop stop-color="#626262"/>
<stop offset="1" stop-color="#CECECE" stop-opacity="0"/>
</linearGradient>
<linearGradient id="paint24_linear_4234_7191" x1="611.141" y1="296.193" x2="590.688" y2="423.146" gradientUnits="userSpaceOnUse">
<stop stop-color="#626262"/>
<stop offset="1" stop-color="#CECECE" stop-opacity="0"/>
</linearGradient>
<linearGradient id="paint25_linear_4234_7191" x1="611.141" y1="296.193" x2="590.688" y2="423.146" gradientUnits="userSpaceOnUse">
<stop stop-color="#626262"/>
<stop offset="1" stop-color="#CECECE" stop-opacity="0"/>
</linearGradient>
<linearGradient id="paint26_linear_4234_7191" x1="611.141" y1="296.193" x2="590.688" y2="423.146" gradientUnits="userSpaceOnUse">
<stop stop-color="#626262"/>
<stop offset="1" stop-color="#CECECE" stop-opacity="0"/>
</linearGradient>
<linearGradient id="paint27_linear_4234_7191" x1="611.141" y1="296.193" x2="590.688" y2="423.146" gradientUnits="userSpaceOnUse">
<stop stop-color="#626262"/>
<stop offset="1" stop-color="#CECECE" stop-opacity="0"/>
</linearGradient>
<linearGradient id="paint28_linear_4234_7191" x1="611.141" y1="296.193" x2="590.688" y2="423.146" gradientUnits="userSpaceOnUse">
<stop stop-color="#626262"/>
<stop offset="1" stop-color="#CECECE" stop-opacity="0"/>
</linearGradient>
<linearGradient id="paint29_linear_4234_7191" x1="611.141" y1="296.193" x2="590.688" y2="423.146" gradientUnits="userSpaceOnUse">
<stop stop-color="#626262"/>
<stop offset="1" stop-color="#CECECE" stop-opacity="0"/>
</linearGradient>
<linearGradient id="paint30_linear_4234_7191" x1="611.141" y1="296.193" x2="590.688" y2="423.146" gradientUnits="userSpaceOnUse">
<stop stop-color="#626262"/>
<stop offset="1" stop-color="#CECECE" stop-opacity="0"/>
</linearGradient>
<linearGradient id="paint31_linear_4234_7191" x1="611.141" y1="296.193" x2="590.688" y2="423.146" gradientUnits="userSpaceOnUse">
<stop stop-color="#626262"/>
<stop offset="1" stop-color="#CECECE" stop-opacity="0"/>
</linearGradient>
<linearGradient id="paint32_linear_4234_7191" x1="611.141" y1="296.193" x2="590.688" y2="423.146" gradientUnits="userSpaceOnUse">
<stop stop-color="#626262"/>
<stop offset="1" stop-color="#CECECE" stop-opacity="0"/>
</linearGradient>
<linearGradient id="paint33_linear_4234_7191" x1="611.141" y1="296.193" x2="590.688" y2="423.146" gradientUnits="userSpaceOnUse">
<stop stop-color="#626262"/>
<stop offset="1" stop-color="#CECECE" stop-opacity="0"/>
</linearGradient>
<linearGradient id="paint34_linear_4234_7191" x1="611.141" y1="296.193" x2="590.688" y2="423.146" gradientUnits="userSpaceOnUse">
<stop stop-color="#626262"/>
<stop offset="1" stop-color="#CECECE" stop-opacity="0"/>
</linearGradient>
<linearGradient id="paint35_linear_4234_7191" x1="611.141" y1="296.193" x2="590.688" y2="423.146" gradientUnits="userSpaceOnUse">
<stop stop-color="#626262"/>
<stop offset="1" stop-color="#CECECE" stop-opacity="0"/>
</linearGradient>
<linearGradient id="paint36_linear_4234_7191" x1="611.141" y1="296.193" x2="590.688" y2="423.146" gradientUnits="userSpaceOnUse">
<stop stop-color="#626262"/>
<stop offset="1" stop-color="#CECECE" stop-opacity="0"/>
</linearGradient>
<linearGradient id="paint37_linear_4234_7191" x1="611.141" y1="296.193" x2="590.688" y2="423.146" gradientUnits="userSpaceOnUse">
<stop stop-color="#626262"/>
<stop offset="1" stop-color="#CECECE" stop-opacity="0"/>
</linearGradient>
<linearGradient id="paint38_linear_4234_7191" x1="611.141" y1="296.193" x2="590.688" y2="423.146" gradientUnits="userSpaceOnUse">
<stop stop-color="#626262"/>
<stop offset="1" stop-color="#CECECE" stop-opacity="0"/>
</linearGradient>
<linearGradient id="paint39_linear_4234_7191" x1="611.141" y1="296.193" x2="590.688" y2="423.146" gradientUnits="userSpaceOnUse">
<stop stop-color="#626262"/>
<stop offset="1" stop-color="#CECECE" stop-opacity="0"/>
</linearGradient>
<linearGradient id="paint40_linear_4234_7191" x1="415.789" y1="206.132" x2="469.201" y2="328.022" gradientUnits="userSpaceOnUse">
<stop stop-color="white"/>
<stop offset="1" stop-color="#CECECE" stop-opacity="0"/>
</linearGradient>
<linearGradient id="paint41_linear_4234_7191" x1="415.789" y1="206.132" x2="469.201" y2="328.022" gradientUnits="userSpaceOnUse">
<stop stop-color="white"/>
<stop offset="1" stop-color="#CECECE" stop-opacity="0"/>
</linearGradient>
<linearGradient id="paint42_linear_4234_7191" x1="415.789" y1="206.132" x2="469.201" y2="328.022" gradientUnits="userSpaceOnUse">
<stop stop-color="white"/>
<stop offset="1" stop-color="#CECECE" stop-opacity="0"/>
</linearGradient>
<linearGradient id="paint43_linear_4234_7191" x1="415.789" y1="206.132" x2="469.201" y2="328.022" gradientUnits="userSpaceOnUse">
<stop stop-color="white"/>
<stop offset="1" stop-color="#CECECE" stop-opacity="0"/>
</linearGradient>
<linearGradient id="paint44_linear_4234_7191" x1="415.789" y1="206.132" x2="469.201" y2="328.022" gradientUnits="userSpaceOnUse">
<stop stop-color="white"/>
<stop offset="1" stop-color="#CECECE" stop-opacity="0"/>
</linearGradient>
<linearGradient id="paint45_linear_4234_7191" x1="415.789" y1="206.132" x2="469.201" y2="328.022" gradientUnits="userSpaceOnUse">
<stop stop-color="white"/>
<stop offset="1" stop-color="#CECECE" stop-opacity="0"/>
</linearGradient>
<linearGradient id="paint46_linear_4234_7191" x1="415.789" y1="206.132" x2="469.201" y2="328.022" gradientUnits="userSpaceOnUse">
<stop stop-color="white"/>
<stop offset="1" stop-color="#CECECE" stop-opacity="0"/>
</linearGradient>
<linearGradient id="paint47_linear_4234_7191" x1="415.789" y1="206.132" x2="469.201" y2="328.022" gradientUnits="userSpaceOnUse">
<stop stop-color="white"/>
<stop offset="1" stop-color="#CECECE" stop-opacity="0"/>
</linearGradient>
<linearGradient id="paint48_linear_4234_7191" x1="415.789" y1="206.132" x2="469.201" y2="328.022" gradientUnits="userSpaceOnUse">
<stop stop-color="white"/>
<stop offset="1" stop-color="#CECECE" stop-opacity="0"/>
</linearGradient>
<linearGradient id="paint49_linear_4234_7191" x1="415.789" y1="206.132" x2="469.201" y2="328.022" gradientUnits="userSpaceOnUse">
<stop stop-color="white"/>
<stop offset="1" stop-color="#CECECE" stop-opacity="0"/>
</linearGradient>
<linearGradient id="paint50_linear_4234_7191" x1="415.789" y1="206.132" x2="469.201" y2="328.022" gradientUnits="userSpaceOnUse">
<stop stop-color="white"/>
<stop offset="1" stop-color="#CECECE" stop-opacity="0"/>
</linearGradient>
<linearGradient id="paint51_linear_4234_7191" x1="415.789" y1="206.132" x2="469.201" y2="328.022" gradientUnits="userSpaceOnUse">
<stop stop-color="white"/>
<stop offset="1" stop-color="#CECECE" stop-opacity="0"/>
</linearGradient>
<linearGradient id="paint52_linear_4234_7191" x1="415.789" y1="206.132" x2="469.201" y2="328.022" gradientUnits="userSpaceOnUse">
<stop stop-color="white"/>
<stop offset="1" stop-color="#CECECE" stop-opacity="0"/>
</linearGradient>
<linearGradient id="paint53_linear_4234_7191" x1="415.789" y1="206.132" x2="469.201" y2="328.022" gradientUnits="userSpaceOnUse">
<stop stop-color="white"/>
<stop offset="1" stop-color="#CECECE" stop-opacity="0"/>
</linearGradient>
<linearGradient id="paint54_linear_4234_7191" x1="415.789" y1="206.132" x2="469.201" y2="328.022" gradientUnits="userSpaceOnUse">
<stop stop-color="white"/>
<stop offset="1" stop-color="#CECECE" stop-opacity="0"/>
</linearGradient>
<linearGradient id="paint55_linear_4234_7191" x1="415.789" y1="206.132" x2="469.201" y2="328.022" gradientUnits="userSpaceOnUse">
<stop stop-color="white"/>
<stop offset="1" stop-color="#CECECE" stop-opacity="0"/>
</linearGradient>
<linearGradient id="paint56_linear_4234_7191" x1="415.789" y1="206.132" x2="469.201" y2="328.022" gradientUnits="userSpaceOnUse">
<stop stop-color="white"/>
<stop offset="1" stop-color="#CECECE" stop-opacity="0"/>
</linearGradient>
<linearGradient id="paint57_linear_4234_7191" x1="415.789" y1="206.132" x2="469.201" y2="328.022" gradientUnits="userSpaceOnUse">
<stop stop-color="white"/>
<stop offset="1" stop-color="#CECECE" stop-opacity="0"/>
</linearGradient>
<linearGradient id="paint58_linear_4234_7191" x1="57.6738" y1="222.646" x2="267.868" y2="227.821" gradientUnits="userSpaceOnUse">
<stop offset="0.0647033" stop-color="#CECECE"/>
<stop offset="1" stop-color="#CECECE" stop-opacity="0"/>
</linearGradient>
<linearGradient id="paint59_linear_4234_7191" x1="148.847" y1="172.968" x2="429.864" y2="187.14" gradientUnits="userSpaceOnUse">
<stop stop-color="#CECECE" stop-opacity="0.47"/>
<stop offset="1" stop-color="#CECECE" stop-opacity="0"/>
</linearGradient>
</defs>
</svg>
