<svg width="33" height="32" viewBox="0 0 33 32" fill="none" xmlns="http://www.w3.org/2000/svg">
<g clip-path="url(#clip0_2931_10038)">
<path fill-rule="evenodd" clip-rule="evenodd" d="M5.87532 5.79995C5.61464 5.79995 5.40332 6.01127 5.40332 6.27195V20.1612C5.40332 20.4219 5.61464 20.6332 5.87532 20.6332H7.08288V22.6332H5.87532C4.51007 22.6332 3.40332 21.5265 3.40332 20.1612V6.27195C3.40332 4.9067 4.51007 3.79995 5.87532 3.79995H20.1768C21.5421 3.79995 22.6488 4.9067 22.6488 6.27195V20.1612C22.6488 21.5265 21.5421 22.6332 20.1768 22.6332H12.923V20.6332H20.1768C20.4375 20.6332 20.6488 20.4219 20.6488 20.1612V6.27195C20.6488 6.01127 20.4375 5.79995 20.1768 5.79995H5.87532Z" fill="#E1FF03"/>
<path fill-rule="evenodd" clip-rule="evenodd" d="M9.08738 23.2157C9.96084 23.72 11.0782 23.4208 11.5829 22.5466C12.0876 21.6725 11.788 20.5552 10.9146 20.0509C10.0411 19.5466 8.92374 19.8458 8.41904 20.72C7.91434 21.5941 8.21393 22.7114 9.08738 23.2157ZM8.08738 24.9477C9.91765 26.0045 12.2581 25.3772 13.315 23.5466C14.3718 21.7161 13.7448 19.3756 11.9146 18.3189C10.0843 17.2621 7.74384 17.8894 6.68699 19.72C5.63014 21.5505 6.25712 23.891 8.08738 24.9477Z" fill="#E1FF03"/>
<path fill-rule="evenodd" clip-rule="evenodd" d="M25.4774 23.223C26.3548 23.7296 27.4774 23.429 27.9844 22.5508C28.4914 21.6726 28.1905 20.5502 27.313 20.0436C26.4355 19.537 25.313 19.8375 24.8059 20.7157C24.2989 21.5939 24.5999 22.7163 25.4774 23.223ZM24.4774 24.955C26.3117 26.014 28.6573 25.3853 29.7164 23.5508C30.7756 21.7163 30.1473 19.3706 28.313 18.3115C26.4787 17.2525 24.1331 17.8812 23.0739 19.7157C22.0147 21.5503 22.6431 23.896 24.4774 24.955Z" fill="#E1FF03"/>
<path fill-rule="evenodd" clip-rule="evenodd" d="M25.43 10.5163H21.6064V8.51626H25.43C26.1079 8.51626 26.756 8.7946 27.2227 9.28615L31.7528 14.0572C32.1889 14.5166 32.4321 15.1259 32.4321 15.7593V20.2122C32.4321 21.5775 31.3254 22.6842 29.9601 22.6842H28.6901V20.6842H29.9601C30.2208 20.6842 30.4321 20.4729 30.4321 20.2122V15.7593C30.4321 15.6384 30.3857 15.522 30.3024 15.4343L25.7723 10.6633C25.6832 10.5694 25.5595 10.5163 25.43 10.5163Z" fill="#E1FF03"/>
<path fill-rule="evenodd" clip-rule="evenodd" d="M24.1545 22.6334H20.1279V20.6334H24.1545V22.6334Z" fill="#E1FF03"/>
<path fill-rule="evenodd" clip-rule="evenodd" d="M30.7901 16.1887H21.4497V14.1887H30.7901V16.1887Z" fill="#E1FF03"/>
<path fill-rule="evenodd" clip-rule="evenodd" d="M1.65332 8.39204C1.65332 7.83976 2.10104 7.39204 2.65332 7.39204H10.7149C11.2671 7.39204 11.7149 7.83976 11.7149 8.39204C11.7149 8.94433 11.2671 9.39204 10.7149 9.39204H2.65332C2.10104 9.39204 1.65332 8.94433 1.65332 8.39204Z" fill="#E1FF03"/>
<path fill-rule="evenodd" clip-rule="evenodd" d="M0.569336 12.1721C0.569336 11.6198 1.01705 11.1721 1.56934 11.1721H10.0008C10.5531 11.1721 11.0008 11.6198 11.0008 12.1721C11.0008 12.7244 10.5531 13.1721 10.0008 13.1721H1.56934C1.01705 13.1721 0.569336 12.7244 0.569336 12.1721Z" fill="#E1FF03"/>
</g>
<defs>
<clipPath id="clip0_2931_10038">
<rect width="32" height="32" fill="white" transform="translate(0.769531)"/>
</clipPath>
</defs>
</svg>
