<svg width="24" height="24" viewBox="0 0 24 24" fill="none" xmlns="http://www.w3.org/2000/svg">
<g clip-path="url(#clip0_2931_10051)">
<path fill-rule="evenodd" clip-rule="evenodd" d="M12.2581 21.9998C16.8189 21.9998 20.5162 18.3025 20.5162 13.7417C20.5162 9.18091 16.8189 5.48364 12.2581 5.48364C7.69727 5.48364 4 9.18091 4 13.7417C4 18.3025 7.69727 21.9998 12.2581 21.9998ZM12.2581 23.9998C17.9235 23.9998 22.5162 19.4071 22.5162 13.7417C22.5162 8.07634 17.9235 3.48364 12.2581 3.48364C6.5927 3.48364 2 8.07634 2 13.7417C2 19.4071 6.5927 23.9998 12.2581 23.9998Z" fill="#E1FF03"/>
<path fill-rule="evenodd" clip-rule="evenodd" d="M12.2578 7.32788C12.8101 7.32788 13.2578 7.7756 13.2578 8.32788V13.4569C13.2578 14.0092 12.8101 14.4569 12.2578 14.4569C11.7055 14.4569 11.2578 14.0092 11.2578 13.4569V8.32788C11.2578 7.7756 11.7055 7.32788 12.2578 7.32788Z" fill="#E1FF03"/>
<path fill-rule="evenodd" clip-rule="evenodd" d="M16.6777 13.7419C16.6777 14.2942 16.23 14.7419 15.6777 14.7419H12.2584C11.7061 14.7419 11.2584 14.2942 11.2584 13.7419C11.2584 13.1897 11.7061 12.7419 12.2584 12.7419H15.6777C16.23 12.7419 16.6777 13.1897 16.6777 13.7419Z" fill="#E1FF03"/>
<path fill-rule="evenodd" clip-rule="evenodd" d="M21.5137 3.48494C21.9043 3.87546 21.9043 4.50863 21.5137 4.89915L19.8041 6.60884C19.4135 6.99936 18.7804 6.99936 18.3899 6.60884C17.9993 6.21831 17.9993 5.58515 18.3899 5.19462L20.0995 3.48494C20.4901 3.09441 21.1232 3.09441 21.5137 3.48494Z" fill="#E1FF03"/>
<path fill-rule="evenodd" clip-rule="evenodd" d="M12.2578 0.530273C12.8101 0.530273 13.2578 0.977989 13.2578 1.53027L13.2578 3.7792C13.2578 4.33148 12.8101 4.7792 12.2578 4.7792C11.7055 4.7792 11.2578 4.33148 11.2578 3.7792L11.2578 1.53027C11.2578 0.977989 11.7055 0.530273 12.2578 0.530273Z" fill="#E1FF03"/>
<path fill-rule="evenodd" clip-rule="evenodd" d="M22.6347 5.52693C22.2442 5.91746 21.611 5.91746 21.2205 5.52693L19.5108 3.81725C19.1203 3.42673 19.1203 2.79356 19.5108 2.40304C19.9013 2.01251 20.5345 2.01251 20.925 2.40304L22.6347 4.11272C23.0252 4.50324 23.0252 5.13641 22.6347 5.52693Z" fill="#E1FF03"/>
<path fill-rule="evenodd" clip-rule="evenodd" d="M16.207 1.20752C16.207 1.7598 15.7593 2.20752 15.207 2.20752L9.30878 2.20752C8.7565 2.20752 8.30878 1.7598 8.30878 1.20752C8.30878 0.655235 8.7565 0.20752 9.30878 0.20752L15.207 0.20752C15.7593 0.20752 16.207 0.655235 16.207 1.20752Z" fill="#E1FF03"/>
</g>
<defs>
<clipPath id="clip0_2931_10051">
<rect width="24" height="24" fill="white"/>
</clipPath>
</defs>
</svg>
