<svg width="1752" height="575" viewBox="1150 0 1552 575" fill="none" xmlns="http://www.w3.org/2000/svg">
<path opacity="0.2" fill-rule="evenodd" clip-rule="evenodd" d="M1092.32 214.208L1076.1 223.475L1208.45 302.521L1224.4 293.392L1242.97 282.759L1260 273.012L1277.09 263.227L1294.48 253.272L1312.02 243.236L1329.79 233.061L1346.54 223.475L1362.73 214.208L1381.06 203.713L1398.17 193.922L1415.58 183.952L1435.19 172.731L1452.42 162.864L1468.12 153.878L1484.63 144.429L1496.14 137.842L1507.65 131.254L1378.1 53.5254C1376.74 52.7118 1375.05 52.6938 1373.68 53.4781L1364.37 58.7954L1352.84 65.3825L1336.38 74.7863L1318.25 85.1441L1300.51 95.2758L1280.61 106.643L1263.92 116.179L1244.16 127.468L1226 137.842L1211.22 146.283L1194.68 155.733L1178.29 165.099L1161.29 174.81L1145.28 183.952L1127.83 193.922L1110.69 203.713L1092.32 214.208Z" fill="url(#paint0_linear_2931_8902)"/>
<path opacity="0.2" d="M1062.72 219.244V415.615C1062.72 417.179 1063.56 418.623 1064.91 419.404L1203.28 499.066V303.191L1062.72 219.244Z" fill="url(#paint1_linear_2931_8902)"/>
<path opacity="0.2" d="M1077.48 223.961V408.277C1077.48 409.841 1078.32 411.286 1079.68 412.066L1209.52 486.823V302.82L1077.48 223.961Z" fill="url(#paint2_linear_2931_8902)"/>
<g opacity="0.2">
<path d="M1202.66 303.191V499.066L1219.6 489.37V293.496L1202.66 303.191Z" fill="url(#paint3_linear_2931_8902)"/>
<path d="M1219.6 293.496V489.37L1239.32 478.079V282.204L1219.6 293.496Z" fill="url(#paint4_linear_2931_8902)"/>
<path d="M1239.32 282.204V478.079L1257.41 467.727V271.852L1239.32 282.204Z" fill="url(#paint5_linear_2931_8902)"/>
<path d="M1257.41 271.852V467.727L1275.56 457.335V261.46L1257.41 271.852Z" fill="url(#paint6_linear_2931_8902)"/>
<path d="M1275.56 261.46V457.335L1294.03 446.764V250.889L1275.56 261.46Z" fill="url(#paint7_linear_2931_8902)"/>
<path d="M1294.03 250.889V446.764L1312.65 436.106V240.231L1294.03 250.889Z" fill="url(#paint8_linear_2931_8902)"/>
<path d="M1312.65 240.231V436.106L1331.53 425.3V229.425L1312.65 240.231Z" fill="url(#paint9_linear_2931_8902)"/>
<path d="M1331.53 229.425V425.3L1349.31 415.119V219.244L1331.53 229.425Z" fill="url(#paint10_linear_2931_8902)"/>
<path d="M1349.31 219.244V415.119L1366.51 405.278V209.403L1349.31 219.244Z" fill="url(#paint11_linear_2931_8902)"/>
<path d="M1366.51 209.403V405.278L1385.98 394.133V198.258L1366.51 209.403Z" fill="url(#paint12_linear_2931_8902)"/>
<path d="M1385.98 198.258V394.133L1404.14 383.734V187.859L1385.98 198.258Z" fill="url(#paint13_linear_2931_8902)"/>
<path d="M1404.14 187.859V383.734L1422.64 373.146V177.271L1404.14 187.859Z" fill="url(#paint14_linear_2931_8902)"/>
<path d="M1422.64 177.271V373.146L1443.46 361.23V165.355L1422.64 177.271Z" fill="url(#paint15_linear_2931_8902)"/>
<path d="M1443.46 165.355V361.23L1461.76 350.752V154.877L1443.46 165.355Z" fill="url(#paint16_linear_2931_8902)"/>
<path d="M1461.76 154.877V350.752L1478.43 341.208V145.333L1461.76 154.877Z" fill="url(#paint17_linear_2931_8902)"/>
<path d="M1478.43 145.333V341.208L1495.97 331.173V135.298L1478.43 145.333Z" fill="url(#paint18_linear_2931_8902)"/>
<path d="M1495.97 135.298V331.173L1508.19 324.177V128.302L1495.97 135.298Z" fill="url(#paint19_linear_2931_8902)"/>
<path d="M1520.41 317.182V121.307L1508.19 128.302V324.177L1520.41 317.182Z" fill="url(#paint20_linear_2931_8902)"/>
</g>
<g opacity="0.2">
<path d="M1207.83 301.149V485.59L1223.78 476.461V292.02L1207.83 301.149Z" fill="url(#paint21_linear_2931_8902)"/>
<path d="M1223.78 292.02V476.461L1242.36 465.829V281.388L1223.78 292.02Z" fill="url(#paint22_linear_2931_8902)"/>
<path d="M1242.36 281.388V465.829L1259.39 456.081V271.64L1242.36 281.388Z" fill="url(#paint23_linear_2931_8902)"/>
<path d="M1259.39 271.64V456.081L1276.48 446.296V261.855L1259.39 271.64Z" fill="url(#paint24_linear_2931_8902)"/>
<path d="M1276.48 261.855V446.296L1293.87 436.342V251.9L1276.48 261.855Z" fill="url(#paint25_linear_2931_8902)"/>
<path d="M1293.87 251.9V436.342L1311.4 426.306V241.865L1293.87 251.9Z" fill="url(#paint26_linear_2931_8902)"/>
<path d="M1311.4 241.865V426.306L1329.18 416.131V231.69L1311.4 241.865Z" fill="url(#paint27_linear_2931_8902)"/>
<path d="M1329.18 231.69V416.131L1345.92 406.544V222.103L1329.18 231.69Z" fill="url(#paint28_linear_2931_8902)"/>
<path d="M1345.92 222.103V406.544L1362.11 397.278V212.837L1345.92 222.103Z" fill="url(#paint29_linear_2931_8902)"/>
<path d="M1362.11 212.837V397.278L1380.45 386.783V202.342L1362.11 212.837Z" fill="url(#paint30_linear_2931_8902)"/>
<path d="M1380.45 202.342V386.783L1397.55 376.991V192.55L1380.45 202.342Z" fill="url(#paint31_linear_2931_8902)"/>
<path d="M1397.55 192.55V376.991L1414.97 367.021V182.58L1397.55 192.55Z" fill="url(#paint32_linear_2931_8902)"/>
<path d="M1414.97 182.58V367.021L1434.57 355.801V171.36L1414.97 182.58Z" fill="url(#paint33_linear_2931_8902)"/>
<path d="M1434.57 171.36V355.801L1451.81 345.934V161.493L1434.57 171.36Z" fill="url(#paint34_linear_2931_8902)"/>
<path d="M1451.81 161.493V345.934L1467.51 336.948V152.506L1451.81 161.493Z" fill="url(#paint35_linear_2931_8902)"/>
<path d="M1467.51 152.506V336.948L1484.02 327.498V143.057L1467.51 152.506Z" fill="url(#paint36_linear_2931_8902)"/>
<path d="M1484.02 143.057V327.498L1495.52 320.911V136.47L1484.02 143.057Z" fill="url(#paint37_linear_2931_8902)"/>
<path d="M1504.83 315.583C1506.19 314.804 1507.03 313.356 1507.03 311.789V129.883L1495.52 136.47V320.911L1504.83 315.583Z" fill="url(#paint38_linear_2931_8902)"/>
</g>
<path opacity="0.2" d="M1062.72 200.504V416.987C1062.72 418.551 1063.56 419.995 1064.91 420.776L1203.28 500.438M1062.72 200.504L1203.28 284.451M1062.72 200.504L1079.95 190.663M1203.28 500.438V284.451M1203.28 500.438L1220.21 490.742M1521.02 102.567V314.988C1521.02 316.442 1520.3 317.801 1519.09 318.614L1508.8 325.549M1521.02 102.567L1383.31 19.9375C1381.95 19.124 1380.26 19.1059 1378.89 19.8903L1368.87 25.6159M1521.02 102.567L1508.8 109.562M1203.28 284.451L1220.21 274.755M1220.21 274.755V490.742M1220.21 274.755L1239.94 263.464M1220.21 274.755L1079.95 190.663M1220.21 490.742L1239.94 479.451M1239.94 263.464V479.451M1239.94 263.464L1258.02 253.112M1239.94 263.464L1099.46 179.518M1239.94 479.451L1258.02 469.099M1258.02 253.112V469.099M1258.02 253.112L1276.18 242.72M1258.02 253.112L1117.66 169.119M1258.02 469.099L1276.18 458.707M1276.18 242.72V458.707M1276.18 242.72L1294.65 232.149M1276.18 242.72L1136.2 158.531M1276.18 458.707L1294.65 448.136M1294.65 232.149V448.136M1294.65 232.149L1313.27 221.491M1294.65 232.149L1153.19 148.823M1294.65 448.136L1313.27 437.478M1313.27 221.491V437.478M1313.27 221.491L1332.14 210.685M1313.27 221.491L1171.25 138.509M1313.27 437.478L1332.14 426.672M1332.14 210.685V426.672M1332.14 210.685L1349.93 200.504M1332.14 210.685L1188.66 128.563M1332.14 426.672L1349.93 416.491M1349.93 200.504V416.491M1349.93 200.504L1367.12 190.663M1349.93 200.504L1206.22 118.528M1349.93 416.491L1367.12 406.65M1367.12 190.663V406.65M1367.12 190.663L1386.59 179.518M1367.12 190.663L1221.92 109.562M1367.12 406.65L1386.59 395.505M1386.59 179.518V395.505M1386.59 179.518L1404.76 169.119M1386.59 179.518L1241.2 98.5461M1386.59 395.505L1404.76 385.106M1404.76 169.119V385.106M1404.76 169.119L1423.25 158.531M1404.76 169.119L1262.19 86.5573M1404.76 385.106L1423.25 374.518M1423.25 158.531V374.518M1423.25 158.531L1444.07 146.615M1423.25 158.531L1279.92 76.4294M1423.25 374.518L1444.07 362.602M1444.07 146.615V362.602M1444.07 146.615L1462.38 136.136M1444.07 146.615L1301.05 64.3578M1444.07 362.602L1462.38 352.124M1462.38 136.136V352.124M1462.38 136.136L1479.05 126.593M1462.38 136.136L1319.88 53.598M1462.38 352.124L1479.05 342.58M1479.05 126.593V342.58M1479.05 126.593L1496.58 116.558M1479.05 126.593L1339.14 42.5981M1479.05 342.58L1496.58 332.545M1496.58 116.558V332.545M1496.58 116.558L1508.8 109.562M1496.58 116.558L1356.62 32.6114M1496.58 332.545L1508.8 325.549M1508.8 109.562V325.549M1508.8 109.562L1368.87 25.6159M1079.95 190.663L1099.46 179.518M1099.46 179.518L1117.66 169.119M1117.66 169.119L1136.2 158.531M1136.2 158.531L1153.19 148.823M1153.19 148.823L1171.25 138.509M1171.25 138.509L1188.66 128.563M1188.66 128.563L1206.22 118.528M1206.22 118.528L1221.92 109.562M1221.92 109.562L1241.2 98.5461M1241.2 98.5461L1262.19 86.5573M1262.19 86.5573L1279.92 76.4294M1279.92 76.4294L1301.05 64.3578M1301.05 64.3578L1319.88 53.598M1319.88 53.598L1339.14 42.5981M1339.14 42.5981L1356.62 32.6114M1356.62 32.6114L1368.87 25.6159" stroke="white" stroke-width="0.874442" stroke-dasharray="4.37 4.37"/>
<path d="M1537.55 98.523L1536.37 102.779L1534.23 102.186L1535.42 97.9302C1535.79 96.6118 1535.04 95.2533 1533.76 94.8959L1529.62 93.7448L1530.23 91.5578L1534.37 92.7089C1536.83 93.3937 1538.25 95.9968 1537.55 98.523Z" fill="#E1FF03" stroke="#E1FF03" stroke-width="0.874442"/>
<path d="M1200.33 513.079L1197.2 509.955L1198.77 508.391L1201.89 511.515C1202.86 512.483 1204.41 512.503 1205.35 511.56L1208.38 508.524L1209.99 510.13L1206.95 513.166C1205.15 514.972 1202.18 514.933 1200.33 513.079Z" fill="#E1FF03" stroke="#E1FF03" stroke-width="0.874442"/>
<path d="M1527.02 328.934L1522.6 328.934L1522.6 326.723L1527.02 326.723C1528.38 326.723 1529.49 325.642 1529.49 324.309L1529.49 320.016L1531.76 320.016L1531.76 324.309C1531.76 326.864 1529.64 328.934 1527.02 328.934Z" fill="#E1FF03" stroke="#E1FF03" stroke-width="0.874442"/>
<path d="M1386.04 3.81743L1389.12 6.90027L1387.58 8.44331L1384.5 5.36047C1383.54 4.40551 1382.01 4.38543 1381.08 5.31561L1378.09 8.31174L1376.5 6.7276L1379.5 3.73147C1381.28 1.94909 1384.21 1.98757 1386.04 3.81743Z" fill="#E1FF03" stroke="#E1FF03" stroke-width="0.862957"/>
<g opacity="0.2" filter="url(#filter0_f_2931_8902)">
<path d="M1214.37 548.064L1059.32 414.078L1369.14 233.843L1725.24 384.099L1214.37 548.064Z" fill="url(#paint39_linear_2931_8902)"/>
</g>
<path d="M1055.53 190.653L1059.8 189.51L1060.37 191.646L1056.1 192.789C1054.78 193.143 1053.99 194.474 1054.33 195.762L1055.45 199.909L1053.25 200.497L1052.14 196.349C1051.48 193.882 1053 191.332 1055.53 190.653Z" fill="#E1FF03" stroke="#E1FF03" stroke-width="0.874442"/>
<path d="M1052.06 427.947V423.529H1054.28V427.947C1054.28 429.316 1055.36 430.425 1056.69 430.425H1060.98V432.695H1056.69C1054.14 432.695 1052.06 430.569 1052.06 427.947Z" fill="#E1FF03" stroke="#E1FF03" stroke-width="0.874442"/>
<g opacity="0.2">
<path d="M1207.83 301.149V485.59L1223.78 476.461V292.02L1207.83 301.149Z" fill="url(#paint40_linear_2931_8902)"/>
<path d="M1223.78 292.02V476.461L1242.36 465.829V281.388L1223.78 292.02Z" fill="url(#paint41_linear_2931_8902)"/>
<path d="M1242.36 281.388V465.829L1259.39 456.081V271.64L1242.36 281.388Z" fill="url(#paint42_linear_2931_8902)"/>
<path d="M1259.39 271.64V456.081L1276.48 446.296V261.855L1259.39 271.64Z" fill="url(#paint43_linear_2931_8902)"/>
<path d="M1276.48 261.855V446.296L1293.87 436.342V251.9L1276.48 261.855Z" fill="url(#paint44_linear_2931_8902)"/>
<path d="M1293.87 251.9V436.342L1311.4 426.306V241.865L1293.87 251.9Z" fill="url(#paint45_linear_2931_8902)"/>
<path d="M1311.4 241.865V426.306L1329.18 416.131V231.69L1311.4 241.865Z" fill="url(#paint46_linear_2931_8902)"/>
<path d="M1329.18 231.69V416.131L1345.92 406.544V222.103L1329.18 231.69Z" fill="url(#paint47_linear_2931_8902)"/>
<path d="M1345.92 222.103V406.544L1362.11 397.278V212.837L1345.92 222.103Z" fill="url(#paint48_linear_2931_8902)"/>
<path d="M1362.11 212.837V397.278L1380.45 386.783V202.342L1362.11 212.837Z" fill="url(#paint49_linear_2931_8902)"/>
<path d="M1380.45 202.342V386.783L1397.55 376.991V192.55L1380.45 202.342Z" fill="url(#paint50_linear_2931_8902)"/>
<path d="M1397.55 192.55V376.991L1414.97 367.021V182.58L1397.55 192.55Z" fill="url(#paint51_linear_2931_8902)"/>
<path d="M1414.97 182.58V367.021L1434.57 355.801V171.36L1414.97 182.58Z" fill="url(#paint52_linear_2931_8902)"/>
<path d="M1434.57 171.36V355.801L1451.81 345.934V161.493L1434.57 171.36Z" fill="url(#paint53_linear_2931_8902)"/>
<path d="M1451.81 161.493V345.934L1467.51 336.948V152.506L1451.81 161.493Z" fill="url(#paint54_linear_2931_8902)"/>
<path d="M1467.51 152.506V336.948L1484.02 327.498V143.057L1467.51 152.506Z" fill="url(#paint55_linear_2931_8902)"/>
<path d="M1484.02 143.057V327.498L1495.52 320.911V136.47L1484.02 143.057Z" fill="url(#paint56_linear_2931_8902)"/>
<path d="M1504.83 315.583C1506.19 314.804 1507.03 313.356 1507.03 311.789V129.883L1495.52 136.47V320.911L1504.83 315.583Z" fill="url(#paint57_linear_2931_8902)"/>
</g>
<path opacity="0.21" fill-rule="evenodd" clip-rule="evenodd" d="M1079.95 190.587L1062.72 200.428L1203.28 284.374L1220.21 274.679L1239.94 263.388L1258.02 253.036L1276.18 242.644L1294.65 232.072L1313.27 221.414L1332.14 210.609L1349.93 200.428L1367.12 190.587L1386.59 179.441L1404.76 169.043L1423.25 158.455L1444.07 146.539L1462.38 136.06L1479.05 126.517L1496.58 116.481L1508.8 109.486L1521.02 102.49L1383.31 19.8611C1381.95 19.0476 1380.26 19.0295 1378.89 19.8138L1368.87 25.5395L1356.62 32.535L1339.14 42.5217L1319.88 53.5216L1301.05 64.2814L1279.92 76.3529L1262.19 86.4809L1241.2 98.4697L1221.92 109.486L1206.22 118.451L1188.66 128.486L1171.25 138.433L1153.19 148.746L1136.2 158.455L1117.66 169.043L1099.46 179.441L1079.95 190.587Z" fill="url(#paint58_linear_2931_8902)"/>
<path opacity="0.2" fill-rule="evenodd" clip-rule="evenodd" d="M1092.32 199.343L1076.1 208.609L1208.45 287.655L1224.4 278.526L1242.97 267.894L1260 258.146L1277.09 248.361L1294.48 238.407L1312.02 228.371L1329.79 218.196L1346.54 208.609L1362.73 199.343L1381.06 188.848L1398.17 179.056L1415.58 169.086L1435.19 157.866L1452.42 147.999L1468.12 139.013L1484.63 129.563L1496.14 122.976L1507.65 116.389L1378.1 38.6598C1376.74 37.8462 1375.05 37.8282 1373.68 38.6125L1364.37 43.9298L1352.84 50.5169L1336.38 59.9207L1318.25 70.2785L1300.51 80.4102L1280.61 91.7771L1263.92 101.314L1244.16 112.603L1226 122.976L1211.22 131.418L1194.68 140.867L1178.29 150.233L1161.29 159.945L1145.28 169.086L1127.83 179.056L1110.69 188.848L1092.32 199.343Z" fill="url(#paint59_linear_2931_8902)"/>
<path d="M1490.59 489.702C1488.58 489.694 1486.86 489.164 1485.44 488.113C1484.02 487.063 1482.93 485.533 1482.17 483.525C1481.42 481.517 1481.04 479.098 1481.04 476.268C1481.04 473.446 1481.42 471.035 1482.17 469.036C1482.94 467.036 1484.03 465.511 1485.45 464.46C1486.88 463.409 1488.6 462.884 1490.59 462.884C1492.58 462.884 1494.29 463.414 1495.71 464.473C1497.13 465.524 1498.22 467.049 1498.98 469.048C1499.74 471.04 1500.12 473.446 1500.12 476.268C1500.12 479.106 1499.74 481.53 1498.99 483.538C1498.23 485.537 1497.15 487.067 1495.72 488.126C1494.3 489.177 1492.59 489.702 1490.59 489.702ZM1490.59 486.308C1492.35 486.308 1493.73 485.448 1494.72 483.728C1495.72 482.008 1496.22 479.521 1496.22 476.268C1496.22 474.107 1495.99 472.281 1495.53 470.79C1495.08 469.29 1494.43 468.155 1493.59 467.383C1492.75 466.604 1491.75 466.214 1490.59 466.214C1488.83 466.214 1487.46 467.078 1486.46 468.807C1485.46 470.535 1484.95 473.022 1484.94 476.268C1484.94 478.437 1485.17 480.271 1485.62 481.771C1486.08 483.262 1486.72 484.394 1487.56 485.165C1488.4 485.927 1489.41 486.308 1490.59 486.308ZM1518.22 484.389V483.017C1518.22 482.034 1518.42 481.136 1518.83 480.322C1519.24 479.5 1519.84 478.844 1520.63 478.352C1521.43 477.852 1522.39 477.602 1523.52 477.602C1524.67 477.602 1525.63 477.848 1526.41 478.339C1527.19 478.831 1527.78 479.488 1528.18 480.309C1528.59 481.131 1528.79 482.034 1528.79 483.017V484.389C1528.79 485.372 1528.59 486.275 1528.18 487.097C1527.77 487.91 1527.18 488.567 1526.39 489.067C1525.61 489.558 1524.65 489.804 1523.52 489.804C1522.37 489.804 1521.41 489.558 1520.62 489.067C1519.83 488.567 1519.23 487.91 1518.83 487.097C1518.42 486.275 1518.22 485.372 1518.22 484.389ZM1521.18 483.017V484.389C1521.18 485.118 1521.35 485.779 1521.7 486.372C1522.05 486.965 1522.65 487.262 1523.52 487.262C1524.37 487.262 1524.97 486.965 1525.31 486.372C1525.65 485.779 1525.82 485.118 1525.82 484.389V483.017C1525.82 482.288 1525.65 481.627 1525.32 481.034C1525 480.441 1524.4 480.144 1523.52 480.144C1522.67 480.144 1522.07 480.441 1521.71 481.034C1521.35 481.627 1521.18 482.288 1521.18 483.017ZM1505.12 469.493V468.121C1505.12 467.138 1505.33 466.235 1505.73 465.413C1506.15 464.591 1506.75 463.935 1507.54 463.443C1508.34 462.952 1509.3 462.706 1510.42 462.706C1511.58 462.706 1512.54 462.952 1513.32 463.443C1514.1 463.935 1514.69 464.591 1515.09 465.413C1515.49 466.235 1515.69 467.138 1515.69 468.121V469.493C1515.69 470.476 1515.48 471.379 1515.08 472.2C1514.68 473.014 1514.08 473.671 1513.3 474.171C1512.52 474.662 1511.56 474.908 1510.42 474.908C1509.27 474.908 1508.3 474.662 1507.51 474.171C1506.73 473.671 1506.14 473.014 1505.73 472.2C1505.33 471.379 1505.12 470.476 1505.12 469.493ZM1508.1 468.121V469.493C1508.1 470.222 1508.27 470.883 1508.61 471.476C1508.95 472.069 1509.56 472.366 1510.42 472.366C1511.27 472.366 1511.86 472.069 1512.2 471.476C1512.55 470.883 1512.72 470.222 1512.72 469.493V468.121C1512.72 467.392 1512.56 466.731 1512.23 466.138C1511.9 465.545 1511.3 465.248 1510.42 465.248C1509.58 465.248 1508.98 465.545 1508.62 466.138C1508.27 466.731 1508.1 467.392 1508.1 468.121ZM1506.33 489.27L1524.23 463.24H1527.27L1509.37 489.27H1506.33Z" fill="white"/>
<defs>
<filter id="filter0_f_2931_8902" x="1033.08" y="207.61" width="718.394" height="366.687" filterUnits="userSpaceOnUse" color-interpolation-filters="sRGB">
<feFlood flood-opacity="0" result="BackgroundImageFix"/>
<feBlend mode="normal" in="SourceGraphic" in2="BackgroundImageFix" result="shape"/>
<feGaussianBlur stdDeviation="13.1166" result="effect1_foregroundBlur_2931_8902"/>
</filter>
<linearGradient id="paint0_linear_2931_8902" x1="1085.58" y1="285.835" x2="1216.17" y2="178.855" gradientUnits="userSpaceOnUse">
<stop offset="0.0647033" stop-color="#CECECE" stop-opacity="0.21"/>
<stop offset="1" stop-color="#CECECE" stop-opacity="0"/>
</linearGradient>
<linearGradient id="paint1_linear_2931_8902" x1="1046.4" y1="482.629" x2="1178.49" y2="320.102" gradientUnits="userSpaceOnUse">
<stop stop-color="#CECECE"/>
<stop offset="1" stop-color="#CECECE" stop-opacity="0"/>
</linearGradient>
<linearGradient id="paint2_linear_2931_8902" x1="1024.88" y1="418.274" x2="1129.53" y2="377.017" gradientUnits="userSpaceOnUse">
<stop stop-color="#CECECE"/>
<stop offset="1" stop-color="#CECECE" stop-opacity="0"/>
</linearGradient>
<linearGradient id="paint3_linear_2931_8902" x1="1433.84" y1="200.681" x2="1490.32" y2="344.462" gradientUnits="userSpaceOnUse">
<stop stop-color="#626262"/>
<stop offset="1" stop-color="#CECECE" stop-opacity="0"/>
</linearGradient>
<linearGradient id="paint4_linear_2931_8902" x1="1433.84" y1="200.681" x2="1490.32" y2="344.462" gradientUnits="userSpaceOnUse">
<stop stop-color="#626262"/>
<stop offset="1" stop-color="#CECECE" stop-opacity="0"/>
</linearGradient>
<linearGradient id="paint5_linear_2931_8902" x1="1433.84" y1="200.681" x2="1490.32" y2="344.462" gradientUnits="userSpaceOnUse">
<stop stop-color="#626262"/>
<stop offset="1" stop-color="#CECECE" stop-opacity="0"/>
</linearGradient>
<linearGradient id="paint6_linear_2931_8902" x1="1433.84" y1="200.681" x2="1490.32" y2="344.462" gradientUnits="userSpaceOnUse">
<stop stop-color="#626262"/>
<stop offset="1" stop-color="#CECECE" stop-opacity="0"/>
</linearGradient>
<linearGradient id="paint7_linear_2931_8902" x1="1433.84" y1="200.681" x2="1490.32" y2="344.462" gradientUnits="userSpaceOnUse">
<stop stop-color="#626262"/>
<stop offset="1" stop-color="#CECECE" stop-opacity="0"/>
</linearGradient>
<linearGradient id="paint8_linear_2931_8902" x1="1433.84" y1="200.681" x2="1490.32" y2="344.462" gradientUnits="userSpaceOnUse">
<stop stop-color="#626262"/>
<stop offset="1" stop-color="#CECECE" stop-opacity="0"/>
</linearGradient>
<linearGradient id="paint9_linear_2931_8902" x1="1433.84" y1="200.681" x2="1490.32" y2="344.462" gradientUnits="userSpaceOnUse">
<stop stop-color="#626262"/>
<stop offset="1" stop-color="#CECECE" stop-opacity="0"/>
</linearGradient>
<linearGradient id="paint10_linear_2931_8902" x1="1433.84" y1="200.681" x2="1490.32" y2="344.462" gradientUnits="userSpaceOnUse">
<stop stop-color="#626262"/>
<stop offset="1" stop-color="#CECECE" stop-opacity="0"/>
</linearGradient>
<linearGradient id="paint11_linear_2931_8902" x1="1433.84" y1="200.681" x2="1490.32" y2="344.462" gradientUnits="userSpaceOnUse">
<stop stop-color="#626262"/>
<stop offset="1" stop-color="#CECECE" stop-opacity="0"/>
</linearGradient>
<linearGradient id="paint12_linear_2931_8902" x1="1433.84" y1="200.681" x2="1490.32" y2="344.462" gradientUnits="userSpaceOnUse">
<stop stop-color="#626262"/>
<stop offset="1" stop-color="#CECECE" stop-opacity="0"/>
</linearGradient>
<linearGradient id="paint13_linear_2931_8902" x1="1433.84" y1="200.681" x2="1490.32" y2="344.462" gradientUnits="userSpaceOnUse">
<stop stop-color="#626262"/>
<stop offset="1" stop-color="#CECECE" stop-opacity="0"/>
</linearGradient>
<linearGradient id="paint14_linear_2931_8902" x1="1433.84" y1="200.681" x2="1490.32" y2="344.462" gradientUnits="userSpaceOnUse">
<stop stop-color="#626262"/>
<stop offset="1" stop-color="#CECECE" stop-opacity="0"/>
</linearGradient>
<linearGradient id="paint15_linear_2931_8902" x1="1433.84" y1="200.681" x2="1490.32" y2="344.462" gradientUnits="userSpaceOnUse">
<stop stop-color="#626262"/>
<stop offset="1" stop-color="#CECECE" stop-opacity="0"/>
</linearGradient>
<linearGradient id="paint16_linear_2931_8902" x1="1433.84" y1="200.681" x2="1490.32" y2="344.462" gradientUnits="userSpaceOnUse">
<stop stop-color="#626262"/>
<stop offset="1" stop-color="#CECECE" stop-opacity="0"/>
</linearGradient>
<linearGradient id="paint17_linear_2931_8902" x1="1433.84" y1="200.681" x2="1490.32" y2="344.462" gradientUnits="userSpaceOnUse">
<stop stop-color="#626262"/>
<stop offset="1" stop-color="#CECECE" stop-opacity="0"/>
</linearGradient>
<linearGradient id="paint18_linear_2931_8902" x1="1433.84" y1="200.681" x2="1490.32" y2="344.462" gradientUnits="userSpaceOnUse">
<stop stop-color="#626262"/>
<stop offset="1" stop-color="#CECECE" stop-opacity="0"/>
</linearGradient>
<linearGradient id="paint19_linear_2931_8902" x1="1433.84" y1="200.681" x2="1490.32" y2="344.462" gradientUnits="userSpaceOnUse">
<stop stop-color="#626262"/>
<stop offset="1" stop-color="#CECECE" stop-opacity="0"/>
</linearGradient>
<linearGradient id="paint20_linear_2931_8902" x1="1433.84" y1="200.681" x2="1490.32" y2="344.462" gradientUnits="userSpaceOnUse">
<stop stop-color="#626262"/>
<stop offset="1" stop-color="#CECECE" stop-opacity="0"/>
</linearGradient>
<linearGradient id="paint21_linear_2931_8902" x1="1487.3" y1="227.837" x2="1471.61" y2="325.225" gradientUnits="userSpaceOnUse">
<stop stop-color="#626262"/>
<stop offset="1" stop-color="#CECECE" stop-opacity="0"/>
</linearGradient>
<linearGradient id="paint22_linear_2931_8902" x1="1487.3" y1="227.837" x2="1471.61" y2="325.225" gradientUnits="userSpaceOnUse">
<stop stop-color="#626262"/>
<stop offset="1" stop-color="#CECECE" stop-opacity="0"/>
</linearGradient>
<linearGradient id="paint23_linear_2931_8902" x1="1487.3" y1="227.837" x2="1471.61" y2="325.225" gradientUnits="userSpaceOnUse">
<stop stop-color="#626262"/>
<stop offset="1" stop-color="#CECECE" stop-opacity="0"/>
</linearGradient>
<linearGradient id="paint24_linear_2931_8902" x1="1487.3" y1="227.837" x2="1471.61" y2="325.225" gradientUnits="userSpaceOnUse">
<stop stop-color="#626262"/>
<stop offset="1" stop-color="#CECECE" stop-opacity="0"/>
</linearGradient>
<linearGradient id="paint25_linear_2931_8902" x1="1487.3" y1="227.837" x2="1471.61" y2="325.225" gradientUnits="userSpaceOnUse">
<stop stop-color="#626262"/>
<stop offset="1" stop-color="#CECECE" stop-opacity="0"/>
</linearGradient>
<linearGradient id="paint26_linear_2931_8902" x1="1487.3" y1="227.837" x2="1471.61" y2="325.225" gradientUnits="userSpaceOnUse">
<stop stop-color="#626262"/>
<stop offset="1" stop-color="#CECECE" stop-opacity="0"/>
</linearGradient>
<linearGradient id="paint27_linear_2931_8902" x1="1487.3" y1="227.837" x2="1471.61" y2="325.225" gradientUnits="userSpaceOnUse">
<stop stop-color="#626262"/>
<stop offset="1" stop-color="#CECECE" stop-opacity="0"/>
</linearGradient>
<linearGradient id="paint28_linear_2931_8902" x1="1487.3" y1="227.837" x2="1471.61" y2="325.225" gradientUnits="userSpaceOnUse">
<stop stop-color="#626262"/>
<stop offset="1" stop-color="#CECECE" stop-opacity="0"/>
</linearGradient>
<linearGradient id="paint29_linear_2931_8902" x1="1487.3" y1="227.837" x2="1471.61" y2="325.225" gradientUnits="userSpaceOnUse">
<stop stop-color="#626262"/>
<stop offset="1" stop-color="#CECECE" stop-opacity="0"/>
</linearGradient>
<linearGradient id="paint30_linear_2931_8902" x1="1487.3" y1="227.837" x2="1471.61" y2="325.225" gradientUnits="userSpaceOnUse">
<stop stop-color="#626262"/>
<stop offset="1" stop-color="#CECECE" stop-opacity="0"/>
</linearGradient>
<linearGradient id="paint31_linear_2931_8902" x1="1487.3" y1="227.837" x2="1471.61" y2="325.225" gradientUnits="userSpaceOnUse">
<stop stop-color="#626262"/>
<stop offset="1" stop-color="#CECECE" stop-opacity="0"/>
</linearGradient>
<linearGradient id="paint32_linear_2931_8902" x1="1487.3" y1="227.837" x2="1471.61" y2="325.225" gradientUnits="userSpaceOnUse">
<stop stop-color="#626262"/>
<stop offset="1" stop-color="#CECECE" stop-opacity="0"/>
</linearGradient>
<linearGradient id="paint33_linear_2931_8902" x1="1487.3" y1="227.837" x2="1471.61" y2="325.225" gradientUnits="userSpaceOnUse">
<stop stop-color="#626262"/>
<stop offset="1" stop-color="#CECECE" stop-opacity="0"/>
</linearGradient>
<linearGradient id="paint34_linear_2931_8902" x1="1487.3" y1="227.837" x2="1471.61" y2="325.225" gradientUnits="userSpaceOnUse">
<stop stop-color="#626262"/>
<stop offset="1" stop-color="#CECECE" stop-opacity="0"/>
</linearGradient>
<linearGradient id="paint35_linear_2931_8902" x1="1487.3" y1="227.837" x2="1471.61" y2="325.225" gradientUnits="userSpaceOnUse">
<stop stop-color="#626262"/>
<stop offset="1" stop-color="#CECECE" stop-opacity="0"/>
</linearGradient>
<linearGradient id="paint36_linear_2931_8902" x1="1487.3" y1="227.837" x2="1471.61" y2="325.225" gradientUnits="userSpaceOnUse">
<stop stop-color="#626262"/>
<stop offset="1" stop-color="#CECECE" stop-opacity="0"/>
</linearGradient>
<linearGradient id="paint37_linear_2931_8902" x1="1487.3" y1="227.837" x2="1471.61" y2="325.225" gradientUnits="userSpaceOnUse">
<stop stop-color="#626262"/>
<stop offset="1" stop-color="#CECECE" stop-opacity="0"/>
</linearGradient>
<linearGradient id="paint38_linear_2931_8902" x1="1487.3" y1="227.837" x2="1471.61" y2="325.225" gradientUnits="userSpaceOnUse">
<stop stop-color="#626262"/>
<stop offset="1" stop-color="#CECECE" stop-opacity="0"/>
</linearGradient>
<linearGradient id="paint39_linear_2931_8902" x1="1249.92" y1="270.182" x2="1406.73" y2="514.948" gradientUnits="userSpaceOnUse">
<stop stop-color="white"/>
<stop offset="1" stop-color="white" stop-opacity="0"/>
</linearGradient>
<linearGradient id="paint40_linear_2931_8902" x1="1337.44" y1="158.749" x2="1378.41" y2="252.253" gradientUnits="userSpaceOnUse">
<stop stop-color="white"/>
<stop offset="1" stop-color="#CECECE" stop-opacity="0"/>
</linearGradient>
<linearGradient id="paint41_linear_2931_8902" x1="1337.44" y1="158.749" x2="1378.41" y2="252.253" gradientUnits="userSpaceOnUse">
<stop stop-color="white"/>
<stop offset="1" stop-color="#CECECE" stop-opacity="0"/>
</linearGradient>
<linearGradient id="paint42_linear_2931_8902" x1="1337.44" y1="158.749" x2="1378.41" y2="252.253" gradientUnits="userSpaceOnUse">
<stop stop-color="white"/>
<stop offset="1" stop-color="#CECECE" stop-opacity="0"/>
</linearGradient>
<linearGradient id="paint43_linear_2931_8902" x1="1337.44" y1="158.749" x2="1378.41" y2="252.253" gradientUnits="userSpaceOnUse">
<stop stop-color="white"/>
<stop offset="1" stop-color="#CECECE" stop-opacity="0"/>
</linearGradient>
<linearGradient id="paint44_linear_2931_8902" x1="1337.44" y1="158.749" x2="1378.41" y2="252.253" gradientUnits="userSpaceOnUse">
<stop stop-color="white"/>
<stop offset="1" stop-color="#CECECE" stop-opacity="0"/>
</linearGradient>
<linearGradient id="paint45_linear_2931_8902" x1="1337.44" y1="158.749" x2="1378.41" y2="252.253" gradientUnits="userSpaceOnUse">
<stop stop-color="white"/>
<stop offset="1" stop-color="#CECECE" stop-opacity="0"/>
</linearGradient>
<linearGradient id="paint46_linear_2931_8902" x1="1337.44" y1="158.749" x2="1378.41" y2="252.253" gradientUnits="userSpaceOnUse">
<stop stop-color="white"/>
<stop offset="1" stop-color="#CECECE" stop-opacity="0"/>
</linearGradient>
<linearGradient id="paint47_linear_2931_8902" x1="1337.44" y1="158.749" x2="1378.41" y2="252.253" gradientUnits="userSpaceOnUse">
<stop stop-color="white"/>
<stop offset="1" stop-color="#CECECE" stop-opacity="0"/>
</linearGradient>
<linearGradient id="paint48_linear_2931_8902" x1="1337.44" y1="158.749" x2="1378.41" y2="252.253" gradientUnits="userSpaceOnUse">
<stop stop-color="white"/>
<stop offset="1" stop-color="#CECECE" stop-opacity="0"/>
</linearGradient>
<linearGradient id="paint49_linear_2931_8902" x1="1337.44" y1="158.749" x2="1378.41" y2="252.253" gradientUnits="userSpaceOnUse">
<stop stop-color="white"/>
<stop offset="1" stop-color="#CECECE" stop-opacity="0"/>
</linearGradient>
<linearGradient id="paint50_linear_2931_8902" x1="1337.44" y1="158.749" x2="1378.41" y2="252.253" gradientUnits="userSpaceOnUse">
<stop stop-color="white"/>
<stop offset="1" stop-color="#CECECE" stop-opacity="0"/>
</linearGradient>
<linearGradient id="paint51_linear_2931_8902" x1="1337.44" y1="158.749" x2="1378.41" y2="252.253" gradientUnits="userSpaceOnUse">
<stop stop-color="white"/>
<stop offset="1" stop-color="#CECECE" stop-opacity="0"/>
</linearGradient>
<linearGradient id="paint52_linear_2931_8902" x1="1337.44" y1="158.749" x2="1378.41" y2="252.253" gradientUnits="userSpaceOnUse">
<stop stop-color="white"/>
<stop offset="1" stop-color="#CECECE" stop-opacity="0"/>
</linearGradient>
<linearGradient id="paint53_linear_2931_8902" x1="1337.44" y1="158.749" x2="1378.41" y2="252.253" gradientUnits="userSpaceOnUse">
<stop stop-color="white"/>
<stop offset="1" stop-color="#CECECE" stop-opacity="0"/>
</linearGradient>
<linearGradient id="paint54_linear_2931_8902" x1="1337.44" y1="158.749" x2="1378.41" y2="252.253" gradientUnits="userSpaceOnUse">
<stop stop-color="white"/>
<stop offset="1" stop-color="#CECECE" stop-opacity="0"/>
</linearGradient>
<linearGradient id="paint55_linear_2931_8902" x1="1337.44" y1="158.749" x2="1378.41" y2="252.253" gradientUnits="userSpaceOnUse">
<stop stop-color="white"/>
<stop offset="1" stop-color="#CECECE" stop-opacity="0"/>
</linearGradient>
<linearGradient id="paint56_linear_2931_8902" x1="1337.44" y1="158.749" x2="1378.41" y2="252.253" gradientUnits="userSpaceOnUse">
<stop stop-color="white"/>
<stop offset="1" stop-color="#CECECE" stop-opacity="0"/>
</linearGradient>
<linearGradient id="paint57_linear_2931_8902" x1="1337.44" y1="158.749" x2="1378.41" y2="252.253" gradientUnits="userSpaceOnUse">
<stop stop-color="white"/>
<stop offset="1" stop-color="#CECECE" stop-opacity="0"/>
</linearGradient>
<linearGradient id="paint58_linear_2931_8902" x1="1062.72" y1="171.417" x2="1223.97" y2="175.387" gradientUnits="userSpaceOnUse">
<stop offset="0.0647033" stop-color="#CECECE"/>
<stop offset="1" stop-color="#CECECE" stop-opacity="0"/>
</linearGradient>
<linearGradient id="paint59_linear_2931_8902" x1="1132.66" y1="133.307" x2="1348.24" y2="144.179" gradientUnits="userSpaceOnUse">
<stop stop-color="#CECECE" stop-opacity="0.47"/>
<stop offset="1" stop-color="#CECECE" stop-opacity="0"/>
</linearGradient>
</defs>
</svg>
