<svg xmlns="http://www.w3.org/2000/svg" xmlns:xlink="http://www.w3.org/1999/xlink" aria-hidden="true" style="position: absolute; width: 0; height: 0; overflow: hidden;" version="1.1">
<defs>
<symbol id="icon-phone" viewBox="0 0 32 32">
<path d="M28.444 15.956c0-3.457-1.208-6.389-3.623-8.797s-5.356-3.612-8.821-3.613v-3.546c2.222 0 4.304 0.421 6.245 1.264s3.63 1.98 5.067 3.413 2.577 3.117 3.422 5.053c0.845 1.936 1.267 4.011 1.266 6.226h-3.556zM21.333 15.956c0-1.477-0.519-2.733-1.556-3.767s-2.296-1.551-3.778-1.551v-3.546c2.459 0 4.556 0.865 6.29 2.594s2.6 3.819 2.599 6.271h-3.555zM30.133 32c-3.822 0-7.549-0.842-11.179-2.526s-6.845-3.93-9.644-6.737c-2.799-2.807-5.051-6.021-6.756-9.641s-2.556-7.335-2.555-11.146v-0.931c0-0.325 0.030-0.635 0.089-0.931h10.4l1.644 8.909-5.067 5.097c1.244 2.127 2.808 4.122 4.69 5.983s3.948 3.472 6.199 4.831l5.156-5.141 8.889 1.773v10.371c-0.296 0.030-0.607 0.052-0.933 0.067s-0.637 0.022-0.933 0.021z"/>
</symbol>
<symbol id="icon-email" viewBox="0 0 44 32">
<path d="M4.431 32c-1.218 0-2.262-0.392-3.13-1.176s-1.302-1.725-1.3-2.824v-24c0-1.1 0.434-2.042 1.303-2.826s1.911-1.175 3.128-1.174h35.446c1.218 0 2.262 0.392 3.13 1.176s1.302 1.725 1.3 2.824v24c0 1.1-0.434 2.042-1.303 2.826s-1.911 1.175-3.128 1.174h-35.446zM22.154 18l17.723-10v-4l-17.723 10-17.723-10v4l17.723 10z"/>
</symbol>
<symbol id="icon-location" viewBox="0 0 24 32">
<path d="M12.235 16c0.841 0 1.562-0.314 2.161-0.941s0.899-1.38 0.898-2.259c0-0.88-0.3-1.634-0.899-2.261s-1.319-0.94-2.16-0.939c-0.841 0-1.562 0.314-2.161 0.941s-0.899 1.38-0.898 2.259c0 0.88 0.3 1.634 0.899 2.261s1.319 0.94 2.16 0.939zM12.235 32c-4.104-3.653-7.169-7.046-9.195-10.179s-3.039-6.033-3.040-8.701c0-4 1.23-7.187 3.69-9.56s5.309-3.56 8.545-3.56c3.237 0 6.086 1.187 8.546 3.56s3.69 5.56 3.689 9.56c0 2.667-1.013 5.567-3.041 8.701s-5.092 6.527-9.195 10.179z"/>
</symbol>
<symbol id="icon-cross" viewBox="7 6 22 22">
<path d="M10.998 26.352l-2.017-1.882 8.067-7.529-8.067-7.529 2.017-1.882 8.067 7.529 8.067-7.529 2.017 1.882-8.067 7.529 8.067 7.529-2.017 1.882-8.067-7.529-8.067 7.529z"/>
</symbol>
<symbol id="icon-facebook" viewBox="2 0 21 30">
<path fill="#fff" style="fill: var(--color1, #fff)" d="M6.315 32h7.522v-14.6h6.29l0.95-5.68h-7.239v-3.64c0-1.64 0.59-2.76 3.62-2.76h3.876v-5.1c-0.668-0.060-2.952-0.22-5.622-0.22-5.596 0-9.396 2.66-9.396 7.52v4.2h-6.315v5.68h6.315v14.6z"/>
</symbol>
<symbol id="icon-whatsapp" viewBox="1 0 31 31">
<path fill="#fff" style="fill: var(--color1, #fff)" d="M27.337 4.656c-1.474-1.482-3.23-2.657-5.166-3.456s-4.011-1.207-6.107-1.2c-8.78 0-15.936 7.12-15.936 15.856 0 2.8 0.74 5.52 2.123 7.92l-2.251 8.224 8.442-2.208c2.332 1.264 4.953 1.936 7.622 1.936 8.78 0 15.936-7.12 15.936-15.856 0-4.24-1.656-8.224-4.663-11.216zM16.064 29.040c-2.38 0-4.712-0.64-6.754-1.84l-0.482-0.288-5.017 1.312 1.335-4.864-0.322-0.496c-1.322-2.101-2.024-4.529-2.026-7.008 0-7.264 5.95-13.184 13.25-13.184 3.538 0 6.866 1.376 9.359 3.872 1.234 1.222 2.212 2.676 2.877 4.277s1.004 3.318 0.998 5.050c0.032 7.264-5.918 13.168-13.218 13.168zM23.333 19.184c-0.402-0.192-2.364-1.152-2.718-1.296-0.37-0.128-0.627-0.192-0.901 0.192-0.273 0.4-1.029 1.296-1.254 1.552-0.225 0.272-0.466 0.304-0.868 0.096-0.402-0.192-1.688-0.624-3.2-1.968-1.19-1.056-1.978-2.352-2.219-2.752-0.225-0.4-0.032-0.608 0.177-0.816 0.177-0.176 0.402-0.464 0.595-0.688s0.273-0.4 0.402-0.656c0.129-0.272 0.064-0.496-0.032-0.688s-0.901-2.144-1.222-2.944c-0.322-0.768-0.659-0.672-0.9-0.688h-0.772c-0.273 0-0.691 0.096-1.061 0.496-0.354 0.4-1.383 1.36-1.383 3.312s1.431 3.84 1.624 4.096c0.193 0.272 2.814 4.272 6.802 5.984 0.949 0.416 1.688 0.656 2.267 0.832 0.949 0.304 1.817 0.256 2.509 0.16 0.772-0.112 2.364-0.96 2.685-1.888 0.338-0.928 0.338-1.712 0.225-1.888s-0.354-0.256-0.756-0.448z"/>
</symbol>
<symbol id="icon-telegram" viewBox="2 0 32 32">
<path fill="#fff" style="fill: var(--color1, #fff)" d="M29.179 0.179l-28.533 13.269c-0.927 0.362-0.824 1.93 0.103 2.292l7.211 2.654 2.884 10.615c0.206 0.844 1.133 1.086 1.648 0.482l4.223-4.584 8.035 6.876c0.618 0.483 1.442 0.121 1.648-0.724l5.562-27.986c0.309-2.051-1.236-3.619-2.781-2.895zM12.492 20.445l-0.927 6.273-2.060-8.685 20.086-15.44-17.099 17.853z"/>
</symbol>
<symbol id="icon-instagram" viewBox="0 0 32 32">
<path fill="#fff" style="fill: var(--color1, #fff)" d="M9.28 0h13.44c5.12 0 9.28 4.16 9.28 9.28v13.44c0 2.461-0.978 4.822-2.718 6.562s-4.101 2.718-6.562 2.718h-13.44c-5.12 0-9.28-4.16-9.28-9.28v-13.44c0-2.461 0.978-4.822 2.718-6.562s4.101-2.718 6.562-2.718zM8.96 3.2c-1.528 0-2.993 0.607-4.073 1.687s-1.687 2.545-1.687 4.073v14.080c0 3.184 2.576 5.76 5.76 5.76h14.080c1.528 0 2.993-0.607 4.073-1.687s1.687-2.545 1.687-4.073v-14.080c0-3.184-2.576-5.76-5.76-5.76h-14.080zM24.4 5.6c0.53 0 1.039 0.211 1.414 0.586s0.586 0.884 0.586 1.414c0 0.53-0.211 1.039-0.586 1.414s-0.884 0.586-1.414 0.586c-0.53 0-1.039-0.211-1.414-0.586s-0.586-0.884-0.586-1.414c0-0.53 0.211-1.039 0.586-1.414s0.884-0.586 1.414-0.586zM16 8c2.122 0 4.157 0.843 5.657 2.343s2.343 3.535 2.343 5.657c0 2.122-0.843 4.157-2.343 5.657s-3.535 2.343-5.657 2.343c-2.122 0-4.157-0.843-5.657-2.343s-2.343-3.535-2.343-5.657c0-2.122 0.843-4.157 2.343-5.657s3.535-2.343 5.657-2.343zM16 11.2c-1.273 0-2.494 0.506-3.394 1.406s-1.406 2.121-1.406 3.394c0 1.273 0.506 2.494 1.406 3.394s2.121 1.406 3.394 1.406c1.273 0 2.494-0.506 3.394-1.406s1.406-2.121 1.406-3.394c0-1.273-0.506-2.494-1.406-3.394s-2.121-1.406-3.394-1.406z"/>
</symbol>
<symbol id="icon-contract" viewBox="0 0 32 32">
<path d="M7.111 7.288h14.222v1.422h-14.222v-1.422zM7.111 14.4h7.188v1.422h-7.188v-1.422zM20.78 10.844h-13.669v1.422h12.248l1.421-1.422zM11.372 25.841c0.239 0.274 0.543 0.485 0.883 0.612s0.708 0.169 1.068 0.12h6.936c0.165 0 0.323-0.066 0.44-0.182s0.182-0.275 0.182-0.44-0.066-0.323-0.182-0.44c-0.117-0.117-0.275-0.182-0.44-0.182h-6.936c-0.81-0.014-0.666-0.717-0.552-0.935 0.148-0.256 0.264-0.529 0.344-0.813 0.053-0.229 0.028-0.469-0.071-0.682s-0.267-0.387-0.476-0.493c-0.336-0.152-0.713-0.189-1.073-0.106s-0.682 0.282-0.918 0.565c-0.306 0.316-0.731 0.798-1.138 1.268 0.252-0.986 0.578-2.251 0.898-3.484 0.092-0.281 0.073-0.587-0.051-0.855s-0.346-0.479-0.62-0.591c-0.303-0.104-0.635-0.089-0.928 0.042s-0.525 0.368-0.65 0.663c-0.384 0.739-3.424 5.833-3.454 5.884-0.042 0.070-0.070 0.148-0.081 0.229s-0.008 0.163 0.012 0.242 0.055 0.154 0.104 0.219c0.049 0.066 0.11 0.121 0.18 0.163 0.142 0.085 0.311 0.11 0.471 0.069s0.297-0.143 0.382-0.284c0.114-0.191 2.54-4.256 3.306-5.613-0.576 2.222-1.211 4.695-1.248 4.917-0.042 0.163-0.029 0.336 0.036 0.492s0.18 0.285 0.326 0.37c0.163 0.081 0.348 0.105 0.526 0.069s0.339-0.13 0.457-0.268c0.112-0.101 0.322-0.342 0.851-0.956 0.493-0.58 0.997-1.149 1.514-1.708 0.194-0.204 0.311-0.114 0.197 0.087-0.223 0.281-0.367 0.616-0.418 0.971s-0.009 0.717 0.124 1.050z"/>
<path d="M24.889 19.285v9.16h-21.333v-24.889h21.333v4.438l1.182-1.182c0.182-0.179 0.381-0.34 0.596-0.48v-3.665c0-0.236-0.094-0.462-0.26-0.629s-0.393-0.26-0.629-0.26h-23.111c-0.236 0-0.462 0.094-0.629 0.26s-0.26 0.393-0.26 0.629v26.667c0 0.236 0.094 0.462 0.26 0.629s0.393 0.26 0.629 0.26h23.111c0.236 0 0.462-0.094 0.629-0.26s0.26-0.393 0.26-0.629v-10.287c-0.545 0.289-1.176 0.373-1.778 0.238z"/>
<path d="M30.336 10.543l-0.465-0.465c0.238-0.314 0.358-0.701 0.34-1.095s-0.173-0.768-0.438-1.059c-0.344-0.303-0.794-0.458-1.252-0.431s-0.887 0.234-1.193 0.575l-11.133 11.132-0.744 2.793c-0.012 0.037-0.013 0.076-0.004 0.113s0.028 0.071 0.056 0.098c0.027 0.027 0.061 0.046 0.099 0.055s0.076 0.007 0.113-0.005l2.783-0.753 10.393-10.393 0.439 0.44c0.031 0.031 0.055 0.067 0.072 0.107s0.025 0.083 0.025 0.126c0 0.043-0.009 0.086-0.025 0.126s-0.041 0.076-0.072 0.107l-4.371 4.371c-0.133 0.133-0.208 0.314-0.208 0.503s0.075 0.369 0.209 0.503c0.133 0.133 0.314 0.208 0.503 0.208s0.369-0.075 0.503-0.209l4.371-4.371c0.329-0.329 0.513-0.774 0.513-1.239s-0.185-0.91-0.513-1.239v0.001z"/>
</symbol>
<symbol id="icon-customs" viewBox="0 2 24 20">
<path d="M18.133 3.2c-3.14 0-5.333 1.974-5.333 4.8 0 1.116 0.454 2.088 0.931 2.709l-1.394 2.091h1.53l2.092-0.506c0.056 0.023 0.109 0.046 0.16 0.068 0.576 0.245 1.030 0.439 2.015 0.439 3.14 0 5.333-1.974 5.333-4.8s-2.193-4.8-5.333-4.8zM18.133 11.733c-0.767 0-1.061-0.126-1.596-0.353-0.104-0.044-0.215-0.091-0.336-0.141l-0.161-0.066-1.604 0.401 0.651-0.976-0.309-0.309c-0.453-0.453-0.91-1.337-0.91-2.29 0-2.579 2.143-3.733 4.267-3.733s4.267 1.154 4.267 3.733-2.143 3.733-4.267 3.733zM19.623 6.29l0.754 0.754-2.556 2.556h-0.744l-1.227-1.534 0.833-0.666 0.812 1.016 2.127-2.127zM13.867 18.14v4.273h-1.067v-4.273c0-0.994-0.564-1.663-1.388-2.084l-4.323 5.284h4.111v1.067h-5.333v-1.257l4.479-5.474c-0.576-0.138-1.2-0.202-1.812-0.202-2.063 0-4.267 0.701-4.267 2.667v4.273h-1.067v-4.273c0-2.268 2.093-3.733 5.333-3.733s5.333 1.465 5.333 3.733zM5.867 10.673c0 1.107 0.557 3.2 2.667 3.2s2.667-2.093 2.667-3.2v-0.408l1.22-2.448-0.391-0.261c-0.071-0.047-1.754-1.156-3.496-1.156s-3.425 1.109-3.496 1.156l-0.391 0.261 1.22 2.448v0.408zM8.533 12.806c-1.259 0-1.527-1.316-1.584-1.881 0.436 0.14 1.005 0.275 1.584 0.275s1.149-0.135 1.585-0.276c-0.054 0.565-0.316 1.882-1.585 1.882zM7.264 9.906c0.897-0.222 1.641-0.222 2.538 0-0.355 0.115-0.816 0.228-1.269 0.228s-0.914-0.112-1.269-0.228zM8.533 7.467c0.967 0 1.963 0.452 2.5 0.742l-0.41 0.822c-1.517-0.474-2.664-0.474-4.181 0l-0.41-0.823c0.536-0.289 1.529-0.741 2.501-0.741z"/>
</symbol>
<symbol id="icon-financial" viewBox="2 0 28 30">
<path d="M16.205 29.539c-2.637 0-5.215-0.782-7.408-2.247s-3.902-3.547-4.911-5.984c-1.009-2.436-1.273-5.117-0.759-7.704s1.784-4.962 3.649-6.827c1.865-1.865 4.24-3.135 6.827-3.649s5.267-0.25 7.704 0.759 4.519 2.718 5.984 4.911c1.465 2.193 2.247 4.771 2.247 7.408-0.004 3.535-1.41 6.924-3.91 9.424s-5.889 3.906-9.424 3.91zM16.205 4.214c-2.372 0-4.69 0.703-6.662 2.021s-3.509 3.19-4.416 5.381c-0.908 2.191-1.145 4.602-0.682 6.928s1.605 4.463 3.282 6.14c1.677 1.677 3.814 2.819 6.14 3.282s4.737 0.225 6.928-0.682c2.191-0.908 4.064-2.445 5.381-4.416s2.021-4.29 2.021-6.662c-0.004-3.179-1.268-6.227-3.516-8.475s-5.296-3.513-8.475-3.516z"/>
<path d="M19.282 18.232c-0.002 0.716-0.279 1.402-0.771 1.908s-1.159 0.792-1.854 0.794v1.365c0 0.179-0.069 0.351-0.192 0.478s-0.29 0.198-0.464 0.198-0.341-0.071-0.464-0.198c-0.123-0.127-0.192-0.299-0.192-0.478v-1.365h-1.641c-0.174 0-0.341-0.071-0.464-0.198s-0.192-0.299-0.192-0.478c0-0.179 0.069-0.351 0.192-0.478s0.29-0.198 0.464-0.198h2.954c0.348 0 0.682-0.142 0.928-0.396s0.385-0.597 0.385-0.955c0-0.358-0.138-0.702-0.385-0.955s-0.58-0.396-0.928-0.396h-1.313c-0.696 0-1.364-0.285-1.857-0.791s-0.769-1.194-0.769-1.911c0-0.717 0.277-1.404 0.769-1.911s1.16-0.791 1.857-0.791v-1.365c0-0.179 0.069-0.351 0.192-0.478s0.29-0.198 0.464-0.198 0.341 0.071 0.464 0.198c0.123 0.127 0.192 0.299 0.192 0.478v1.365h1.641c0.174 0 0.341 0.071 0.464 0.198s0.192 0.299 0.192 0.478c0 0.179-0.069 0.351-0.192 0.478s-0.29 0.198-0.464 0.198h-2.954c-0.348 0-0.682 0.142-0.928 0.396s-0.384 0.597-0.384 0.955c0 0.358 0.138 0.702 0.384 0.955s0.58 0.396 0.928 0.396h1.313c0.696 0.002 1.362 0.287 1.854 0.794s0.769 1.192 0.771 1.908z"/>
</symbol>
<symbol id="icon-transport" viewBox="0 3 26 18">
<path d="M25.19 12.57c-0.004-0.161-0.051-0.311-0.13-0.439l0.002 0.004-2.458-3.763c-0.132-0.216-0.367-0.358-0.635-0.358-0.002 0-0.003 0-0.005 0h-3.968c-0.224-1.204-1.258-2.107-2.507-2.125l-0.002-0h-5.555c-0.424 0-0.768 0.344-0.768 0.768v0c-0 0.008-0 0.017-0 0.026 0 0.41 0.332 0.742 0.742 0.742 0.009 0 0.018-0 0.027-0l-0.001 0h5.555c0.535 0.011 0.971 0.42 1.024 0.943l0 0.004 0.64 8.013h-4.506c-0.355-1.081-1.355-1.847-2.534-1.847s-2.179 0.766-2.529 1.828l-0.005 0.019h-1.741c-0.419 0.014-0.754 0.349-0.768 0.767l-0 0.001c0 0.424 0.344 0.768 0.768 0.768v0h1.741c0.327 1.111 1.337 1.909 2.534 1.909s2.208-0.798 2.53-1.89l0.005-0.019h5.786c0.331 1.104 1.338 1.894 2.53 1.894 0.002 0 0.003 0 0.005 0h-0c1.188-0.015 2.188-0.799 2.529-1.875l0.005-0.019c0.854-0.126 1.506-0.84 1.536-1.712l0-0.003zM10.112 18.278c-0.611-0.014-1.101-0.513-1.101-1.126 0-0 0-0 0-0v0c0-0.608 0.493-1.101 1.101-1.101s1.101 0.493 1.101 1.101v0c0 0 0 0 0 0 0 0.613-0.49 1.112-1.099 1.126l-0.001 0zM23.014 11.802h-4.685l-0.179-2.253h3.405zM20.966 18.278c-0.622 0-1.126-0.504-1.126-1.126v0c0.014-0.611 0.513-1.101 1.126-1.101 0 0 0 0 0 0h-0c0.608 0 1.101 0.493 1.101 1.101v0c0 0 0 0 0 0 0 0.613-0.49 1.112-1.099 1.126l-0.001 0zM20.966 14.515c-0.003 0-0.006-0-0.009-0-0.991 0-1.855 0.541-2.313 1.344l-0.007 0.013-0.205-2.534h5.197l-0.102 2.816-0.077 0.154c-0.354-1.050-1.33-1.792-2.479-1.792-0.001 0-0.003 0-0.004 0h0z"/>
<path d="M2.842 13.030h10.65c0.424 0 0.768-0.344 0.768-0.768v0c0-0.008 0-0.017 0-0.026 0-0.41-0.332-0.742-0.742-0.742-0.009 0-0.018 0-0.027 0.001l0.001-0h-10.957c-1.204 0.158-2.125 1.178-2.125 2.413 0 1.343 1.089 2.432 2.432 2.432s2.432-1.089 2.432-2.432c0-0.002 0-0.004 0-0.006v0c0-0.424-0.344-0.768-0.768-0.768s-0.768 0.344-0.768 0.768v0c0 0.008 0 0.017 0 0.026 0 0.495-0.401 0.896-0.896 0.896s-0.896-0.401-0.896-0.896c0-0.495 0.401-0.896 0.896-0.896h0z"/>
<path d="M6.17 7.322c0.484 0.014 0.87 0.41 0.87 0.896 0 0 0 0 0 0v-0c0 0.424 0.344 0.768 0.768 0.768v0c0.008 0 0.017 0 0.026 0 0.41 0 0.742-0.332 0.742-0.742 0-0.009-0-0.018-0.001-0.027l0 0.001c0-0.003 0-0.006 0-0.009 0-1.343-1.089-2.432-2.432-2.432s-2.432 1.089-2.432 2.432c0 1.244 0.934 2.27 2.139 2.415l0.012 0.001h7.629c0.424 0 0.768-0.344 0.768-0.768s-0.344-0.768-0.768-0.768v0h-7.322c-0.495 0-0.896-0.401-0.896-0.896s0.401-0.896 0.896-0.896v0z"/>
</symbol>
<symbol id="icon-step2" viewBox="0 0 50 32">
<path d="M25.028 2.028l-7.222 6.426c-1.201 1.066-1.432 2.983-0.522 4.352 0.962 1.459 2.835 1.746 4.126 0.639l7.408-6.328c0.522-0.443 1.268-0.344 1.679 0.229s0.313 1.393-0.209 1.844l-1.559 1.328 10.37 10.491v-15.475h-0.052l-5.707-4.016c-1.141-0.803-2.477-1.229-3.835-1.229-1.626 0-3.208 0.615-4.477 1.738zM26.729 12.224l-3.857 3.295c-2.35 2.016-5.76 1.492-7.52-1.164-1.656-2.5-1.239-5.991 0.948-7.934l6.207-5.516c-0.865-0.402-1.798-0.607-2.745-0.607-1.403-0.008-2.768 0.451-3.939 1.303l-5.372 3.934v18.36h2.104l6.819 6.836c1.462 1.467 3.723 1.352 5.058-0.254 0.41-0.5 0.686-1.082 0.828-1.688l1.268 1.279c1.455 1.467 3.723 1.361 5.058-0.238 0.336-0.402 0.582-0.869 0.739-1.352 1.447 1.066 3.417 0.844 4.633-0.615 1.335-1.598 1.239-4.090-0.216-5.557l-10.012-10.081zM2.094 5.536c-0.657 0-1.194 0.59-1.194 1.311v17.048c0 1.451 1.067 2.623 2.387 2.623h2.387c1.321 0 2.387-1.172 2.387-2.623v-18.36h-5.969zM4.481 21.273c0.317 0 0.62 0.138 0.844 0.384s0.35 0.579 0.35 0.927-0.126 0.681-0.35 0.927c-0.224 0.246-0.527 0.384-0.844 0.384s-0.62-0.138-0.844-0.384c-0.224-0.246-0.35-0.579-0.35-0.927s0.126-0.681 0.35-0.927c0.224-0.246 0.527-0.384 0.844-0.384zM41.486 5.536v18.36c0 1.451 1.067 2.623 2.388 2.623h2.387c1.321 0 2.387-1.172 2.387-2.623v-17.048c0-0.721-0.537-1.311-1.194-1.311h-5.969zM43.874 22.584c0-0.348 0.126-0.681 0.35-0.927s0.527-0.384 0.844-0.384 0.62 0.138 0.844 0.384c0.224 0.246 0.35 0.579 0.35 0.927s-0.126 0.681-0.35 0.927c-0.224 0.246-0.527 0.384-0.844 0.384s-0.62-0.138-0.844-0.384c-0.224-0.246-0.35-0.579-0.35-0.927z"/>
</symbol>
<symbol id="icon-step1" viewBox="0 0 40 32">
<path d="M4.095 31.763c-1.104 0-2.050-0.386-2.837-1.157s-1.18-1.697-1.178-2.777v-23.603c0-1.082 0.394-2.008 1.18-2.779s1.732-1.156 2.835-1.155h32.122c1.104 0 2.050 0.385 2.837 1.157s1.18 1.697 1.178 2.777v23.603c0 1.082-0.393 2.008-1.18 2.779s-1.732 1.156-2.835 1.155h-32.122zM20.155 17.995l16.061-9.835v-3.934l-16.061 9.835-16.061-9.835v3.934l16.061 9.835z" />
</symbol>
<symbol id="icon-step3" viewBox="0 0 23 32">
<path d="M22.74 11.589c0-6.075-5.083-11.020-11.328-11.020s-11.328 4.945-11.328 11.020c0 2.261 0.726 4.38 1.936 6.122v0.047l9.343 13.705 9.44-13.752c1.21-1.743 1.936-3.862 1.936-6.122zM11.412 17.712c-3.486 0-6.293-2.732-6.293-6.122s2.808-6.122 6.293-6.122c3.486 0 6.293 2.732 6.293 6.122 0 3.344-2.759 6.122-6.293 6.122z"/>
</symbol>
<symbol id="icon-step4" viewBox="3 6 20 16">
<path d="M23.044 12.415c0.059-0.202 0.245-0.886 0.168-1.194-0.046-0.183-0.152-0.258-0.233-0.289-0.176-0.067-0.337 0.030-0.44 0.101l-0.279-0.217c-0.016-0.012-0.032-0.022-0.050-0.030l-0.424-0.195-0.861-0.431c-0.082-0.041-0.18-0.035-0.256 0.016l-0.114 0.076-0.482-0.532c-0.051-0.057-0.125-0.087-0.203-0.084l-1.215 0.062-0.099-0.059c-0.034-0.020-0.071-0.032-0.111-0.036l-0.304-0.025-0.157-0.157v-0.491c0-0.076-0.033-0.147-0.091-0.196l-0.63-0.53c-0.052-0.044-0.12-0.064-0.188-0.059l-0.267 0.024-0.24-0.18-0.051-0.257 0.188-0.168c0.087-0.077 0.111-0.202 0.059-0.306l-0.232-0.464c-0.007-0.014-0.015-0.027-0.024-0.039l-0.497-0.663c-0.065-0.086-0.176-0.122-0.278-0.092l-0.627 0.188h-0.758c-0.076 0-0.148 0.034-0.197 0.092l-0.254 0.306h-1.139c-0.076 0-0.147 0.033-0.196 0.091l-0.696 0.828c-0.039 0.046-0.060 0.104-0.060 0.165v0.303l-0.522-0.181c-0.027-0.009-0.055-0.014-0.084-0.014h-0.242c-0.006-0.069-0.040-0.132-0.095-0.176-0.060-0.048-0.14-0.067-0.216-0.050l-0.474 0.105-0.301-0.251c-0.064-0.053-0.151-0.072-0.231-0.050l-0.373 0.102-0.238 0.074c-0.018-0.028-0.042-0.053-0.070-0.073l-0.431-0.298c-0.043-0.030-0.094-0.046-0.146-0.046h-0.767c-0.246-0.056-0.503-0.134-0.543-0.157-0.2-0.2-0.537-0.096-0.644-0.055l-0.35 0.146h-1.042c-0.141 0-0.256 0.115-0.256 0.256v0.028l-0.193 0.080h-0.347c-0.075 0-0.147 0.033-0.195 0.091s-0.069 0.133-0.057 0.208l0.063 0.377v0.277c0 0.073 0.031 0.143 0.086 0.191l0.259 0.23 0.185 0.396c-0.013 0.379-0.154 0.462-0.149 0.462 0 0 0 0 0 0-0.053 0.016-0.1 0.049-0.133 0.094l-1.259 1.723c-0.048 0.065-0.062 0.149-0.038 0.226l0.129 0.42-0.050-0.014c-0.134-0.036-0.271 0.041-0.311 0.174-0.071 0.238-0.233 0.638-0.352 0.741-0.061 0.052-0.194 0.204-0.095 0.469 0.103 0.278 0.678 0.909 0.925 0.909 0.034 0 0.097 0 0.622-0.153l0.75 0.27c0.011 0.004 0.023 0.007 0.035 0.010l0.795 0.166c0.032 0.007 0.066 0.007 0.098 0.001l0.698-0.127c0.83 0.050 1.333-0.453 1.476-0.618 1.285-0.662 1.791 0.014 1.81 0.041 0.027 0.039 0.063 0.070 0.106 0.089l0.598 0.272 0.049 0.42c0.003 0.021 0.008 0.042 0.015 0.062l0.331 0.862c0.015 0.038 0.038 0.072 0.069 0.099 0.202 0.18 0.442 0.412 0.516 0.507 0.005 0.042 0.013 0.093 0.022 0.149-0.154-0.059-0.382-0.121-0.57-0.168-0.124-0.031-0.252 0.034-0.3 0.153l-0.188 0.471-0.424 0.621-0.431 0.729c-0.047 0.080-0.048 0.179-0.001 0.259l0.232 0.398c0.057 0.098 0.172 0.148 0.283 0.119 0.347-0.087 0.768-0.185 0.832-0.191 0.018 0 0.043 0.004 0.072 0.007 0.177 0.019 0.444 0.048 0.606-0.115 0.111-0.11 0.193-0.356 0.247-0.57 0.066-0.059 0.166-0.153 0.241-0.253 0.020-0.026 0.047-0.057 0.078-0.092 0.126-0.142 0.312-0.352 0.387-0.625l0.282-0.461c0.472-0.068 0.736-0.075 0.881-0.067-0.046 0.040-0.099 0.081-0.149 0.114-0.083 0.055-0.128 0.153-0.113 0.251s0.084 0.18 0.18 0.209l0.663 0.199c0.021 0.006 0.042 0.010 0.064 0.011l0.845 0.033 0.21 0.035c-0.172 0.154-0.398 0.183-0.41 0.184-0.061 0.006-0.118 0.035-0.161 0.080l-0.464 0.497c-0.059 0.063-0.082 0.151-0.062 0.234s0.080 0.151 0.161 0.181l0.63 0.232c0.028 0.011 0.058 0.016 0.089 0.016h0.231l0.037 0.394-0.235 0.5c-0.059 0.126-0.007 0.276 0.117 0.338 0.236 0.118 0.551 0.259 0.711 0.259 0.244 0 0.618-0.267 0.785-0.559 0.037-0.057 0.264-0.124 0.457-0.137 0.045-0.003 0.088-0.018 0.125-0.043l0.632-0.421c0.387-0.005 0.982-0.054 1.179-0.291 0.201-0.242 0.249-0.454 0.253-0.478 0.013-0.064 0.001-0.131-0.034-0.186-0.025-0.039-0.252-0.386-0.648-0.386-0.256 0-0.472 0.151-0.592 0.256l-0.282-0.024c-0.293-0.025-0.332-0.119-0.369-0.271-0.040-0.162-0.122-0.488-0.455-0.523l0.017-0.014c0.092 0.014 0.205-0.001 0.337-0.067 0.047-0.024 0.108-0.051 0.174-0.080 0.31-0.14 0.524-0.243 0.634-0.378 0.065-0.042 0.304-0.111 0.514-0.148 0.017-0.003 0.034-0.008 0.050-0.014l0.452-0.18h0.282c0.068 0 0.133-0.027 0.181-0.075 0.023-0.023 0.205-0.212 0.28-0.486 0.045 0.016 0.098 0.039 0.141 0.064 0.039 0.022 0.082 0.034 0.127 0.034h0.795c0.124 0 0.231-0.090 0.252-0.212l0.129-0.747c0.244-0.080 0.508-0.349 0.667-0.532h0.444c0.022 0 0.044-0.003 0.064-0.008 0.333-0.087 0.478-0.284 0.542-0.435 0.164-0.39-0.046-0.861-0.126-1.018l-0.058-0.46h0.041c0.114 0 0.215-0.075 0.246-0.184z"/>
</symbol>
<symbol id="icon-step5" viewBox="4 2 18 26">
<path d="M9.626 12.698c0.282 0 0.563 0.051 0.819 0.154l1.894 0.691v-2.534h-11.699v9.318c0 0.179 0.154 0.333 0.333 0.333h11.034c0.179 0 0.333-0.154 0.333-0.333v-1.766c-0.435-0.026-0.87-0.128-1.28-0.282l-2.278-0.819c-1.254-0.461-1.92-1.869-1.459-3.123 0.358-0.998 1.28-1.638 2.304-1.638zM5.018 19.43h-2.611v-0.614h2.611v0.614zM4.224 16v2.278h-1.024v-2.278h-0.947l1.459-1.69 1.459 1.69h-0.947z"/>
<path d="M7.117 9.754v-2.048h2.33c0.102 0 0.179 0.051 0.256 0.102l1.715 1.92h-4.301z"/>
<path d="M1.562 9.754l1.715-1.92c0.051-0.077 0.154-0.102 0.256-0.102h2.33v2.048h-4.301z"/>
<path d="M16.742 18.611l5.862-7.424h-4.915c-0.998 0-1.971 0.435-2.611 1.203l-1.792 2.074c-0.23 0.256-0.589 0.358-0.896 0.23l-2.278-0.819c-0.717-0.256-1.485 0.102-1.741 0.819s0.102 1.485 0.819 1.741l2.278 0.819c1.382 0.512 2.918 0.102 3.891-0.998l1.408-1.613v3.968z"/>
<path d="M23.834 11.494l-6.272 7.936h4.659v1.152h-5.478v0.973c0 0.461 0.358 0.819 0.819 0.819h6.579c0.461 0 0.819-0.358 0.819-0.819v-8.115c0-0.819-0.461-1.562-1.126-1.946z"/>
<path d="M15.846 7.091h1.126c0 0.077 0 0.154 0 0.205 0 1.766 1.434 3.2 3.2 3.2s3.2-1.434 3.2-3.2c0-0.512-0.128-0.973-0.333-1.408-0.026 0-0.051 0-0.077 0h-5.683c0 0-1.536 0.819-1.536 0.819-0.154 0.102-0.102 0.384 0.102 0.384z"/>
<path d="M17.101 5.094c0.051 0.077 0.154 0.154 0.256 0.154h5.606c0.154 0 0.282-0.128 0.282-0.282v-0.973c0-0.154-0.102-0.256-0.256-0.282l-6.451-0.512c-0.23-0.026-0.384 0.23-0.256 0.41l0.819 1.485z"/>
</symbol>
<symbol id="icon-step6" viewBox="0 0 33 32">
<path  d="M7.888 0.629c-0.967 0-1.895 0.374-2.579 1.040s-1.068 1.569-1.068 2.511v17.757c0 0.942 0.384 1.845 1.068 2.511s1.612 1.040 2.579 1.040v0.481c0 0.977-0.247 1.787-0.646 2.294-0.4 0.504-0.904 0.776-1.786 0.776s-1.386-0.272-1.786-0.776c-0.399-0.505-0.646-1.319-0.646-2.294v-5.696c0.005-0.18-0.033-0.358-0.11-0.522s-0.191-0.308-0.334-0.422-0.311-0.195-0.49-0.237c-0.18-0.042-0.367-0.043-0.547-0.003-0.274 0.060-0.519 0.211-0.692 0.427s-0.264 0.483-0.257 0.757v5.696c0 1.378 0.359 2.699 1.178 3.737 0.819 1.036 2.147 1.701 3.685 1.701s2.865-0.665 3.685-1.702c0.819-1.036 1.178-2.358 1.178-3.736v-0.481c0.967 0 1.895-0.374 2.579-1.040s1.068-1.569 1.068-2.511v-17.757c0-0.942-0.384-1.845-1.068-2.511s-1.612-1.040-2.579-1.040h-2.431zM18.829 0.629c-0.967 0-1.895 0.374-2.579 1.040s-1.068 1.569-1.068 2.511v17.757c0 0.942 0.384 1.845 1.068 2.511s1.612 1.040 2.579 1.040h8.51c2.014 0 4.748-1.554 4.748-12.43s-2.734-12.43-4.748-12.43h-8.51zM19.437 4.18h8.51c0.161 0 0.316 0.062 0.43 0.173s0.178 0.262 0.178 0.419v3.551c0 0.157-0.064 0.308-0.178 0.419s-0.269 0.173-0.43 0.173h-8.51c-0.161 0-0.316-0.062-0.43-0.173s-0.178-0.261-0.178-0.419v-3.551c0-0.157 0.064-0.308 0.178-0.419s0.269-0.173 0.43-0.173zM19.437 11.283h1.216c0.161 0 0.316 0.062 0.43 0.173s0.178 0.261 0.178 0.419v1.184c0 0.157-0.064 0.308-0.178 0.419s-0.269 0.173-0.43 0.173h-1.216c-0.161 0-0.316-0.062-0.43-0.173s-0.178-0.262-0.178-0.419v-1.184c0-0.157 0.064-0.308 0.178-0.419s0.269-0.173 0.43-0.173zM23.084 11.283h1.216c0.161 0 0.316 0.062 0.43 0.173s0.178 0.261 0.178 0.419v1.184c0 0.157-0.064 0.308-0.178 0.419s-0.269 0.173-0.43 0.173h-1.216c-0.161 0-0.316-0.062-0.43-0.173s-0.178-0.262-0.178-0.419v-1.184c0-0.157 0.064-0.308 0.178-0.419s0.269-0.173 0.43-0.173zM26.731 11.283h1.216c0.161 0 0.316 0.062 0.43 0.173s0.178 0.261 0.178 0.419v1.184c0 0.157-0.064 0.308-0.178 0.419s-0.269 0.173-0.43 0.173h-1.216c-0.161 0-0.316-0.062-0.43-0.173s-0.178-0.262-0.178-0.419v-1.184c0-0.157 0.064-0.308 0.178-0.419s0.269-0.173 0.43-0.173zM19.437 14.834h1.216c0.161 0 0.316 0.062 0.43 0.173s0.178 0.261 0.178 0.419v1.184c0 0.157-0.064 0.308-0.178 0.419s-0.269 0.173-0.43 0.173h-1.216c-0.161 0-0.316-0.062-0.43-0.173s-0.178-0.262-0.178-0.419v-1.184c0-0.157 0.064-0.308 0.178-0.419s0.269-0.173 0.43-0.173zM23.084 14.834h1.216c0.161 0 0.316 0.062 0.43 0.173s0.178 0.261 0.178 0.419v1.184c0 0.157-0.064 0.308-0.178 0.419s-0.269 0.173-0.43 0.173h-1.216c-0.161 0-0.316-0.062-0.43-0.173s-0.178-0.262-0.178-0.419v-1.184c0-0.157 0.064-0.308 0.178-0.419s0.269-0.173 0.43-0.173zM26.731 14.834h1.216c0.161 0 0.316 0.062 0.43 0.173s0.178 0.261 0.178 0.419v1.184c0 0.157-0.064 0.308-0.178 0.419s-0.269 0.173-0.43 0.173h-1.216c-0.161 0-0.316-0.062-0.43-0.173s-0.178-0.262-0.178-0.419v-1.184c0-0.157 0.064-0.308 0.178-0.419s0.269-0.173 0.43-0.173zM19.437 18.386h1.216c0.161 0 0.316 0.062 0.43 0.173s0.178 0.262 0.178 0.419v1.184c0 0.157-0.064 0.308-0.178 0.419s-0.269 0.173-0.43 0.173h-1.216c-0.161 0-0.316-0.062-0.43-0.173s-0.178-0.262-0.178-0.419v-1.184c0-0.157 0.064-0.307 0.178-0.419s0.269-0.173 0.43-0.173zM23.084 18.386h1.216c0.161 0 0.316 0.062 0.43 0.173s0.178 0.262 0.178 0.419v1.184c0 0.157-0.064 0.308-0.178 0.419s-0.269 0.173-0.43 0.173h-1.216c-0.161 0-0.316-0.062-0.43-0.173s-0.178-0.262-0.178-0.419v-1.184c0-0.157 0.064-0.307 0.178-0.419s0.269-0.173 0.43-0.173zM26.731 18.386h1.216c0.161 0 0.316 0.062 0.43 0.173s0.178 0.262 0.178 0.419v1.184c0 0.157-0.064 0.308-0.178 0.419s-0.269 0.173-0.43 0.173h-1.216c-0.161 0-0.316-0.062-0.43-0.173s-0.178-0.262-0.178-0.419v-1.184c0-0.157 0.064-0.307 0.178-0.419s0.269-0.173 0.43-0.173z"/>
</symbol>
<symbol id="icon-menu" viewBox="0 0 48 32">
<path fill="#fff" style="fill: var(--color1, #fff)" d="M2.667 32c-0.756 0-1.388-0.256-1.899-0.768-0.512-0.51-0.768-1.143-0.768-1.899s0.256-1.388 0.768-1.899c0.51-0.512 1.143-0.768 1.899-0.768h42.667c0.756 0 1.388 0.256 1.899 0.768 0.512 0.51 0.768 1.143 0.768 1.899s-0.256 1.388-0.768 1.899c-0.51 0.512-1.143 0.768-1.899 0.768h-42.667zM2.667 18.667c-0.756 0-1.388-0.256-1.899-0.768-0.512-0.51-0.768-1.143-0.768-1.899s0.256-1.389 0.768-1.901c0.51-0.51 1.143-0.765 1.899-0.765h42.667c0.756 0 1.388 0.255 1.899 0.765 0.512 0.512 0.768 1.146 0.768 1.901s-0.256 1.388-0.768 1.899c-0.51 0.512-1.143 0.768-1.899 0.768h-42.667zM2.667 5.333c-0.756 0-1.388-0.255-1.899-0.765-0.512-0.512-0.768-1.146-0.768-1.901s0.256-1.389 0.768-1.901c0.51-0.51 1.143-0.765 1.899-0.765h42.667c0.756 0 1.388 0.255 1.899 0.765 0.512 0.512 0.768 1.146 0.768 1.901s-0.256 1.389-0.768 1.901c-0.51 0.51-1.143 0.765-1.899 0.765h-42.667z"/>

</symbol>
<symbol id="icon-calender" viewBox="0 0 30 32">
<path fill="#fec001" style="fill: var(--color1, #fec001)" d="M24.96 5.92h-2.56v-1.36c0-0.361-0.135-0.707-0.375-0.962s-0.566-0.398-0.905-0.398c-0.34 0-0.665 0.143-0.905 0.398s-0.375 0.601-0.375 0.962v1.36h-7.68v-1.36c0-0.361-0.135-0.707-0.375-0.962s-0.566-0.398-0.905-0.398c-0.339 0-0.665 0.143-0.905 0.398s-0.375 0.601-0.375 0.962v1.36h-2.56c-1.018 0-1.995 0.43-2.715 1.195s-1.125 1.803-1.125 2.885v16.32c0 1.082 0.405 2.12 1.125 2.885s1.697 1.195 2.715 1.195h17.92c1.018 0 1.995-0.43 2.715-1.195s1.125-1.803 1.125-2.885v-16.32c0-1.082-0.405-2.12-1.125-2.885s-1.697-1.195-2.715-1.195zM26.24 26.32c0 0.361-0.135 0.707-0.375 0.962s-0.566 0.398-0.905 0.398h-17.92c-0.339 0-0.665-0.143-0.905-0.398s-0.375-0.601-0.375-0.962v-9.52h20.48v9.52zM26.24 14.080h-20.48v-4.080c0-0.361 0.135-0.707 0.375-0.962s0.566-0.398 0.905-0.398h2.56v1.36c0 0.361 0.135 0.707 0.375 0.962s0.566 0.398 0.905 0.398c0.339 0 0.665-0.143 0.905-0.398s0.375-0.601 0.375-0.962v-1.36h7.68v1.36c0 0.361 0.135 0.707 0.375 0.962s0.566 0.398 0.905 0.398c0.34 0 0.665-0.143 0.905-0.398s0.375-0.601 0.375-0.962v-1.36h2.56c0.34 0 0.665 0.143 0.905 0.398s0.375 0.601 0.375 0.962v4.080z"/>
</symbol>
<symbol id="icon-schedule" viewBox="0 0 32 32">
<path d="M15.333 8h-2v10.667h8v-2.133h-6v-8.533z"/>
<path d="M16 0c-6 0-11.2 3.2-13.8 8.2l-2.2-2.2v8h8l-3-3c2-4 6.2-7 11-7 6.6 0 12 5.4 12 12s-5.4 12-12 12c-3.6 0-6.8-1.6-9-4.2l-3 2.6c2.8 3.4 7.2 5.6 12 5.6 8.8 0 16-7.2 16-16s-7.2-16-16-16z"/>
</symbol>
<symbol id="icon-arrow_down" viewBox="0 0 20 20">
<path d="M7.406 8.578l4.594 4.594 4.594-4.594 1.406 1.406-6 6-6-6z"/>
</symbol>
<symbol id="icon-arrow" viewBox="0 0 80 32">
<path fill="#fff" style="fill: var(--color1, #fff)" d="M77.414 17.414c0.781-0.781 0.781-2.047 0-2.828l-12.728-12.728c-0.781-0.781-2.048-0.781-2.828 0s-0.781 2.047 0 2.828l11.314 11.314-11.314 11.314c-0.781 0.781-0.781 2.047 0 2.828s2.047 0.781 2.828 0l12.728-12.728zM0 18h76v-4h-76v4z"/>
</symbol>
<symbol id="icon-for-companies" viewBox="1 4 24 18">
<path d="M16.863 19.277c-0.31 0.115-0.63 0.233-0.945 0.343-0.156-0.525-0.64-0.906-1.216-0.906h-2.742c-0.609 0-1.055-0.238-1.59-0.84-0.333-0.376-0.509-0.392-1.124-0.392h-2.23v-0.876c0-0.328-0.266-0.594-0.594-0.594h-2.719c-0.328 0-0.594 0.266-0.594 0.594v6.94c0 0.328 0.266 0.594 0.594 0.594h2.719c0.328 0 0.594-0.266 0.594-0.594v-0.865c0.694 0.184 1.334 0.356 1.907 0.512 1.162 0.312 2.079 0.561 2.783 0.735 0.579 0.143 1.016 0.215 1.395 0.215 0.684 0 1.167-0.228 1.928-0.658 4.524-2.419 6.679-3.497 6.7-3.507 0.069-0.036 0.12-0.097 0.143-0.172s0.010-0.154-0.031-0.22c-1.083-1.756-3.062-1.019-4.977-0.307zM6.464 23.547c0 0.023-0.018 0.041-0.041 0.041h-2.719c-0.023 0-0.041-0.018-0.041-0.041v-6.94c0-0.023 0.018-0.041 0.041-0.041h2.719c0.023 0 0.041 0.018 0.041 0.041v6.94zM14.764 22.996s-0.005 0-0.005 0.003c-1.062 0.602-1.436 0.76-2.918 0.389-0.699-0.174-1.613-0.42-2.772-0.732-0.612-0.164-1.3-0.351-2.051-0.55v-4.073h2.23q0.53 0 0.712 0.205c0.645 0.727 1.224 1.024 2.002 1.027h2.742c0.394 0 0.714 0.32 0.714 0.714s-0.32 0.714-0.714 0.714h-2.737c-0.148-0.008-0.287-0.013-0.417-0.020-1.303-0.059-1.472-0.1-1.526-0.714-0.013-0.151-0.148-0.264-0.3-0.251s-0.264 0.148-0.251 0.3c0.1 1.132 0.835 1.165 2.053 1.219 0.131 0.005 0.271 0.013 0.42 0.020 0.005 0 0.010 0 0.015 0h2.742c0.627 0 1.149-0.458 1.249-1.057 0.371-0.125 0.742-0.264 1.103-0.397 1.738-0.648 3.256-1.213 4.137-0.169-0.727 0.369-2.831 1.444-6.428 3.369zM5.34 20.421v1.487c0 0.154-0.123 0.276-0.276 0.276s-0.276-0.123-0.276-0.276v-1.487c0-0.154 0.123-0.276 0.276-0.276s0.276 0.123 0.276 0.276zM7.724 11.727v1.556c0 0.154 0.123 0.276 0.276 0.276h11.551c0.154 0 0.276-0.123 0.276-0.276v-1.556c0-0.684-0.512-1.249-1.172-1.341 0.215-0.243 0.346-0.561 0.346-0.911 0-0.663-0.474-1.219-1.098-1.347v-0.264c0-0.684-0.512-1.249-1.172-1.341 0.215-0.243 0.346-0.561 0.346-0.911 0-0.758-0.617-1.375-1.375-1.375s-1.375 0.617-1.375 1.375c0 0.348 0.131 0.668 0.346 0.911-0.366 0.051-0.684 0.246-0.896 0.525-0.218-0.282-0.54-0.474-0.896-0.525 0.215-0.243 0.346-0.561 0.346-0.911 0-0.758-0.617-1.375-1.375-1.375s-1.375 0.617-1.375 1.375c0 0.348 0.131 0.668 0.346 0.911-0.66 0.092-1.172 0.658-1.172 1.341v0.264c-0.627 0.128-1.098 0.684-1.098 1.347 0 0.348 0.131 0.668 0.346 0.911-0.66 0.092-1.172 0.658-1.172 1.341zM12.127 11.727c0-0.443 0.361-0.801 0.806-0.801h1.684c0.445 0 0.806 0.358 0.806 0.801v1.28h-3.297v-1.28zM13.775 8.653s0 0 0 0c0 0 0 0 0 0 0.453 0 0.822 0.369 0.822 0.822s-0.369 0.822-0.822 0.822-0.822-0.369-0.822-0.822 0.369-0.822 0.822-0.822zM19.274 11.727v1.28h-3.297v-1.28c0-0.443 0.361-0.801 0.806-0.801h1.684c0.445 0 0.806 0.358 0.806 0.801zM18.447 9.475c0 0.453-0.369 0.822-0.822 0.822s-0.822-0.369-0.822-0.822 0.369-0.822 0.822-0.822 0.822 0.369 0.822 0.822zM15.7 4.79c0.453 0 0.822 0.369 0.822 0.822s-0.369 0.822-0.822 0.822-0.822-0.369-0.822-0.822 0.369-0.822 0.822-0.822zM14.858 7.063h1.684c0.445 0 0.806 0.358 0.806 0.801v0.264c-0.627 0.128-1.098 0.684-1.098 1.347 0 0.348 0.131 0.668 0.346 0.911-0.364 0.051-0.684 0.246-0.896 0.525-0.212-0.279-0.532-0.474-0.896-0.525 0.215-0.243 0.346-0.561 0.346-0.911 0-0.663-0.474-1.219-1.098-1.347v-0.264c0-0.443 0.361-0.801 0.806-0.801zM11.85 4.79c0.453 0 0.822 0.369 0.822 0.822s-0.369 0.822-0.822 0.822-0.822-0.369-0.822-0.822 0.369-0.822 0.822-0.822zM11.008 7.063h1.684c0.328 0 0.63 0.205 0.75 0.512 0.036 0.092 0.054 0.189 0.054 0.289v0.264c-0.627 0.128-1.098 0.684-1.098 1.347 0 0.348 0.131 0.668 0.346 0.911-0.364 0.051-0.684 0.246-0.896 0.525-0.212-0.279-0.532-0.474-0.896-0.525 0.215-0.243 0.346-0.561 0.346-0.911 0-0.663-0.474-1.219-1.098-1.347v-0.264c0-0.443 0.361-0.801 0.806-0.801zM9.925 8.653s0 0 0 0 0 0 0 0c0.453 0 0.822 0.369 0.822 0.822s-0.369 0.822-0.822 0.822-0.822-0.369-0.822-0.822 0.369-0.822 0.822-0.822zM8.276 11.727c0-0.443 0.361-0.801 0.806-0.801h1.684c0.445 0 0.806 0.358 0.806 0.801v1.28h-3.297v-1.28zM5.079 11.415l0.74-1.452c0.041-0.082 0.12-0.136 0.21-0.148s0.182 0.023 0.241 0.090l1.083 1.213c0.102 0.115 0.092 0.289-0.023 0.392-0.113 0.102-0.289 0.092-0.392-0.023l-0.486-0.545c0.686 3.456 3.735 5.996 7.319 5.996s6.474-2.368 7.268-5.757c0.036-0.148 0.184-0.241 0.333-0.207 0.148 0.036 0.241 0.184 0.207 0.333-0.404 1.731-1.395 3.302-2.79 4.424-1.416 1.137-3.197 1.764-5.018 1.764-3.863 0-7.148-2.747-7.869-6.482l-0.335 0.655c-0.049 0.095-0.146 0.151-0.246 0.151-0.044 0-0.084-0.010-0.125-0.031-0.136-0.069-0.189-0.236-0.12-0.371zM22.469 7.585l-0.617 1.505c-0.036 0.084-0.108 0.146-0.197 0.166-0.020 0.005-0.038 0.005-0.059 0.005-0.069 0-0.138-0.026-0.189-0.077l-1.18-1.124c-0.11-0.105-0.115-0.279-0.010-0.392 0.105-0.11 0.279-0.115 0.392-0.010l0.517 0.492c-0.63-3.523-3.732-6.141-7.345-6.141s-6.474 2.368-7.268 5.757c-0.036 0.148-0.184 0.241-0.333 0.207-0.148-0.036-0.241-0.184-0.207-0.333 0.404-1.731 1.395-3.302 2.79-4.424 1.416-1.137 3.197-1.764 5.018-1.764 1.953 0 3.837 0.712 5.302 2.002 1.367 1.206 2.278 2.834 2.593 4.613l0.287-0.701c0.059-0.141 0.22-0.21 0.361-0.151s0.21 0.22 0.151 0.361z"/>
</symbol>
<symbol id="icon-turnkey" viewBox="0 0 26 26">
<path d="M19.6 10.36h-0.836c-0.641-0.002-1.159-0.52-1.164-1.16v-4.432c0 0 0 0 0 0 0-0.644 0.521-1.166 1.164-1.168h0.836v0.8h-0.836c-0.203 0-0.368 0.165-0.368 0.368v0 4.432c0 0.203 0.165 0.368 0.368 0.368v0h0.836z"/>
<path d="M16 8.8h-0.8c-0.772-0.017-1.462-0.353-1.946-0.882l-0.002-0.002-1.868-1.868c-0.217-0.217-0.351-0.517-0.351-0.848s0.134-0.631 0.351-0.848v0c0.22-0.209 0.519-0.338 0.848-0.338s0.628 0.129 0.849 0.339l-0.001-0 1.768 1.768-0.568 0.564-1.768-1.768c-0.072-0.072-0.172-0.116-0.282-0.116s-0.21 0.044-0.282 0.116l0-0c-0.072 0.072-0.116 0.172-0.116 0.282s0.044 0.21 0.116 0.282l1.868 1.868c0.343 0.384 0.833 0.631 1.38 0.652l0.004 0h0.8z"/>
<path d="M18 6h-0.4c-0.94 0-1.788-0.824-1.884-0.916l-1.2-1.2c-0.343-0.354-0.795-0.599-1.302-0.682l-0.014-0.002v-0.8c0.94 0 1.788 0.824 1.884 0.916l1.2 1.2c0.343 0.354 0.795 0.599 1.302 0.682l0.014 0.002h0.4z"/>
<path d="M12.4 4.8h-4c-0.663 0-1.2-0.537-1.2-1.2s0.537-1.2 1.2-1.2v0h4.8v0.8h-4.8c-0.221 0-0.4 0.179-0.4 0.4s0.179 0.4 0.4 0.4v0h4z"/>
<path d="M24 11.2h-4c-0.221 0-0.4-0.179-0.4-0.4v0-7.656c0-0.221 0.179-0.4 0.4-0.4v0h4c0.221 0 0.4 0.179 0.4 0.4v0 7.656c0 0.221-0.179 0.4-0.4 0.4v0zM20.4 10.4h3.2v-6.856h-3.2z"/>
<path d="M6.836 22h-0.836v-0.8h0.832c0.203 0 0.368-0.165 0.368-0.368v0-4.432c0-0.203-0.165-0.368-0.368-0.368v0h-0.832v-0.8h0.832c0.645 0 1.168 0.523 1.168 1.168v0 4.432c0 0 0 0 0 0 0 0.644-0.521 1.166-1.164 1.168h-0z"/>
<path d="M13.372 21.6c-0.331-0-0.631-0.135-0.848-0.352v0l-1.768-1.768 0.564-0.564 1.768 1.768c0.072 0.072 0.172 0.116 0.282 0.116s0.21-0.044 0.282-0.116l-0 0c0.072-0.072 0.116-0.172 0.116-0.282s-0.044-0.21-0.116-0.282l-1.868-1.868c-0.343-0.384-0.833-0.631-1.38-0.652l-0.004-0h-2.8v-0.8h2.8c0.772 0.017 1.462 0.353 1.946 0.882l0.002 0.002 1.868 1.868c0.217 0.217 0.351 0.517 0.351 0.848 0 0.661-0.534 1.197-1.195 1.2h-0z"/>
<path d="M12.4 23.2c-0.94 0-1.788-0.824-1.884-0.916l-1.2-1.2c-0.343-0.354-0.795-0.599-1.302-0.682l-0.014-0.002h-0.4v-0.8h0.4c0.94 0 1.788 0.824 1.884 0.916l1.2 1.2c0.343 0.354 0.795 0.599 1.302 0.682l0.014 0.002z"/>
<path d="M17.2 23.2h-4.8v-0.8h4.8c0.221 0 0.4-0.179 0.4-0.4s-0.179-0.4-0.4-0.4v0h-4v-0.8h4c0.663 0 1.2 0.537 1.2 1.2s-0.537 1.2-1.2 1.2v0z"/>
<path d="M5.6 22.856h-4c-0.221 0-0.4-0.179-0.4-0.4v0-7.656c0-0.221 0.179-0.4 0.4-0.4v0h4c0.221 0 0.4 0.179 0.4 0.4v0 7.656c0 0.221-0.179 0.4-0.4 0.4v0zM2 22.056h3.2v-6.856h-3.2z"/>
<path d="M16.036 17.2c-0.325-0-0.62-0.13-0.836-0.34l-3.080-3.080c-0.286 0.108-0.616 0.17-0.961 0.17-1.546 0-2.8-1.254-2.8-2.8s1.254-2.8 2.8-2.8c1.546 0 2.8 1.254 2.8 2.8 0 0.333-0.058 0.653-0.165 0.949l0.006-0.020 3.080 3.080c0.212 0.216 0.343 0.513 0.343 0.84 0 0.658-0.53 1.193-1.186 1.2h-0.001zM12.2 12.904c0.001 0 0.002 0 0.002 0 0.11 0 0.209 0.044 0.282 0.116l3.272 3.272c0.072 0.072 0.172 0.116 0.282 0.116s0.21-0.044 0.282-0.116l-0 0c0.072-0.072 0.116-0.172 0.116-0.282s-0.044-0.21-0.116-0.282l-3.272-3.272c-0.073-0.073-0.119-0.173-0.119-0.284 0-0.062 0.014-0.121 0.040-0.174l-0.001 0.002c0.123-0.252 0.195-0.548 0.195-0.861 0-1.105-0.895-2-2-2s-2 0.895-2 2c0 1.105 0.895 2 2 2 0.313 0 0.609-0.072 0.873-0.2l-0.012 0.005c0.051-0.025 0.111-0.040 0.174-0.040 0.001 0 0.001 0 0.002 0h-0z"/>
<path d="M11.168 12.34c-0.662-0.001-1.199-0.538-1.199-1.2 0-0.331 0.134-0.631 0.351-0.848v0c0.22-0.21 0.519-0.34 0.848-0.34s0.628 0.129 0.848 0.34l-0-0c0.216 0.217 0.349 0.516 0.349 0.846 0 0.338-0.14 0.643-0.365 0.862l-0 0c-0.215 0.209-0.508 0.339-0.832 0.34h-0zM11.168 10.74c-0.001 0-0.002 0-0.002 0-0.221 0-0.4 0.179-0.4 0.4 0 0.111 0.045 0.211 0.118 0.284l0 0c0.072 0.072 0.172 0.116 0.282 0.116s0.21-0.044 0.282-0.116l-0 0c0.073-0.072 0.118-0.173 0.118-0.284 0-0.221-0.179-0.4-0.4-0.4-0.001 0-0.002 0-0.002 0h0z"/>
<path d="M14.056 17.26c-0.001 0-0.002 0-0.002 0-0.11 0-0.209-0.044-0.282-0.116l0 0-1.132-1.144c-0.072-0.072-0.116-0.172-0.116-0.282s0.044-0.21 0.116-0.282l0.848-0.848 0.564 0.564-0.568 0.564 0.568 0.564 0.564-0.564 0.584 0.576-0.848 0.848c-0.073 0.074-0.174 0.12-0.286 0.12-0.004 0-0.007-0-0.011-0h0.001z"/>
<path d="M5.2 12.8h-0.8c0.006-3.091 1.676-5.792 4.161-7.255l0.039-0.021 0.4 0.692c-2.284 1.343-3.795 3.787-3.8 6.583v0.001z"/>
<path d="M17 20.076l-0.4-0.692c2.284-1.343 3.795-3.787 3.8-6.583v-0.001h0.8c-0.006 3.091-1.676 5.792-4.161 7.255l-0.039 0.021z"/>
</symbol>
<symbol id="icon-flexibility" viewBox="0 0 26 32">
<path d="M24.532 9.282l-2.874-3.008c-0.095-0.099-0.24-0.13-0.367-0.079s-0.21 0.174-0.21 0.311v1.193c-1.47 0.050-2.872 0.532-4.072 1.403-1.065 0.772-1.887 1.791-2.412 2.977v-7.57h1.199c0.137 0 0.26-0.083 0.311-0.21s0.019-0.273-0.079-0.367l-2.995-2.863c-0.13-0.124-0.334-0.124-0.463 0l-2.995 2.862c-0.099 0.095-0.13 0.24-0.079 0.367s0.174 0.21 0.311 0.21h1.199v7.57c-0.525-1.186-1.348-2.204-2.412-2.977-1.201-0.871-2.602-1.353-4.072-1.403v-1.193c0-0.137-0.083-0.26-0.21-0.311s-0.272-0.019-0.367 0.079l-2.874 3.008c-0.124 0.13-0.124 0.334 0 0.463l2.874 3.008c0.095 0.099 0.24 0.131 0.367 0.079s0.21-0.174 0.21-0.311v-1.225c1.304 0.089 2.473 0.846 3.087 2.006l-0.104 0.104c-0.297 0.297-0.297 0.781 0 1.078 0.384 0.384 0.375 0.874 0.238 1.203s-0.476 0.682-1.020 0.682c-0.421 0-0.762 0.342-0.762 0.762v1.301c0 0.421 0.342 0.762 0.762 0.762 0.543 0 0.883 0.353 1.020 0.682s0.146 0.819-0.238 1.203c-0.297 0.297-0.297 0.781 0 1.078l0.92 0.92c0.297 0.297 0.781 0.297 1.078 0 0.385-0.385 0.874-0.376 1.204-0.239s0.682 0.477 0.682 1.021c0 0.421 0.342 0.762 0.762 0.762h1.301c0.421 0 0.762-0.342 0.762-0.762 0-0.543 0.353-0.883 0.682-1.020s0.819-0.146 1.203 0.238c0.144 0.144 0.335 0.223 0.539 0.223s0.395-0.079 0.539-0.223l0.92-0.92c0.297-0.297 0.297-0.781 0-1.078-0.384-0.384-0.375-0.874-0.238-1.203s0.476-0.682 1.019-0.682c0.421 0 0.762-0.342 0.762-0.762v-1.301c0-0.421-0.342-0.762-0.762-0.762-0.543 0-0.883-0.353-1.019-0.682s-0.146-0.819 0.238-1.203c0.297-0.297 0.297-0.781 0-1.078l-0.104-0.104c0.614-1.159 1.783-1.917 3.087-2.006v1.225c0 0.137 0.083 0.26 0.21 0.311s0.272 0.019 0.367-0.079l2.874-3.008c0.125-0.13 0.125-0.334 0.001-0.463zM10.641 3.837l2.159-2.064 2.159 2.064h-0.699c-0.185 0-0.335 0.15-0.335 0.335v6.938c-0.13-0.104-0.295-0.167-0.475-0.167h-1.301c-0.18 0-0.345 0.063-0.475 0.167v-6.938c0-0.185-0.15-0.335-0.335-0.335h-0.698zM4.178 10.619c-0.183 0.003-0.329 0.152-0.329 0.335v0.732l-2.076-2.172 2.075-2.172v0.688c0 0.090 0.036 0.175 0.099 0.238s0.15 0.097 0.239 0.097c2.829-0.030 5.405 1.767 6.374 4.408-0.318 0.084-0.729 0.046-1.061-0.286-0.297-0.297-0.781-0.297-1.078 0l-0.323 0.324c-0.81-1.374-2.302-2.221-3.921-2.192zM18.879 17.041c0.051 0 0.092 0.041 0.092 0.092v1.301c0 0.051-0.041 0.092-0.092 0.092-0.731 0-1.359 0.42-1.639 1.096s-0.133 1.417 0.384 1.934c0.036 0.036 0.036 0.095 0 0.13l-0.92 0.92c-0.022 0.022-0.048 0.027-0.065 0.027s-0.043-0.005-0.065-0.027c-0.517-0.517-1.258-0.664-1.934-0.384s-1.096 0.908-1.096 1.639c0 0.051-0.041 0.092-0.092 0.092h-1.301c-0.051 0-0.092-0.041-0.092-0.092 0-0.731-0.42-1.36-1.096-1.64-0.226-0.094-0.46-0.14-0.691-0.14-0.457 0-0.9 0.181-1.244 0.525-0.036 0.036-0.094 0.036-0.13 0l-0.92-0.92c-0.036-0.036-0.036-0.094 0-0.13 0.517-0.517 0.664-1.258 0.384-1.934s-0.908-1.096-1.639-1.096c-0.051 0-0.092-0.041-0.092-0.092v-1.301c0-0.051 0.041-0.092 0.092-0.092 0.731 0 1.359-0.42 1.639-1.096s0.133-1.417-0.384-1.934c-0.036-0.036-0.036-0.094 0-0.13l0.92-0.92c0.036-0.036 0.094-0.036 0.13 0 0.517 0.517 1.258 0.664 1.934 0.384s1.096-0.908 1.096-1.639c0-0.051 0.041-0.092 0.092-0.092h1.301c0.051 0 0.092 0.041 0.092 0.092 0 0.731 0.42 1.359 1.096 1.639s1.417 0.133 1.934-0.384c0.022-0.022 0.048-0.027 0.065-0.027s0.043 0.005 0.065 0.027l0.92 0.92c0.036 0.036 0.036 0.095 0 0.13-0.517 0.517-0.664 1.258-0.384 1.934s0.908 1.096 1.639 1.096zM21.751 11.686v-0.732c0-0.183-0.146-0.332-0.329-0.335-0.027-0.001-0.054-0.001-0.081-0.001-1.587 0-3.043 0.842-3.839 2.193l-0.324-0.324c-0.144-0.144-0.335-0.223-0.539-0.223s-0.395 0.079-0.539 0.223c-0.332 0.332-0.743 0.37-1.061 0.286 0.961-2.618 3.503-4.408 6.302-4.408 0.024 0 0.048 0 0.072 0 0.091 0.001 0.176-0.034 0.239-0.097s0.099-0.149 0.099-0.238v-0.688l2.075 2.172-2.075 2.172zM12.8 14.27c-1.938 0-3.514 1.577-3.514 3.514s1.577 3.514 3.514 3.514c1.938 0 3.515-1.577 3.515-3.514s-1.577-3.514-3.515-3.514zM12.8 20.628c-1.568 0-2.844-1.276-2.844-2.844s1.276-2.844 2.844-2.844c1.568 0 2.844 1.276 2.844 2.844s-1.276 2.844-2.844 2.844z"/>
</symbol>
<symbol id="icon-economy" viewBox="0 0 26 32">
<path d="M13.286 8.422v-2.842c0.256 0.051 0.461 0.154 0.614 0.307 0.333 0.333 0.333 0.768 0.333 0.845 0.026 0.282 0.282 0.512 0.563 0.512s0.512-0.23 0.538-0.512c-0.128-1.203-0.819-1.894-2.048-2.022v-0.614c0-0.256-0.205-0.461-0.461-0.461s-0.461 0.205-0.461 0.461v0.614c-0.614 0.077-1.126 0.307-1.51 0.691-0.41 0.41-0.614 0.947-0.614 1.613 0 1.126 0.717 1.869 2.125 2.202v3.149c-0.282-0.077-0.512-0.179-0.691-0.333-0.512-0.486-0.512-1.126-0.512-1.229 0.051-0.384-0.282-0.691-0.589-0.691-0.282 0.026-0.563 0.307-0.512 0.691 0.102 1.434 0.87 2.253 2.304 2.458v0.589c0 0.256 0.205 0.461 0.461 0.461s0.461-0.205 0.461-0.461v-0.614c0.666-0.077 1.203-0.333 1.613-0.768 0.435-0.486 0.64-1.050 0.64-1.715 0-0.64-0.179-1.126-0.512-1.51-0.307-0.384-0.896-0.64-1.741-0.819zM12.365 8.192c-0.282-0.077-0.512-0.205-0.691-0.358-0.23-0.179-0.333-0.486-0.333-0.922 0-0.717 0.358-1.152 1.024-1.331v2.611zM13.286 12.339v-2.944c0.435 0.128 0.717 0.282 0.87 0.461 0.179 0.205 0.256 0.512 0.256 0.896 0.026 0.922-0.358 1.434-1.126 1.587zM18.355 2.202c-0.026 0-0.077 0-0.102 0-1.536-1.254-3.482-1.946-5.453-1.946s-3.917 0.691-5.427 1.946c-0.026 0-0.077 0-0.102 0-3.994 0-7.219 3.226-7.219 7.194s3.226 7.219 7.219 7.219c0.512 0 1.024-0.051 1.536-0.179 0.461 0.23 0.922 0.435 1.434 0.614v2.099h-0.794c-0.256 0-0.512 0.154-0.64 0.384s-0.102 0.512 0.051 0.742l3.251 4.762c0.128 0.205 0.358 0.307 0.589 0.307s0.461-0.102 0.589-0.307l3.251-4.762c0.154-0.23 0.179-0.512 0.051-0.742s-0.358-0.384-0.64-0.384h-0.794v-2.048c0.589-0.154 1.126-0.384 1.664-0.666 0.486 0.102 0.998 0.179 1.536 0.179 3.968 0 7.219-3.226 7.219-7.219-0.026-3.968-3.251-7.194-7.219-7.194zM7.245 15.821c-3.533 0-6.426-2.867-6.426-6.426 0-3.277 2.458-5.965 5.632-6.374 0 0.026-0.026 0.026-0.026 0.051-0.102 0.128-0.205 0.23-0.307 0.358-1.229 1.51-1.92 3.43-1.92 5.402 0 0.23 0.026 0.486 0.026 0.717 0 0.077 0 0.154 0.026 0.23 0 0 0 0.026 0 0.026 0.077 0.768 0.282 1.536 0.563 2.253 0 0 0 0 0 0.026 0.051 0.128 0.128 0.282 0.179 0.41 0.026 0.026 0.026 0.051 0.051 0.102 0.051 0.102 0.102 0.23 0.154 0.333 0.077 0.128 0.128 0.23 0.205 0.358 0 0.026 0.026 0.026 0.026 0.051 0.486 0.794 1.126 1.536 1.869 2.15 0.128 0.102 0.256 0.205 0.384 0.307 0.026 0 0.026 0.026 0.051 0.026-0.154 0-0.307 0-0.486 0zM14.669 16.435l-0.307 0.077v2.739c0 0.384 0.307 0.717 0.717 0.717h0.717l-3.098 4.506-3.098-4.506h0.717c0.384 0 0.717-0.307 0.717-0.717v-2.79l-0.307-0.077c-0.589-0.154-1.178-0.41-1.69-0.691-0.41-0.23-0.819-0.512-1.203-0.819-1.792-1.485-2.816-3.686-2.816-6.016 0-1.818 0.589-3.507 1.741-4.915 0.154-0.179 0.307-0.358 0.486-0.538s0.358-0.358 0.538-0.512c1.382-1.178 3.174-1.843 5.018-1.843s3.635 0.666 5.043 1.843c0.205 0.179 0.384 0.358 0.563 0.538 0.154 0.154 0.307 0.333 0.461 0.512 1.126 1.408 1.741 3.098 1.741 4.915 0 2.278-0.998 4.429-2.714 5.914l-0.102 0.102c-0.179 0.128-0.333 0.256-0.512 0.384-0.026 0-0.026 0.026-0.051 0.026-0.179 0.128-0.333 0.23-0.512 0.333-0.026 0.026-0.051 0.026-0.102 0.051l-0.051 0.026c-0.589 0.307-1.229 0.563-1.894 0.742zM18.355 15.821c-0.154 0-0.333 0-0.486-0.026 0 0 0 0 0 0 0.102-0.077 0.205-0.154 0.307-0.23l0.128-0.102c1.971-1.638 3.123-4.045 3.123-6.63 0-1.971-0.691-3.891-1.92-5.402-0.102-0.128-0.205-0.256-0.307-0.358 0-0.026-0.026-0.026-0.026-0.051 3.174 0.384 5.632 3.098 5.632 6.374-0.051 3.558-2.918 6.426-6.451 6.426z"/>
</symbol>
<symbol id="icon-reliability" viewBox="0 0 26 32">
<path d="M22.347 12.846c-1.31 5.684-4.535 9.702-9.588 11.943-5.053-2.241-8.278-6.258-9.588-11.943-0.832-3.608-0.587-6.793-0.482-7.758 5.203-0.542 9.058-3.381 10.070-4.196 1.012 0.815 4.867 3.654 10.070 4.196 0.105 0.965 0.35 4.15-0.482 7.758zM23.559 4.673c-0.027-0.177-0.172-0.313-0.35-0.328-5.861-0.5-10.151-4.211-10.193-4.249-0.146-0.128-0.366-0.128-0.512 0-0.043 0.038-4.333 3.749-10.193 4.249-0.179 0.015-0.323 0.151-0.35 0.328-0.024 0.156-0.571 3.869 0.45 8.322 0.947 4.131 3.485 9.666 10.196 12.573 0.049 0.021 0.102 0.032 0.154 0.032s0.105-0.011 0.154-0.032c6.711-2.907 9.248-8.442 10.195-12.573 1.021-4.453 0.474-8.166 0.45-8.322z"/>
<path d="M12.76 21.657c-8.096-3.625-7.614-12.768-7.44-14.535 3.776-0.417 6.596-2.433 7.44-3.101 0.844 0.668 3.664 2.684 7.44 3.101 0.176 1.765 0.667 10.906-7.44 14.535zM20.581 6.38c-4.348-0.371-7.534-3.125-7.566-3.153-0.146-0.128-0.366-0.128-0.512 0-0.032 0.028-3.218 2.782-7.566 3.153-0.178 0.015-0.323 0.151-0.35 0.328-0.018 0.115-1.643 11.543 8.018 15.729 0.049 0.021 0.102 0.032 0.154 0.032s0.105-0.011 0.154-0.032c9.661-4.185 8.035-15.613 8.018-15.729-0.027-0.177-0.172-0.313-0.35-0.328z"/>
<path d="M16.484 11.248l-3.987 3.906c-0.302 0.295-0.819 0.296-1.122 0.003l-2.186-2.124c-0.154-0.149-0.24-0.35-0.243-0.564s0.077-0.417 0.227-0.571c0.157-0.162 0.367-0.243 0.576-0.243 0.202 0 0.404 0.075 0.559 0.227l1.352 1.314c0.151 0.147 0.391 0.147 0.542-0.001l3.157-3.093c0.317-0.31 0.826-0.304 1.136 0.012 0.15 0.153 0.231 0.356 0.229 0.57s-0.088 0.415-0.241 0.566zM14.817 9.547l-2.887 2.828-1.081-1.050c-0.624-0.606-1.626-0.592-2.233 0.032-0.294 0.303-0.453 0.701-0.446 1.123s0.176 0.816 0.478 1.11l2.186 2.124c0.297 0.288 0.688 0.446 1.1 0.446 0.416 0 0.808-0.16 1.105-0.451l3.987-3.905c0.301-0.295 0.47-0.69 0.474-1.112s-0.156-0.82-0.451-1.121c-0.609-0.622-1.61-0.632-2.233-0.023z"/>
</symbol>
<symbol id="icon-speed" viewBox="0 0 29 32">
<path d="M10.848 17.24c0.271 0 0.45 0.179 0.45 0.45s-0.179 0.45-0.45 0.45v0h-7.788c-0.271 0-0.45-0.179-0.45-0.45s0.179-0.45 0.45-0.45v0zM0.45 13.459h7.788c0.271 0 0.45 0.179 0.45 0.45 0 0.256-0.16 0.43-0.406 0.448l-0.044 0.002h-7.788c-0.271 0-0.45-0.179-0.45-0.45 0-0.256 0.16-0.43 0.406-0.448l0.044-0.002h7.788zM3.059 9.679h7.788c0.271 0 0.45 0.179 0.45 0.45 0 0.256-0.16 0.43-0.406 0.448l-0.044 0.002h-7.788c-0.269 0-0.45-0.181-0.45-0.45 0-0.256 0.16-0.43 0.406-0.448l0.044-0.002h7.788zM27.543 8.985c0.785 1.534 1.221 3.271 1.221 5.104 0 6.258-5.087 11.345-11.345 11.342-3.016 0-5.852-1.169-8.013-3.33-0.179-0.179-0.179-0.45 0-0.63s0.45-0.179 0.63 0c1.98 1.982 4.591 3.061 7.382 3.061 5.762 0 10.443-4.681 10.443-10.443 0-1.572-0.353-3.068-0.985-4.409l0.668-0.695zM26.162 10.422c0.486 1.139 0.755 2.393 0.755 3.71 0 5.223-4.231 9.453-9.453 9.453-1.934 0-3.78-0.586-5.356-1.665-0.225-0.134-0.271-0.404-0.135-0.63 0.135-0.179 0.406-0.225 0.675-0.093 1.394 0.99 3.061 1.486 4.816 1.486 4.727 0 8.553-3.826 8.553-8.553 0-1.054-0.19-2.064-0.539-2.996l0.684-0.712zM26.045 6.49c0.401-0.055 0.793 0.154 0.97 0.517 0.178 0.365 0.101 0.801-0.189 1.083-3.311 3.319-5.704 6.010-9.054 9.367-0.343 0.348-0.895 0.373-1.268 0.059v0l-4.059-3.434c-0.191-0.16-0.311-0.389-0.332-0.638-0.022-0.249 0.056-0.495 0.217-0.685 0.161-0.191 0.392-0.31 0.639-0.331 0.249-0.021 0.495 0.059 0.685 0.22v0l3.395 2.869c2.983-3.024 5.323-5.609 8.449-8.742 0.145-0.152 0.338-0.252 0.546-0.283v0zM17.464 4.679c2.385 0 4.563 0.882 6.226 2.339l-0.622 0.65c-1.501-1.302-3.46-2.090-5.604-2.090-1.801 0-3.558 0.542-4.998 1.621-0.225 0.135-0.494 0.090-0.63-0.090s-0.090-0.494 0.090-0.63c1.621-1.171 3.557-1.801 5.537-1.801zM19.49 0c0.271 0 0.45 0.179 0.45 0.45 0 0.256-0.16 0.43-0.406 0.448l-0.044 0.002h-1.621v1.89c2.646 0.088 5.034 1.084 6.907 2.689l0.116 0.101 0.088 0.088-0.628 0.656c-1.864-1.639-4.295-2.637-6.936-2.637-2.88 0-5.581 1.171-7.607 3.287-0.179 0.179-0.45 0.179-0.63 0s-0.179-0.45 0-0.63c2.034-2.165 4.717-3.376 7.626-3.547l0.162-0.008v-1.89h-1.576c-0.271 0-0.45-0.179-0.45-0.45 0-0.256 0.16-0.43 0.406-0.449l0.044-0.002h4.097z"/>
</symbol>
</defs>
</svg>