<svg width="33" height="32" viewBox="0 0 33 32" fill="none" xmlns="http://www.w3.org/2000/svg">
<g clip-path="url(#clip0_2931_10011)">
<path fill-rule="evenodd" clip-rule="evenodd" d="M19.8518 8.92065C20.3709 9.2204 21.0353 9.04263 21.3354 8.52279C21.6355 8.00296 21.4573 7.33873 20.9381 7.03898C20.419 6.73923 19.7546 6.917 19.4545 7.43683C19.1544 7.95667 19.3326 8.6209 19.8518 8.92065ZM18.8518 10.6527C20.3277 11.5049 22.2152 10.999 23.0675 9.52279C23.9197 8.0466 23.4141 6.15909 21.9381 5.30693C20.4622 4.45476 18.5747 4.96064 17.7224 6.43683C16.8702 7.91303 17.3758 9.80054 18.8518 10.6527Z" fill="#E1FF03"/>
<path fill-rule="evenodd" clip-rule="evenodd" d="M24.2045 3.221C24.012 2.57476 23.3499 2.18982 22.693 2.34218L14.271 4.29563C13.9266 4.3755 13.6308 4.59462 13.4541 4.90076L3.98199 21.3069C3.62956 21.9173 3.83871 22.6978 4.44913 23.0503L15.3165 29.3245C15.9269 29.6769 16.7075 29.4678 17.0599 28.8574L26.5361 12.4441C26.7115 12.1403 26.7541 11.7778 26.6539 11.4416L24.2045 3.221ZM22.2412 0.393902C23.9274 0.00278574 25.627 0.990949 26.1213 2.64989L28.5706 10.8705C28.8278 11.7335 28.7184 12.6643 28.2681 13.4441L18.7919 29.8574C17.8872 31.4244 15.8835 31.9613 14.3165 31.0566L3.44913 24.7823C1.88212 23.8776 1.34523 21.8739 2.24994 20.3069L11.722 3.90076C12.1757 3.11488 12.9351 2.55239 13.8191 2.34735L22.2412 0.393902Z" fill="#E1FF03"/>
</g>
<defs>
<clipPath id="clip0_2931_10011">
<rect width="32" height="32" fill="white" transform="translate(0.769531)"/>
</clipPath>
</defs>
</svg>
