<svg width="707" height="319" viewBox="0 0 707 319" fill="none" xmlns="http://www.w3.org/2000/svg">
<mask id="mask0_4243_2150" style="mask-type:alpha" maskUnits="userSpaceOnUse" x="0" y="35" width="707" height="285">
<rect x="0.490234" y="35.8269" width="706.177" height="283.284" fill="#C4C4C4"/>
</mask>
<g mask="url(#mask0_4243_2150)">
<path d="M707.274 158.136H0.205078V43.6882C71.6262 43.6882 57.3892 72.7139 121.621 91.9736C185.14 111.02 230.534 65.6346 323.382 65.6345C445.18 65.6343 444.823 127.021 514.437 78.5202C570.129 39.7193 666.2 39.1318 707.274 43.6882V158.136Z" fill="url(#paint0_radial_4243_2150)"/>
<path d="M707.274 196.186H0.205078V93.5231C70.1587 122.433 90.8598 108.687 142.838 107.602C180.201 106.822 221.611 162.835 314.458 162.835C436.256 162.834 464.486 111.934 514.437 107.602C563.362 103.359 651.768 112.899 707.274 93.5232V196.186Z" fill="url(#paint1_radial_4243_2150)"/>
<path d="M707.273 240.998H0.204102V126.55C71.6252 126.55 57.3882 155.576 121.62 174.836C185.139 193.882 221.61 118.689 314.457 118.689C436.255 118.689 444.822 209.884 514.436 161.382C570.128 122.582 666.199 121.994 707.273 126.55V240.998Z" fill="url(#paint2_radial_4243_2150)"/>
<path d="M707.274 282.468H0.205078V179.805C70.1587 208.716 90.8598 194.969 142.838 193.884C180.201 193.104 221.611 249.117 314.458 249.117C436.256 249.116 464.486 198.216 514.437 193.884C563.362 189.641 651.768 199.181 707.274 179.805V282.468Z" fill="url(#paint3_radial_4243_2150)"/>
<path d="M707.274 318.495H0.205078V204.048C71.6262 204.048 57.3892 233.073 121.621 252.333C185.14 271.379 221.611 196.186 314.458 196.186C436.256 196.186 444.823 287.381 514.437 238.879C570.129 200.079 666.2 199.491 707.274 204.048V318.495Z" fill="url(#paint4_radial_4243_2150)"/>
</g>
<mask id="mask1_4243_2150" style="mask-type:alpha" maskUnits="userSpaceOnUse" x="242" y="140" width="134" height="42">
<rect x="242.04" y="144.053" width="132.104" height="37.474" transform="rotate(-1.6222 242.04 144.053)" fill="#C4C4C4"/>
</mask>
<g mask="url(#mask1_4243_2150)">
<path fill-rule="evenodd" clip-rule="evenodd" d="M403.853 115.663C404.123 115.594 404.866 115.449 405.411 116.029L403.785 117.558C404.04 117.829 404.321 117.833 404.415 117.823C404.411 117.824 404.408 117.825 404.404 117.826C404.315 117.848 404.119 117.924 403.785 118.106C403.134 118.462 402.206 119.082 400.995 119.953L399.691 118.142C400.908 117.266 401.933 116.575 402.716 116.147C403.099 115.938 403.49 115.755 403.853 115.663ZM404.447 117.817C404.446 117.818 404.435 117.821 404.415 117.823C404.437 117.818 404.447 117.817 404.447 117.817ZM393.817 122.543C394.473 122.045 395.101 121.567 395.702 121.112L397.049 122.891C396.454 123.343 395.828 123.818 395.175 124.315C393.355 125.698 391.317 127.247 389.09 128.909L387.755 127.12C389.973 125.465 392 123.924 393.817 122.543ZM375.709 135.763C378.568 133.806 381.267 131.885 383.779 130.054L385.094 131.858C382.567 133.699 379.85 135.633 376.969 137.605L375.709 135.763ZM363.232 143.805C366.124 142.064 368.917 140.292 371.595 138.528L372.823 140.391C370.123 142.17 367.304 143.958 364.384 145.717L363.232 143.805ZM350.273 150.98C353.242 149.488 356.148 147.918 358.975 146.303L360.082 148.241C357.224 149.873 354.283 151.462 351.276 152.974L350.273 150.98ZM336.772 156.976C339.836 155.805 342.863 154.511 345.839 153.127L346.78 155.151C343.762 156.555 340.686 157.869 337.569 159.061L336.772 156.976ZM322.703 161.339C325.866 160.601 329.018 159.691 332.142 158.641L332.853 160.756C329.669 161.827 326.449 162.757 323.21 163.512L322.703 161.339ZM308.185 163.405C311.415 163.262 314.66 162.89 317.902 162.322L318.287 164.52C314.959 165.104 311.618 165.487 308.283 165.634L308.185 163.405ZM293.646 162.355C296.834 162.992 300.06 163.342 303.31 163.441L303.242 165.672C299.877 165.57 296.526 165.206 293.209 164.544L293.646 162.355ZM279.926 157.601C282.875 159.105 285.881 160.291 288.929 161.191L288.297 163.332C285.12 162.393 281.986 161.157 278.912 159.589L279.926 157.601ZM267.951 149.356C270.477 151.602 273.066 153.543 275.707 155.203L274.518 157.093C271.771 155.365 269.083 153.35 266.468 151.024L267.951 149.356ZM258.116 138.543C260.16 141.276 262.265 143.747 264.423 145.972L262.82 147.525C260.593 145.228 258.427 142.685 256.329 139.88L258.116 138.543ZM250.237 126.072C251.859 129.093 253.536 131.896 255.263 134.494L253.405 135.73C251.637 133.07 249.924 130.207 248.27 127.128L250.237 126.072ZM244.024 112.726C245.31 115.911 246.646 118.917 248.026 121.751L246.02 122.728C244.616 119.845 243.259 116.792 241.954 113.562L244.024 112.726ZM240.571 103.389C241.124 105.025 241.689 106.62 242.264 108.176L240.171 108.95C239.588 107.374 239.016 105.759 238.457 104.105L240.571 103.389Z" fill="white" fill-opacity="0.5"/>
</g>
<path d="M398.868 181.595C395.739 183.856 386.556 186.792 384.728 187.478C418.193 197.337 422.974 234.991 408.11 251.607C419.812 248.38 431.043 243.399 436.577 239.856C453.558 197.335 418.483 173.982 398.868 181.595Z" fill="url(#paint5_linear_4243_2150)"/>
<path opacity="0.2" d="M393.619 144.502C399.648 146.086 410.318 151.708 412.017 153.181C389.3 119.333 430.488 89.723 452.16 99.2659C442.794 92.4426 429.957 86.1232 423.818 84.2207C389.572 81.5737 372.595 128.62 393.619 144.502Z" fill="url(#paint6_linear_4243_2150)"/>
<path d="M213.07 248.686C188.443 212.164 220.556 183.733 239.796 186.299C292.539 201.995 334.814 203.066 383.703 187.803C395.936 185.565 432.305 218.095 408.597 251.29C375.302 264.966 303.919 280.034 213.07 248.686Z" fill="#E1FF03"/>
<path opacity="0.2" d="M226.871 178.391C227.305 178.683 227.737 178.991 228.166 179.315C227.78 179.053 227.342 178.741 226.871 178.391C200.454 160.635 164.81 201.936 181.873 229.107C170.157 220.632 147.233 195.498 149.267 162.756C151.301 130.015 185.006 103.614 201.605 94.5054C239.689 83.184 252.101 143.042 239.097 152.21C237.159 153.576 217.476 166.407 218.343 169.636C218.947 171.888 223.672 176.015 226.871 178.391Z" fill="url(#paint7_linear_4243_2150)"/>
<path d="M181.873 229.107C165.541 204.543 199.531 158.7 228.204 179.405C221.548 174.049 219.036 172.219 218.343 169.636C217.476 166.407 237.159 153.576 239.097 152.21C252.101 143.042 239.689 83.184 201.605 94.5054C185.006 103.614 151.301 130.015 149.267 162.756C147.233 195.498 170.157 220.632 181.873 229.107Z" fill="#E1FF03"/>
<path opacity="0.2" d="M257.702 144.593C277.15 108.789 252.838 85.7174 238.537 79.2059C268.531 67.6497 347.315 51.8441 423.988 84.12C392.597 82.0453 370.039 123.965 394.038 145.358C371.846 136.535 319.176 126.561 257.702 144.593Z" fill="url(#paint8_linear_4243_2150)"/>
<path d="M257.702 144.593C277.15 108.789 252.838 85.7174 238.537 79.2059C268.531 67.6497 347.315 51.8441 423.988 84.12C392.597 82.0453 369.97 123.834 393.969 145.227C371.776 136.404 319.176 126.561 257.702 144.593Z" fill="url(#paint9_linear_4243_2150)"/>
<path d="M452.427 99.2961C420.974 88.1012 392.072 128.042 411.071 152.626C414.274 155.732 420.652 162.139 420.548 162.921C420.417 163.899 415.982 171.833 399.388 181.261C432.655 177.656 451.015 209.176 436.264 239.9C497.258 211.862 510.337 136.794 452.427 99.2961Z" fill="#E1FF03"/>
<path d="M181.671 229.308C164.858 195.868 205.032 158.87 229.642 180.685C230.405 181.807 234.644 184.983 239.792 186.325C223.976 185.199 187.936 208.158 212.659 248.555C199.135 244.234 187.729 234.745 181.671 229.308Z" fill="url(#paint10_linear_4243_2150)"/>
<path opacity="0.2" d="M238.939 79.2064C228.071 81.6464 208.613 90.9286 201.719 94.4488C241.177 84.5579 250.34 142.867 239.748 151.726C245.341 148.051 253.319 145.976 258.036 144.243C276.861 109.346 253.349 84.7091 238.939 79.2064Z" fill="url(#paint11_linear_4243_2150)"/>
<path fill-rule="evenodd" clip-rule="evenodd" d="M481.526 125.51C482.358 127.144 483.154 128.747 483.913 130.322L481.903 131.292C481.151 129.732 480.362 128.143 479.537 126.524L481.526 125.51ZM486.085 134.956C487.618 138.331 488.977 141.562 490.172 144.657L488.09 145.461C486.911 142.41 485.569 139.218 484.053 135.879L486.085 134.956ZM492.001 149.649C493.217 153.169 494.207 156.499 494.988 159.649L492.822 160.186C492.059 157.107 491.088 153.841 489.891 150.378L492.001 149.649ZM496.126 164.876C496.83 168.67 497.203 172.177 497.28 175.42L495.049 175.473C494.975 172.363 494.616 168.974 493.931 165.284L496.126 164.876ZM497.125 180.743C496.789 184.654 495.963 188.117 494.727 191.177L492.657 190.341C493.803 187.506 494.582 184.263 494.901 180.552L497.125 180.743ZM492.259 195.973C490.24 199.129 487.707 201.705 484.83 203.794L483.518 201.988C486.191 200.048 488.523 197.671 490.379 194.77L492.259 195.973ZM480.229 206.598C477.082 208.202 473.683 209.376 470.191 210.218L469.668 208.049C473.024 207.239 476.253 206.119 479.215 204.61L480.229 206.598ZM464.975 211.234C461.437 211.771 457.871 212.026 454.427 212.089L454.386 209.858C457.75 209.796 461.216 209.547 464.64 209.027L464.975 211.234ZM428.209 209.297C426.621 208.793 424.668 208.319 422.882 208.447L422.721 206.221C424.947 206.061 427.234 206.646 428.883 207.17C429.296 207.3 431.057 207.727 433.802 208.207L433.417 210.406C430.658 209.923 428.773 209.476 428.209 209.297ZM449.155 212.045C445.301 211.914 441.715 211.581 438.637 211.191L438.918 208.976C441.94 209.36 445.457 209.686 449.231 209.815L449.155 212.045ZM418.891 210.713C418.237 211.783 417.757 213.391 417.685 215.788C417.618 218.059 417.218 220.085 416.625 221.868L414.507 221.163C415.034 219.578 415.394 217.767 415.454 215.721C415.533 213.076 416.068 211.052 416.986 209.55L418.891 210.713ZM409.465 231.773C408.192 232.797 406.897 233.79 405.581 234.753L404.263 232.952C405.565 231.999 406.845 231.016 408.104 230.003L408.148 229.967L408.194 229.937L408.195 229.937L408.195 229.937L408.195 229.937L408.196 229.936L408.196 229.936L408.205 229.93C408.216 229.923 408.234 229.91 408.26 229.893C408.31 229.858 408.389 229.801 408.491 229.724C408.696 229.57 408.996 229.333 409.358 229.011C410.083 228.366 411.05 227.387 412 226.066L413.812 227.368C412.749 228.846 411.665 229.945 410.842 230.678C410.43 231.045 410.082 231.321 409.832 231.509C409.707 231.603 409.607 231.674 409.535 231.724C409.507 231.744 409.484 231.76 409.465 231.773ZM401.533 237.579C398.792 239.403 395.974 241.105 393.087 242.69L392.013 240.734C394.846 239.178 397.61 237.508 400.296 235.721L401.533 237.579ZM388.714 244.979C385.776 246.443 382.776 247.794 379.724 249.038L378.881 246.971C381.884 245.748 384.833 244.42 387.718 242.982L388.714 244.979ZM207.087 228.353C206.432 226.52 206.316 224.665 206.842 222.848L208.986 223.469C208.606 224.782 208.672 226.156 209.189 227.601L207.087 228.353ZM375.13 250.816C372.053 251.945 368.93 252.972 365.771 253.9L365.141 251.759C368.256 250.844 371.332 249.833 374.361 248.721L375.13 250.816ZM217.435 239.407C214.221 237.278 211.613 235.072 209.754 232.831L211.472 231.406C213.148 233.426 215.567 235.493 218.667 237.546L217.435 239.407ZM361.025 255.215C357.854 256.041 354.653 256.774 351.429 257.417L350.992 255.228C354.175 254.593 357.335 253.87 360.462 253.055L361.025 255.215ZM346.588 258.314C343.357 258.868 340.108 259.337 336.852 259.724L336.588 257.507C339.808 257.125 343.019 256.662 346.211 256.115L346.588 258.314ZM230.591 246.318C227.342 244.925 224.36 243.474 221.687 241.983L222.774 240.034C225.371 241.482 228.281 242.9 231.47 244.267L230.591 246.318ZM331.961 260.245C328.692 260.553 325.419 260.783 322.153 260.938L322.047 258.709C325.28 258.555 328.518 258.328 331.752 258.023L331.961 260.245ZM244.452 251.391C241.183 250.369 238.071 249.289 235.139 248.163L235.939 246.08C238.824 247.188 241.891 248.252 245.118 249.261L244.452 251.391ZM317.237 261.117C313.945 261.201 310.665 261.211 307.406 261.154L307.445 258.922C310.673 258.979 313.921 258.969 317.18 258.886L317.237 261.117ZM258.696 255.238C255.422 254.482 252.25 253.668 249.195 252.803L249.803 250.656C252.821 251.51 255.958 252.315 259.198 253.063L258.696 255.238ZM302.497 261.016C299.195 260.889 295.919 260.693 292.681 260.435L292.858 258.21C296.066 258.466 299.312 258.66 302.583 258.786L302.497 261.016ZM273.172 258.077C269.884 257.542 266.664 256.946 263.526 256.296L263.979 254.11C267.085 254.754 270.274 255.344 273.53 255.874L273.172 258.077ZM287.798 259.996C284.495 259.665 281.238 259.271 278.038 258.817L278.351 256.608C281.521 257.056 284.748 257.448 288.02 257.775L287.798 259.996Z" fill="#373737" fill-opacity="0.5"/>
<path d="M204.292 147.584C214.737 155.851 216.627 164.007 218.307 169.33C218.307 169.33 218.17 166.128 238.921 152.204C245.956 147.894 244.053 132.63 242.578 124.794C229.515 130.378 203.543 146.991 204.292 147.584Z" fill="url(#paint12_linear_4243_2150)"/>
<path d="M437.408 137.999C423.907 138.972 422.173 156.919 420.709 162.943C420.709 162.943 414.262 155.298 410.111 151.882C402.345 140.02 405.206 126.557 408.683 119.381C419.81 122.827 438.361 137.931 437.408 137.999Z" fill="url(#paint13_linear_4243_2150)"/>
<path fill-rule="evenodd" clip-rule="evenodd" d="M148.318 154.533C148.795 153.038 149.291 151.515 149.805 149.963L151.924 150.665C151.412 152.21 150.918 153.725 150.444 155.212L148.318 154.533ZM144.271 168.213C145.054 165.304 145.93 162.262 146.898 159.084L149.033 159.735C148.071 162.892 147.202 165.91 146.426 168.793L144.271 168.213ZM141.029 182.201C141.578 179.264 142.259 176.151 143.072 172.855L145.239 173.389C144.435 176.65 143.763 179.721 143.223 182.612L141.029 182.201ZM139.349 196.486C139.435 193.557 139.732 190.374 140.238 186.926L142.446 187.25C141.95 190.629 141.663 193.724 141.58 196.551L139.349 196.486ZM141.328 210.942C140.268 208.171 139.637 204.974 139.415 201.328L141.643 201.192C141.855 204.666 142.451 207.631 143.413 210.144L141.328 210.942ZM203.426 220.187C201.836 220.524 200.276 220.845 198.746 221.15L198.31 218.961C199.83 218.658 201.382 218.339 202.963 218.004L203.426 220.187ZM194.058 222.049C190.769 222.654 187.628 223.172 184.637 223.595L184.324 221.385C187.281 220.967 190.39 220.454 193.654 219.854L194.058 222.049ZM151.252 221.787C148.104 220.269 145.554 218.155 143.634 215.37L145.472 214.103C147.155 216.544 149.394 218.413 152.221 219.777L151.252 221.787ZM179.897 224.197C176.506 224.576 173.324 224.811 170.353 224.885L170.298 222.654C173.192 222.582 176.308 222.352 179.649 221.979L179.897 224.197ZM165.508 224.852C161.956 224.703 158.744 224.264 155.883 223.489L156.467 221.334C159.13 222.056 162.171 222.478 165.601 222.622L165.508 224.852Z" fill="white" fill-opacity="0.5"/>
<defs>
<radialGradient id="paint0_radial_4243_2150" cx="0" cy="0" r="1" gradientUnits="userSpaceOnUse" gradientTransform="translate(353.74 61.7615) rotate(-0.184677) scale(370.811 2252.79)">
<stop stop-color="#6E6E6E"/>
<stop offset="1"/>
</radialGradient>
<radialGradient id="paint1_radial_4243_2150" cx="0" cy="0" r="1" gradientUnits="userSpaceOnUse" gradientTransform="translate(353.74 144.855) scale(374.872 147.909)">
<stop stop-color="#AFAFAF"/>
<stop offset="1"/>
</radialGradient>
<radialGradient id="paint2_radial_4243_2150" cx="0" cy="0" r="1" gradientUnits="userSpaceOnUse" gradientTransform="translate(353.739 134.192) scale(340.635 2174.78)">
<stop stop-color="#6E6E6E"/>
<stop offset="1"/>
</radialGradient>
<radialGradient id="paint3_radial_4243_2150" cx="0" cy="0" r="1" gradientUnits="userSpaceOnUse" gradientTransform="translate(353.74 213.712) scale(364.863 137.463)">
<stop stop-color="#7B7B7B"/>
<stop offset="1"/>
</radialGradient>
<radialGradient id="paint4_radial_4243_2150" cx="0" cy="0" r="1" gradientUnits="userSpaceOnUse" gradientTransform="translate(340.44 203.774) rotate(-90) scale(94.3864 304.693)">
<stop stop-color="#686868"/>
<stop offset="1"/>
</radialGradient>
<linearGradient id="paint5_linear_4243_2150" x1="395.546" y1="238.967" x2="424.843" y2="187.833" gradientUnits="userSpaceOnUse">
<stop stop-color="#4D4D4D"/>
<stop offset="1" stop-color="#595959"/>
</linearGradient>
<linearGradient id="paint6_linear_4243_2150" x1="423.795" y1="84.2176" x2="414.549" y2="153.519" gradientUnits="userSpaceOnUse">
<stop stop-color="#C4C4C4"/>
<stop offset="1" stop-color="#C4C4C4" stop-opacity="0"/>
</linearGradient>
<linearGradient id="paint7_linear_4243_2150" x1="157.634" y1="145.154" x2="254.896" y2="165.168" gradientUnits="userSpaceOnUse">
<stop stop-color="#C4C4C4"/>
<stop offset="1" stop-color="#C4C4C4" stop-opacity="0"/>
</linearGradient>
<linearGradient id="paint8_linear_4243_2150" x1="333.157" y1="67.4669" x2="328.263" y2="154.007" gradientUnits="userSpaceOnUse">
<stop stop-color="#C4C4C4"/>
<stop offset="1" stop-color="#C4C4C4" stop-opacity="0"/>
</linearGradient>
<linearGradient id="paint9_linear_4243_2150" x1="320.432" y1="100.997" x2="319.183" y2="134.213" gradientUnits="userSpaceOnUse">
<stop stop-color="#E1FF03"/>
<stop offset="1" stop-color="#C1D132"/>
</linearGradient>
<linearGradient id="paint10_linear_4243_2150" x1="191.594" y1="234.298" x2="223.263" y2="182.375" gradientUnits="userSpaceOnUse">
<stop stop-color="#4D4D4D"/>
<stop offset="1" stop-color="#595959"/>
</linearGradient>
<linearGradient id="paint11_linear_4243_2150" x1="237.266" y1="78.9832" x2="227.774" y2="150.129" gradientUnits="userSpaceOnUse">
<stop stop-color="#C4C4C4"/>
<stop offset="1" stop-color="#C4C4C4" stop-opacity="0"/>
</linearGradient>
<linearGradient id="paint12_linear_4243_2150" x1="217.096" y1="141.338" x2="228.827" y2="156.681" gradientUnits="userSpaceOnUse">
<stop stop-color="#E1FF03" stop-opacity="0"/>
<stop offset="1" stop-color="#C1D132"/>
</linearGradient>
<linearGradient id="paint13_linear_4243_2150" x1="424.612" y1="138.486" x2="414.707" y2="154.335" gradientUnits="userSpaceOnUse">
<stop stop-color="#E1FF03" stop-opacity="0"/>
<stop offset="1" stop-color="#C1D132"/>
</linearGradient>
</defs>
</svg>
