<svg width="183" height="26" viewBox="0 0 183 26" fill="none" xmlns="http://www.w3.org/2000/svg">
<path d="M112.552 19.9765C111.73 20.6836 110.809 21.2262 109.79 21.6044C108.77 21.9826 107.714 22.1717 106.62 22.1717C105.782 22.1717 104.972 22.0607 104.191 21.8387C103.418 21.625 102.69 21.3207 102.008 20.9261C101.334 20.5232 100.717 20.0423 100.158 19.4832C99.5991 18.9241 99.1182 18.3075 98.7153 17.6333C98.3207 16.9509 98.0124 16.2233 97.7904 15.4505C97.5766 14.6694 97.4697 13.8596 97.4697 13.021C97.4697 12.1824 97.5766 11.3725 97.7904 10.5915C98.0124 9.8104 98.3207 9.08278 98.7153 8.40861C99.1182 7.72621 99.5991 7.10547 100.158 6.5464C100.717 5.98732 101.334 5.51047 102.008 5.11583C102.69 4.71296 103.418 4.40465 104.191 4.19089C104.972 3.9689 105.782 3.85791 106.62 3.85791C107.714 3.85791 108.77 4.04701 109.79 4.42521C110.809 4.79518 111.73 5.33781 112.552 6.0531L110.678 9.13623C110.16 8.57715 109.547 8.14962 108.84 7.85364C108.133 7.54944 107.393 7.39734 106.62 7.39734C105.839 7.39734 105.108 7.54533 104.425 7.84131C103.743 8.13729 103.147 8.54015 102.637 9.0499C102.127 9.55142 101.724 10.1475 101.428 10.8381C101.132 11.5205 100.984 12.2481 100.984 13.021C100.984 13.7938 101.132 14.5214 101.428 15.2038C101.724 15.878 102.127 16.47 102.637 16.9797C103.147 17.4894 103.743 17.8923 104.425 18.1883C105.108 18.4843 105.839 18.6323 106.62 18.6323C107.393 18.6323 108.133 18.4843 108.84 18.1883C109.547 17.8841 110.16 17.4524 110.678 16.8934L112.552 19.9765Z" fill="white"/>
<path d="M125.021 14.7229V11.1834C125.021 10.6983 124.926 10.242 124.737 9.81451C124.556 9.37876 124.305 9.00057 123.985 8.67992C123.664 8.35928 123.286 8.10852 122.85 7.92764C122.423 7.73854 121.966 7.64399 121.481 7.64399C120.996 7.64399 120.536 7.73854 120.1 7.92764C119.672 8.10852 119.298 8.35928 118.978 8.67992C118.657 9.00057 118.402 9.37876 118.213 9.81451C118.032 10.242 117.942 10.6983 117.942 11.1834V14.7229H125.021ZM128.56 21.7894H125.021V18.25H117.942V21.7894H114.415V11.1834C114.415 10.205 114.6 9.28833 114.97 8.43327C115.34 7.57 115.841 6.81771 116.474 6.17642C117.115 5.53513 117.864 5.0295 118.719 4.65952C119.582 4.28955 120.503 4.10456 121.481 4.10456C122.46 4.10456 123.376 4.28955 124.231 4.65952C125.095 5.0295 125.847 5.53513 126.488 6.17642C127.129 6.81771 127.635 7.57 128.005 8.43327C128.375 9.28833 128.56 10.205 128.56 11.1834V21.7894Z" fill="white"/>
<path d="M135.17 7.64399V14.7229H138.71C139.195 14.7229 139.651 14.6324 140.079 14.4515C140.506 14.2624 140.88 14.0076 141.201 13.6869C141.521 13.3663 141.772 12.9922 141.953 12.5647C142.142 12.1289 142.237 11.6685 142.237 11.1834C142.237 10.6983 142.142 10.242 141.953 9.81451C141.772 9.37876 141.521 9.00057 141.201 8.67992C140.88 8.35928 140.506 8.10852 140.079 7.92764C139.651 7.73854 139.195 7.64399 138.71 7.64399H135.17ZM135.17 21.7894H131.631V4.10456H138.71C139.359 4.10456 139.984 4.19089 140.584 4.36354C141.184 4.52798 141.743 4.76641 142.261 5.07883C142.788 5.38303 143.264 5.75301 143.692 6.18875C144.128 6.61628 144.498 7.09314 144.802 7.61933C145.114 8.14551 145.353 8.7087 145.517 9.30888C145.69 9.90906 145.776 10.5339 145.776 11.1834C145.776 11.7918 145.698 12.3838 145.542 12.9593C145.394 13.5348 145.176 14.0816 144.888 14.5995C144.609 15.1175 144.263 15.5944 143.852 16.0301C143.441 16.4658 142.981 16.844 142.471 17.1647L144.432 21.7894H140.671L139.129 18.2253L135.17 18.25V21.7894Z" fill="white"/>
<path d="M162.178 20.0012C161.356 20.7 160.44 21.2385 159.428 21.6167C158.417 21.9867 157.365 22.1717 156.271 22.1717C155.433 22.1717 154.623 22.0607 153.842 21.8387C153.069 21.625 152.345 21.3207 151.671 20.9261C150.997 20.5232 150.38 20.0464 149.821 19.4955C149.262 18.9365 148.785 18.3198 148.391 17.6457C147.996 16.9633 147.688 16.2315 147.466 15.4505C147.252 14.6694 147.145 13.8596 147.145 13.021C147.145 12.1824 147.252 11.3766 147.466 10.6038C147.688 9.83096 147.996 9.10745 148.391 8.43327C148.785 7.75087 149.262 7.13425 149.821 6.5834C150.38 6.02432 150.997 5.54746 151.671 5.15282C152.345 4.75818 153.069 4.45398 153.842 4.24022C154.623 4.01823 155.433 3.90724 156.271 3.90724C157.365 3.90724 158.417 4.09634 159.428 4.47454C160.44 4.84451 161.356 5.37892 162.178 6.07776L160.329 9.16089C159.794 8.61826 159.177 8.19484 158.479 7.89064C157.78 7.57822 157.044 7.42201 156.271 7.42201C155.498 7.42201 154.771 7.57 154.088 7.86598C153.414 8.16196 152.822 8.56482 152.312 9.07456C151.803 9.57608 151.4 10.168 151.104 10.8504C150.808 11.5246 150.66 12.2481 150.66 13.021C150.66 13.802 150.808 14.5338 151.104 15.2162C151.4 15.8986 151.803 16.4946 152.312 17.0044C152.822 17.5141 153.414 17.917 154.088 18.213C154.771 18.5089 155.498 18.6569 156.271 18.6569C156.715 18.6569 157.147 18.6035 157.566 18.4966C157.985 18.3897 158.384 18.2417 158.762 18.0526V13.021H162.178V20.0012Z" fill="white"/>
<path d="M182.231 13.021C182.231 13.8596 182.12 14.6694 181.898 15.4505C181.684 16.2233 181.38 16.9509 180.985 17.6333C180.591 18.3075 180.114 18.9241 179.555 19.4832C178.996 20.0423 178.379 20.5232 177.705 20.9261C177.031 21.3207 176.303 21.625 175.522 21.8387C174.741 22.0607 173.931 22.1717 173.093 22.1717C172.254 22.1717 171.444 22.0607 170.663 21.8387C169.89 21.625 169.163 21.3207 168.48 20.9261C167.806 20.5232 167.19 20.0423 166.63 19.4832C166.071 18.9241 165.59 18.3075 165.188 17.6333C164.793 16.9509 164.485 16.2233 164.263 15.4505C164.049 14.6694 163.942 13.8596 163.942 13.021C163.942 12.1824 164.049 11.3725 164.263 10.5915C164.485 9.8104 164.793 9.08278 165.188 8.40861C165.59 7.73443 166.071 7.1178 166.63 6.55873C167.19 5.99966 167.806 5.5228 168.48 5.12816C169.163 4.73352 169.89 4.42932 170.663 4.21555C171.444 3.99357 172.254 3.88258 173.093 3.88258C173.931 3.88258 174.741 3.99357 175.522 4.21555C176.303 4.42932 177.031 4.73352 177.705 5.12816C178.379 5.5228 178.996 5.99966 179.555 6.55873C180.114 7.1178 180.591 7.73443 180.985 8.40861C181.38 9.08278 181.684 9.8104 181.898 10.5915C182.12 11.3725 182.231 12.1824 182.231 13.021ZM178.716 13.021C178.716 12.2481 178.568 11.5205 178.272 10.8381C177.976 10.1475 177.573 9.55142 177.064 9.0499C176.562 8.54015 175.966 8.13729 175.276 7.84131C174.593 7.54533 173.866 7.39734 173.093 7.39734C172.312 7.39734 171.58 7.54533 170.897 7.84131C170.215 8.13729 169.619 8.54015 169.109 9.0499C168.6 9.55142 168.197 10.1475 167.901 10.8381C167.605 11.5205 167.457 12.2481 167.457 13.021C167.457 13.7938 167.605 14.5214 167.901 15.2038C168.197 15.878 168.6 16.47 169.109 16.9797C169.619 17.4894 170.215 17.8923 170.897 18.1883C171.58 18.4843 172.312 18.6323 173.093 18.6323C173.866 18.6323 174.593 18.4843 175.276 18.1883C175.966 17.8923 176.562 17.4894 177.064 16.9797C177.573 16.47 177.976 15.878 178.272 15.2038C178.568 14.5214 178.716 13.7938 178.716 13.021Z" fill="white"/>
<path d="M12.1229 21.7874H0V4.10254H12.1229V7.64197H3.53943V11.1814H9.34804V14.7208H3.53943V18.2479H12.1229V21.7874Z" fill="white"/>
<path d="M25.0103 14.7208V11.1814C25.0103 10.6963 24.9158 10.24 24.7267 9.81249C24.5458 9.37674 24.295 8.99855 23.9744 8.6779C23.6537 8.35726 23.2756 8.10649 22.8398 7.92562C22.4123 7.73652 21.956 7.64197 21.4709 7.64197C20.9858 7.64197 20.5254 7.73652 20.0897 7.92562C19.6621 8.10649 19.288 8.35726 18.9674 8.6779C18.6468 8.99855 18.3919 9.37674 18.2028 9.81249C18.0219 10.24 17.9315 10.6963 17.9315 11.1814V14.7208H25.0103ZM28.5498 21.7874H25.0103V18.2479H17.9315V21.7874H14.4044V11.1814C14.4044 10.203 14.5894 9.2863 14.9593 8.43125C15.3293 7.56797 15.8308 6.81569 16.4639 6.1744C17.1052 5.53311 17.8534 5.02748 18.7084 4.6575C19.5717 4.28753 20.4925 4.10254 21.4709 4.10254C22.4493 4.10254 23.366 4.28753 24.221 4.6575C25.0843 5.02748 25.8366 5.53311 26.4779 6.1744C27.1192 6.81569 27.6248 7.56797 27.9948 8.43125C28.3648 9.2863 28.5498 10.203 28.5498 11.1814V21.7874Z" fill="white"/>
<path d="M30.5846 9.40552C30.5846 8.67379 30.7244 7.98728 31.0039 7.34599C31.2835 6.7047 31.6617 6.14562 32.1385 5.66877C32.6236 5.18369 33.1868 4.80138 33.8281 4.52184C34.4694 4.24231 35.1559 4.10254 35.8876 4.10254H44.0024V7.64197H35.8876C35.6409 7.64197 35.4107 7.68719 35.197 7.77763C34.9832 7.86807 34.7941 7.9955 34.6297 8.15994C34.4735 8.31615 34.3501 8.50113 34.2597 8.7149C34.1693 8.92866 34.1241 9.15887 34.1241 9.40552C34.1241 9.65217 34.1693 9.88649 34.2597 10.1085C34.3501 10.3222 34.4735 10.5113 34.6297 10.6758C34.7941 10.832 34.9832 10.9553 35.197 11.0457C35.4107 11.1362 35.6409 11.1814 35.8876 11.1814H39.427C40.1588 11.1814 40.8453 11.3212 41.4866 11.6007C42.1361 11.872 42.6993 12.2502 43.1761 12.7353C43.6612 13.2122 44.0394 13.7753 44.3107 14.4249C44.5902 15.0661 44.73 15.7527 44.73 16.4844C44.73 17.2161 44.5902 17.9026 44.3107 18.5439C44.0394 19.1852 43.6612 19.7484 43.1761 20.2335C42.6993 20.7103 42.1361 21.0885 41.4866 21.3681C40.8453 21.6476 40.1588 21.7874 39.427 21.7874H31.5712V18.2479H39.427C39.6737 18.2479 39.9039 18.2027 40.1176 18.1123C40.3314 18.0218 40.5164 17.8985 40.6726 17.7423C40.837 17.5779 40.9645 17.3888 41.0549 17.175C41.1454 16.9612 41.1906 16.731 41.1906 16.4844C41.1906 16.2377 41.1454 16.0075 41.0549 15.7938C40.9645 15.58 40.837 15.395 40.6726 15.2388C40.5164 15.0744 40.3314 14.9469 40.1176 14.8565C39.9039 14.7661 39.6737 14.7208 39.427 14.7208H35.8876C35.1559 14.7208 34.4694 14.5811 33.8281 14.3015C33.1868 14.022 32.6236 13.6438 32.1385 13.1669C31.6617 12.6819 31.2835 12.1187 31.0039 11.4774C30.7244 10.8279 30.5846 10.1372 30.5846 9.40552Z" fill="white"/>
<path d="M55.0153 21.7874H51.4882V16.2501C50.7072 16.0527 49.9878 15.7362 49.33 15.3005C48.6805 14.8647 48.1214 14.3467 47.6528 13.7466C47.1842 13.1382 46.8183 12.4681 46.5552 11.7364C46.3004 10.9964 46.1729 10.2195 46.1729 9.40552V4.10254H49.7123V9.40552C49.7123 9.8906 49.8028 10.351 49.9837 10.7868C50.1728 11.2143 50.4276 11.5884 50.7483 11.909C51.0689 12.2297 51.443 12.4845 51.8705 12.6736C52.3063 12.8545 52.7667 12.945 53.2518 12.945C53.7369 12.945 54.1932 12.8545 54.6207 12.6736C55.0564 12.4845 55.4346 12.2297 55.7553 11.909C56.0759 11.5884 56.3267 11.2143 56.5076 10.7868C56.6967 10.351 56.7912 9.8906 56.7912 9.40552V4.10254H60.3183V9.40552C60.3183 10.2195 60.1868 10.9964 59.9237 11.7364C59.6688 12.4681 59.307 13.1382 58.8384 13.7466C58.3698 14.3467 57.8107 14.8647 57.1612 15.3005C56.5117 15.7362 55.7964 16.0527 55.0153 16.2501V21.7874Z" fill="white"/>
<path fill-rule="evenodd" clip-rule="evenodd" d="M75.0346 6.11419V0.645508H77.8454V6.11419C77.8454 9.36093 75.2134 11.9929 71.9666 11.9929L66.5244 11.9929V9.18216L71.9666 9.18217C73.661 9.18217 75.0346 7.80859 75.0346 6.11419ZM79.9227 6.11542V0.645508H82.7335V6.11542C82.7335 7.80981 84.1071 9.18339 85.8015 9.18339H91.2591V11.9941H85.8015C82.5547 11.9941 79.9227 9.36215 79.9227 6.11542ZM71.9661 16.8406H66.5244V14.0298H71.9661C75.2129 14.0298 77.8449 16.6618 77.8449 19.9085V25.3802H75.0341V19.9085C75.0341 18.2142 73.6605 16.8406 71.9661 16.8406ZM79.9223 19.9098C79.9223 16.663 82.5543 14.031 85.801 14.031H91.2591V16.8418H85.801C84.1066 16.8418 82.733 18.2154 82.733 19.9098V25.3802H79.9223V19.9098Z" fill="#E1FF03"/>
</svg>
