<svg width="24" height="24" viewBox="0 0 24 24" fill="none" xmlns="http://www.w3.org/2000/svg">
<g clip-path="url(#clip0_2931_10062)">
<path d="M1.00439 17.0362V7.04546C1.00439 6.46923 1.33864 5.94533 1.8612 5.7025L11.3515 1.29236C11.7502 1.10711 12.2105 1.10854 12.608 1.29625L21.9329 5.69995C22.4509 5.9446 22.7814 6.46611 22.7814 7.03902V17.0424C22.7814 17.6289 22.4353 18.1602 21.8987 18.3971L12.5741 22.5149C12.1958 22.682 11.7649 22.6833 11.3857 22.5185L1.89508 18.3944C1.35425 18.1594 1.00439 17.6259 1.00439 17.0362Z" stroke="#E1FF03" stroke-width="2" stroke-linecap="round"/>
<path fill-rule="evenodd" clip-rule="evenodd" d="M1.49468 5.52601C0.987492 5.30742 0.399135 5.54137 0.180547 6.04856C-0.0380415 6.55574 0.195913 7.1441 0.703099 7.36269L10.8001 11.7143V22.3624C10.8001 22.9147 11.2478 23.3624 11.8001 23.3624C12.3524 23.3624 12.8001 22.9147 12.8001 22.3624V11.7128L15.4807 10.5509L15.1007 8.53587L11.799 9.96699L1.49468 5.52601ZM17.4186 7.53119L18.8534 8.21442L19.0811 8.99038L22.7428 7.40319C23.2496 7.18355 23.4823 6.59471 23.2626 6.08798C23.043 5.58124 22.4542 5.34851 21.9474 5.56815L17.4186 7.53119Z" fill="#E1FF03"/>
<path d="M4.99023 5.12103L16.1315 9.87305C16.1952 9.90022 16.2366 9.96278 16.2366 10.032V10.8165C16.2366 12.2716 17.7777 13.2098 19.0703 12.5416V12.5416C19.7154 12.2081 20.1205 11.5427 20.1205 10.8165V8.16132C20.1205 7.98442 20.0169 7.82391 19.8557 7.75104L9.16705 2.91895" stroke="#E1FF03" stroke-width="2" stroke-linecap="round"/>
</g>
<defs>
<clipPath id="clip0_2931_10062">
<rect width="24" height="24" fill="white"/>
</clipPath>
</defs>
</svg>
