<svg width="859" height="569" viewBox="0 0 859 569" fill="none" xmlns="http://www.w3.org/2000/svg">
<mask id="mask0_2931_8928" style="mask-type:alpha" maskUnits="userSpaceOnUse" x="64" y="152" width="708" height="284">
<rect x="64.9756" y="152.419" width="706.177" height="283.284" fill="#C4C4C4"/>
</mask>
<g mask="url(#mask0_2931_8928)">
<path d="M771.76 274.729H64.6909V160.281C136.112 160.281 121.875 189.306 186.107 208.566C249.626 227.612 295.02 182.227 387.868 182.227C509.665 182.227 509.309 243.614 578.923 195.113C634.615 156.312 730.686 155.724 771.76 160.281V274.729Z" fill="#6E6E6E"/>
<path d="M771.76 312.779H64.6909V210.116C134.645 239.026 155.346 225.279 207.324 224.195C244.687 223.415 286.096 279.427 378.944 279.427C500.742 279.427 528.972 228.526 578.923 224.194C627.848 219.951 716.254 229.492 771.76 210.116V312.779Z" fill="#C3C3C3"/>
<path d="M771.759 357.591H64.6899V243.143C136.111 243.143 121.874 272.169 186.106 291.428C249.625 310.474 286.095 235.282 378.943 235.282C500.741 235.282 509.308 326.476 578.922 277.975C634.614 239.174 730.685 238.587 771.759 243.143V357.591Z" fill="#6E6E6E"/>
<path d="M771.76 399.061H64.6909V296.398C134.645 325.308 155.346 311.561 207.324 310.477C244.687 309.697 286.096 365.709 378.944 365.709C500.742 365.709 528.972 314.808 578.923 310.476C627.848 306.233 716.254 315.774 771.76 296.398V399.061Z" fill="#C3C3C3"/>
<path d="M766.404 435.088H70.0475C67.0891 435.088 64.6909 432.69 64.6909 429.731V320.64C136.112 320.64 121.875 349.666 186.107 368.926C249.626 387.971 286.096 312.779 378.944 312.779C500.742 312.779 509.309 403.973 578.923 355.472C634.615 316.671 730.686 316.084 771.76 320.64V429.731C771.76 432.69 769.362 435.088 766.404 435.088Z" fill="#6E6E6E"/>
</g>
<path d="M64.9766 101.023C64.9766 98.0644 67.3748 95.6661 70.3331 95.6661H766.332C769.29 95.6661 771.688 98.0644 771.688 101.023V429.681C771.688 432.639 769.29 435.037 766.332 435.037H70.3331C67.3748 435.037 64.9766 432.639 64.9766 429.681V101.023Z" fill="url(#paint0_linear_2931_8928)"/>
<path d="M70.3331 435.703C67.3748 435.703 64.9766 433.305 64.9766 430.347L64.9765 101.023C64.9765 98.0643 67.3748 95.6661 70.3331 95.6661L766.332 95.6661C769.29 95.6661 771.688 98.0643 771.688 101.023L771.688 430.347C771.688 433.305 769.29 435.703 766.332 435.703L70.3331 435.703Z" fill="url(#paint1_linear_2931_8928)"/>
<path d="M771.688 101.023C771.688 98.0644 769.29 95.6661 766.332 95.6661H71.7728C68.8145 95.6661 66.4163 98.0644 66.4163 101.023V429.681C66.4163 432.639 68.8145 435.037 71.7728 435.037H766.332C769.29 435.037 771.688 432.639 771.688 429.681V101.023Z" fill="url(#paint2_linear_2931_8928)"/>
<path d="M64.9766 101.023C64.9766 98.0644 67.3748 95.6661 70.3331 95.6661H766.332C769.29 95.6661 771.688 98.0644 771.688 101.023V429.681C771.688 432.639 769.29 435.037 766.332 435.037H70.3331C67.3748 435.037 64.9766 432.639 64.9766 429.681V101.023Z" fill="url(#paint3_radial_2931_8928)"/>
<mask id="mask1_2931_8928" style="mask-type:alpha" maskUnits="userSpaceOnUse" x="306" y="256" width="134" height="43">
<rect x="306.526" y="260.645" width="132.104" height="37.474" transform="rotate(-1.6222 306.526 260.645)" fill="#C4C4C4"/>
</mask>
<g mask="url(#mask1_2931_8928)">
<path d="M304 220.34C348.276 351.186 465.601 229.681 469.084 233.386" stroke="white" stroke-opacity="0.5" stroke-width="2.23191" stroke-dasharray="10.01 5"/>
</g>
<path opacity="0.2" d="M463.353 298.187C460.225 300.448 451.041 303.385 449.213 304.071C482.678 313.929 487.459 351.584 472.595 368.2C484.298 364.972 495.528 359.991 501.062 356.449C518.043 313.928 482.968 290.575 463.353 298.187Z" fill="url(#paint4_linear_2931_8928)"/>
<path opacity="0.2" d="M458.105 261.095C464.134 262.679 474.804 268.301 476.503 269.774C453.786 235.926 494.974 206.316 516.646 215.859C507.28 209.035 494.442 202.716 488.304 200.813C454.058 198.166 437.081 245.212 458.105 261.095Z" fill="url(#paint5_linear_2931_8928)"/>
<path d="M277.556 365.279C252.928 328.756 285.041 300.325 304.281 302.892C357.024 318.588 399.3 319.658 448.188 304.396C460.421 302.158 496.79 334.687 473.083 367.882C439.787 381.558 368.404 396.627 277.556 365.279Z" fill="#E1FF03"/>
<path opacity="0.2" d="M291.356 294.983C291.791 295.275 292.223 295.583 292.652 295.908C292.265 295.645 291.827 295.333 291.356 294.983C264.94 277.227 229.295 318.529 246.358 345.699C234.642 337.225 211.718 312.09 213.752 279.349C215.786 246.607 249.491 220.206 266.09 211.098C304.175 199.776 316.587 259.635 303.582 268.802C301.645 270.168 281.962 283 282.828 286.228C283.432 288.48 288.158 292.607 291.356 294.983Z" fill="url(#paint6_linear_2931_8928)"/>
<path d="M246.358 345.699C230.026 321.135 264.017 275.292 292.689 295.997C286.033 290.641 283.521 288.811 282.828 286.228C281.962 283 301.645 270.168 303.582 268.802C316.587 259.635 304.175 199.776 266.09 211.098C249.491 220.206 215.786 246.607 213.752 279.349C211.718 312.09 234.642 337.225 246.358 345.699Z" fill="#E1FF03"/>
<path opacity="0.2" d="M322.188 261.186C341.636 225.381 317.323 202.31 303.023 195.798C333.016 184.242 411.8 168.437 488.474 200.713C457.082 198.638 434.525 240.558 458.524 261.95C436.331 253.127 383.662 243.154 322.188 261.186Z" fill="url(#paint7_linear_2931_8928)"/>
<path d="M322.188 261.186C341.636 225.381 317.323 202.31 303.023 195.798C333.016 184.242 411.8 168.437 488.474 200.713C457.082 198.638 434.455 240.427 458.454 261.819C436.262 252.997 383.662 243.154 322.188 261.186Z" fill="url(#paint8_linear_2931_8928)"/>
<path d="M516.912 215.889C485.46 204.694 456.557 244.634 475.557 269.219C478.759 272.324 485.138 278.731 485.034 279.514C484.903 280.492 480.467 288.425 463.874 297.854C497.141 294.248 515.501 325.769 500.75 356.492C561.744 328.454 574.823 253.386 516.912 215.889Z" fill="#E1FF03"/>
<path opacity="0.2" d="M246.156 345.901C229.344 312.46 269.517 275.462 294.127 297.277C294.89 298.4 299.13 301.575 304.277 302.918C288.462 301.791 252.421 324.75 277.145 365.148C263.62 360.827 252.214 351.338 246.156 345.901Z" fill="url(#paint9_linear_2931_8928)"/>
<path opacity="0.2" d="M303.425 195.799C292.557 198.239 273.099 207.521 266.205 211.041C302.873 209.447 312.541 256.501 304.234 268.319C309.827 264.644 317.805 262.568 322.522 260.836C341.347 225.939 317.835 201.302 303.425 195.799Z" fill="url(#paint10_linear_2931_8928)"/>
<path d="M272.399 339.751C264.995 365.333 402.936 404.115 473.289 347.465C473.289 347.465 480.749 342.624 481.055 332.347C481.361 322.071 488.861 323.503 493.031 324.826C497.201 326.149 598.746 348.049 545.016 242.609" stroke="#373737" stroke-opacity="0.5" stroke-width="2.23191" stroke-dasharray="10.01 5"/>
<path d="M268.778 264.177C279.222 272.444 281.113 280.599 282.793 285.922C282.793 285.922 282.656 282.721 303.407 268.797C310.442 264.487 308.539 249.222 307.064 241.386C294 246.971 268.028 263.584 268.778 264.177Z" fill="url(#paint11_linear_2931_8928)"/>
<path d="M501.893 254.592C488.393 255.565 486.659 273.511 485.195 279.536C485.195 279.536 478.748 271.891 474.597 268.474C466.831 256.613 469.692 243.149 473.169 235.974C484.296 239.42 502.847 254.523 501.893 254.592Z" fill="url(#paint12_linear_2931_8928)"/>
<path d="M267.68 335.688C208.618 348.196 191.42 339.082 215.35 266.906" stroke="white" stroke-opacity="0.5" stroke-width="2.23191" stroke-dasharray="10.01 5"/>
<defs>
<linearGradient id="paint0_linear_2931_8928" x1="64.9766" y1="287.766" x2="399.888" y2="287.766" gradientUnits="userSpaceOnUse">
<stop stop-color="#1B1B1B"/>
<stop offset="1" stop-color="#1B1B1B" stop-opacity="0"/>
</linearGradient>
<linearGradient id="paint1_linear_2931_8928" x1="465.007" y1="435.703" x2="465.007" y2="274.559" gradientUnits="userSpaceOnUse">
<stop stop-color="#1B1B1B"/>
<stop offset="1" stop-color="#1B1B1B" stop-opacity="0"/>
</linearGradient>
<linearGradient id="paint2_linear_2931_8928" x1="771.688" y1="287.766" x2="437.459" y2="287.766" gradientUnits="userSpaceOnUse">
<stop stop-color="#1B1B1B"/>
<stop offset="1" stop-color="#1B1B1B" stop-opacity="0"/>
</linearGradient>
<radialGradient id="paint3_radial_2931_8928" cx="0" cy="0" r="1" gradientUnits="userSpaceOnUse" gradientTransform="translate(392.513 300.336) rotate(-90) scale(177.996 405.23)">
<stop stop-color="#1B1B1B" stop-opacity="0"/>
<stop offset="1" stop-color="#1B1B1B" stop-opacity="0.41"/>
</radialGradient>
<linearGradient id="paint4_linear_2931_8928" x1="480.503" y1="297.744" x2="471.13" y2="368.004" gradientUnits="userSpaceOnUse">
<stop stop-color="#C4C4C4"/>
<stop offset="1" stop-color="#C4C4C4" stop-opacity="0"/>
</linearGradient>
<linearGradient id="paint5_linear_2931_8928" x1="488.28" y1="200.81" x2="479.035" y2="270.111" gradientUnits="userSpaceOnUse">
<stop stop-color="#C4C4C4"/>
<stop offset="1" stop-color="#C4C4C4" stop-opacity="0"/>
</linearGradient>
<linearGradient id="paint6_linear_2931_8928" x1="222.12" y1="261.746" x2="319.381" y2="281.76" gradientUnits="userSpaceOnUse">
<stop stop-color="#C4C4C4"/>
<stop offset="1" stop-color="#C4C4C4" stop-opacity="0"/>
</linearGradient>
<linearGradient id="paint7_linear_2931_8928" x1="397.642" y1="184.059" x2="392.748" y2="270.599" gradientUnits="userSpaceOnUse">
<stop stop-color="#C4C4C4"/>
<stop offset="1" stop-color="#C4C4C4" stop-opacity="0"/>
</linearGradient>
<linearGradient id="paint8_linear_2931_8928" x1="384.917" y1="217.589" x2="383.668" y2="250.805" gradientUnits="userSpaceOnUse">
<stop stop-color="#E1FF03"/>
<stop offset="1" stop-color="#C1D132"/>
</linearGradient>
<linearGradient id="paint9_linear_2931_8928" x1="274.701" y1="289.558" x2="264.835" y2="363.505" gradientUnits="userSpaceOnUse">
<stop stop-color="#C4C4C4"/>
<stop offset="1" stop-color="#C4C4C4" stop-opacity="0"/>
</linearGradient>
<linearGradient id="paint10_linear_2931_8928" x1="301.752" y1="195.576" x2="292.26" y2="266.721" gradientUnits="userSpaceOnUse">
<stop stop-color="#C4C4C4"/>
<stop offset="1" stop-color="#C4C4C4" stop-opacity="0"/>
</linearGradient>
<linearGradient id="paint11_linear_2931_8928" x1="281.582" y1="257.93" x2="293.313" y2="273.274" gradientUnits="userSpaceOnUse">
<stop stop-color="#E1FF03" stop-opacity="0"/>
<stop offset="1" stop-color="#C1D132"/>
</linearGradient>
<linearGradient id="paint12_linear_2931_8928" x1="489.098" y1="255.079" x2="479.193" y2="270.927" gradientUnits="userSpaceOnUse">
<stop stop-color="#E1FF03" stop-opacity="0"/>
<stop offset="1" stop-color="#C1D132"/>
</linearGradient>
</defs>
</svg>
