<svg width="26" height="26" viewBox="0 0 26 26" fill="none" xmlns="http://www.w3.org/2000/svg">
<path fill-rule="evenodd" clip-rule="evenodd" d="M9.3012 6.18353V0.714844H12.112V6.18353C12.112 9.43027 9.47996 12.0623 6.23323 12.0623L0.791016 12.0623V9.2515L6.23323 9.2515C7.92762 9.2515 9.3012 7.87792 9.3012 6.18353ZM14.1893 6.18475V0.714844H17.0001V6.18475C17.0001 7.87915 18.3737 9.25272 20.0681 9.25272H25.5257V12.0635H20.0681C16.8213 12.0635 14.1893 9.43149 14.1893 6.18475ZM6.23275 16.9099H0.791016V14.0991H6.23275C9.47948 14.0991 12.1115 16.7311 12.1115 19.9779V25.4496H9.30072V19.9779C9.30072 18.2835 7.92714 16.9099 6.23275 16.9099ZM14.1889 19.9791C14.1889 16.7324 16.8209 14.1004 20.0676 14.1004H25.5257V16.9111H20.0676C18.3732 16.9111 16.9996 18.2847 16.9996 19.9791V25.4496H14.1889V19.9791Z" fill="#E1FF03"/>
</svg>
