<svg width="22" height="23" viewBox="0 0 22 23" fill="none" xmlns="http://www.w3.org/2000/svg">
<path fill-rule="evenodd" clip-rule="evenodd" d="M12.9129 4.3902L16.3523 0.716652L18.1201 2.60476L14.6806 6.27831C12.6387 8.45928 9.32801 8.45928 7.28605 6.27831L3.8633 2.62254L5.63106 0.734434L9.05382 4.3902C10.1195 5.5284 11.8472 5.5284 12.9129 4.3902ZM15.9864 7.67459L19.4266 4.00022L21.1943 5.88833L17.7542 9.5627C16.6885 10.7009 16.6885 12.5463 17.7542 13.6845L21.1866 17.3506L19.4189 19.2387L15.9864 15.5726C13.9444 13.3916 13.9444 9.85556 15.9864 7.67459ZM4.23694 9.53436L0.814479 5.87892L2.58224 3.99081L6.0047 7.64625C8.04666 9.82722 8.04666 13.3633 6.0047 15.5442L2.56342 19.2198L0.795654 17.3317L4.23694 13.6561C5.30259 12.5179 5.30259 10.6726 4.23694 9.53436ZM7.31045 16.9405C9.35241 14.7596 12.6631 14.7596 14.705 16.9405L18.1378 20.607L16.37 22.4951L12.9373 18.8286C11.8716 17.6904 10.1439 17.6904 9.07822 18.8286L5.6377 22.5034L3.86994 20.6153L7.31045 16.9405Z" fill="#E1FF03"/>
</svg>
