<svg width="33" height="32" viewBox="0 0 33 32" fill="none" xmlns="http://www.w3.org/2000/svg">
<g clip-path="url(#clip0_2931_10027)">
<path fill-rule="evenodd" clip-rule="evenodd" d="M1.36963 2.92624C1.36963 1.64149 2.41112 0.6 3.69587 0.6L23.1989 0.600001C24.4837 0.600001 25.5252 1.64149 25.5252 2.92624V29.1419C25.5252 30.4266 24.4837 31.4681 23.1989 31.4681L3.69587 31.4681C2.41112 31.4681 1.36963 30.4266 1.36963 29.1419V2.92624ZM3.69587 2.6C3.51569 2.6 3.36963 2.74606 3.36963 2.92624V29.1419C3.36963 29.322 3.51569 29.4681 3.69587 29.4681L23.1989 29.4681C23.3791 29.4681 23.5252 29.322 23.5252 29.1419V2.92624C23.5252 2.74606 23.3791 2.6 23.1989 2.6L3.69587 2.6Z" fill="#E1FF03"/>
<path fill-rule="evenodd" clip-rule="evenodd" d="M19.2312 26.4641C19.7822 26.4641 20.2294 26.0172 20.2294 25.4654C20.2294 24.9136 19.7822 24.4667 19.2312 24.4667C18.6801 24.4667 18.2329 24.9136 18.2329 25.4654C18.2329 26.0172 18.6801 26.4641 19.2312 26.4641ZM19.2312 28.4641C20.887 28.4641 22.2294 27.1215 22.2294 25.4654C22.2294 23.8093 20.887 22.4667 19.2312 22.4667C17.5753 22.4667 16.2329 23.8093 16.2329 25.4654C16.2329 27.1215 17.5753 28.4641 19.2312 28.4641Z" fill="#E1FF03"/>
<path fill-rule="evenodd" clip-rule="evenodd" d="M5.63477 6.03186C5.63477 5.47958 6.08248 5.03186 6.63477 5.03186H20.9078C21.4601 5.03186 21.9078 5.47958 21.9078 6.03186C21.9078 6.58415 21.4601 7.03186 20.9078 7.03186H6.63477C6.08248 7.03186 5.63477 6.58415 5.63477 6.03186Z" fill="#E1FF03"/>
<path fill-rule="evenodd" clip-rule="evenodd" d="M5.63477 9.58938C5.63477 9.0371 6.08248 8.58938 6.63477 8.58938H14.8912C15.4435 8.58938 15.8912 9.0371 15.8912 9.58938C15.8912 10.1417 15.4435 10.5894 14.8912 10.5894H6.63477C6.08248 10.5894 5.63477 10.1417 5.63477 9.58938Z" fill="#E1FF03"/>
<path fill-rule="evenodd" clip-rule="evenodd" d="M26.914 4.2379C26.9139 2.82884 28.0562 1.68651 29.4652 1.68651C30.8742 1.68651 32.0164 2.8287 32.0164 4.23767L32.0164 27.2639L29.4001 32.7375L26.9161 27.2519L26.914 4.2379ZM29.4652 3.68651C29.1608 3.68651 28.914 3.9333 28.914 4.23772L28.916 26.8201L29.4491 27.9973L30.0164 26.8105L30.0164 4.23767C30.0164 3.93327 29.7696 3.68651 29.4652 3.68651Z" fill="#E1FF03"/>
</g>
<defs>
<clipPath id="clip0_2931_10027">
<rect width="32" height="32" fill="white" transform="translate(0.769531)"/>
</clipPath>
</defs>
</svg>
